SplineFontDB: 3.0
FontName: ConsolaMono
FullName: Consola Mono
FamilyName: Consola Mono
Weight: Book
Copyright: Copyright (c) 2011, wmk69 (wmk69@o2.pl)\nwith Reserved Font Names 'ConsolaMono' and 'Consola Mono'.\n\nThis Font Software is licensed under the SIL Open Font License, Version 1.1.\nThis license is available with a FAQ at:\nhttp://scripts.sil.org/OFL
Version: 2.000
ItalicAngle: 0
UnderlinePosition: -81
UnderlineWidth: 122
Ascent: 1638
Descent: 410
sfntRevision: 0x00020000
LayerCount: 2
Layer: 0 1 "Back"  1
Layer: 1 1 "Fore"  0
NeedsXUIDChange: 1
XUID: [1021 992 1258595862 14825132]
FSType: 0
OS2Version: 3
OS2_WeightWidthSlopeOnly: 0
OS2_UseTypoMetrics: 1
CreationTime: 1260698820
ModificationTime: 1341400649
PfmFamily: 17
TTFWeight: 400
TTFWidth: 5
LineGap: 0
VLineGap: 0
Panose: 2 13 5 9 2 4 4 6 2 4
OS2TypoAscent: 685
OS2TypoAOffset: 1
OS2TypoDescent: -71
OS2TypoDOffset: 1
OS2TypoLinegap: 0
OS2WinAscent: 304
OS2WinAOffset: 1
OS2WinDescent: 60
OS2WinDOffset: 1
HheadAscent: 304
HheadAOffset: 1
HheadDescent: -60
HheadDOffset: 1
OS2SubXSize: 1434
OS2SubYSize: 1331
OS2SubXOff: 0
OS2SubYOff: 287
OS2SupXSize: 1434
OS2SupYSize: 1331
OS2SupXOff: 0
OS2SupYOff: 977
OS2StrikeYSize: 102
OS2StrikeYPos: 512
OS2Vendor: '    '
OS2CodePages: 20000093.00000000
OS2UnicodeRanges: 8000002f.4000204b.00000000.00000000
DEI: 91125
TtTable: prep
PUSHW_1
 511
SCANCTRL
PUSHB_1
 1
SCANTYPE
SVTCA[y-axis]
MPPEM
PUSHB_1
 8
LT
IF
PUSHB_2
 1
 1
INSTCTRL
EIF
PUSHB_2
 70
 6
CALL
IF
POP
PUSHB_1
 16
EIF
MPPEM
PUSHB_1
 20
GT
IF
POP
PUSHB_1
 128
EIF
SCVTCI
PUSHB_1
 6
CALL
NOT
IF
SVTCA[y-axis]
PUSHB_1
 4
DUP
RCVT
PUSHB_1
 3
CALL
WCVTP
PUSHB_1
 5
DUP
RCVT
PUSHB_3
 4
 160
 2
CALL
PUSHB_1
 3
CALL
WCVTP
SVTCA[x-axis]
PUSHB_1
 6
DUP
RCVT
PUSHB_1
 3
CALL
WCVTP
PUSHB_1
 7
DUP
RCVT
PUSHW_3
 6
 32767
 2
CALL
PUSHB_2
 3
 70
SROUND
CALL
WCVTP
EIF
PUSHB_1
 20
CALL
EndTTInstrs
TtTable: fpgm
PUSHB_1
 0
FDEF
PUSHB_1
 0
SZP0
MPPEM
PUSHB_1
 42
LT
IF
PUSHB_1
 74
SROUND
EIF
PUSHB_1
 0
SWAP
MIAP[rnd]
RTG
PUSHB_1
 6

StartChar: .notdef
Encoding: 1462 -1 0
Width: 1200
Flags: W
LayerCount: 2
Fore
SplineSet
200 0 m 1,0,-1
 200 1500 l 1,1,-1
 1000 1500 l 1,2,-1
 1000 0 l 1,3,-1
 200 0 l 1,0,-1
268 68 m 1,4,-1
 932 68 l 1,5,-1
 932 1432 l 1,6,-1
 268 1432 l 1,7,-1
 268 68 l 1,4,-1
EndSplineSet
EndChar

StartChar: exclam
Encoding: 1 33 4
Width: 1200
GlyphClass: 2
Flags: W
LayerCount: 2
Fore
SplineSet
600 244 m 0,0,1
 659 244 659 244 694 208 c 0,2,3
 734 167 734 167 734 112 c 128,-1,4
 734 57 734 57 694 18 c 0,5,6
 655 -20 655 -20 600 -20 c 0,7,8
 543 -20 543 -20 506 16 c 0,9,10
 466 55 466 55 466 112 c 128,-1,11
 466 169 466 169 506 206.5 c 128,-1,12
 546 244 546 244 600 244 c 0,0,1
490 1500 m 1,13,-1
 710 1500 l 1,14,-1
 670 370 l 1,15,-1
 530 370 l 1,16,-1
 490 1500 l 1,13,-1
EndSplineSet
EndChar

StartChar: quotedbl
Encoding: 2 34 5
Width: 1200
GlyphClass: 2
Flags: W
LayerCount: 2
Fore
SplineSet
648 1500 m 1,0,-1
 836 1500 l 1,1,-1
 806 1016 l 1,2,-1
 678 1016 l 1,3,-1
 648 1500 l 1,0,-1
364 1500 m 1,4,-1
 552 1500 l 1,5,-1
 522 1016 l 1,6,-1
 394 1016 l 1,7,-1
 364 1500 l 1,4,-1
EndSplineSet
EndChar

StartChar: numbersign
Encoding: 3 35 6
Width: 1200
GlyphClass: 2
Flags: W
LayerCount: 2
Fore
SplineSet
370 168 m 1,0,-1
 370 515 l 1,1,-1
 186 515 l 1,2,-1
 186 665 l 1,3,-1
 370 665 l 1,4,-1
 370 835 l 1,5,-1
 186 835 l 1,6,-1
 186 985 l 1,7,-1
 370 985 l 1,8,-1
 370 1332 l 1,9,-1
 520 1332 l 1,10,-1
 520 985 l 1,11,-1
 690 985 l 1,12,-1
 690 1332 l 1,13,-1
 840 1332 l 1,14,-1
 840 985 l 1,15,-1
 1014 985 l 1,16,-1
 1014 835 l 1,17,-1
 840 835 l 1,18,-1
 840 665 l 1,19,-1
 1014 665 l 1,20,-1
 1014 515 l 1,21,-1
 840 515 l 1,22,-1
 840 168 l 1,23,-1
 690 168 l 1,24,-1
 690 515 l 1,25,-1
 520 515 l 1,26,-1
 520 168 l 1,27,-1
 370 168 l 1,0,-1
520 665 m 1,28,-1
 690 665 l 1,29,-1
 690 835 l 1,30,-1
 520 835 l 1,31,-1
 520 665 l 1,28,-1
EndSplineSet
EndChar

StartChar: dollar
Encoding: 4 36 7
Width: 1200
GlyphClass: 2
Flags: W
LayerCount: 2
Fore
SplineSet
150 434 m 1,0,-1
 330 434 l 1,1,2
 330 313 330 313 395 231 c 0,3,4
 455 155 455 155 545 138 c 1,5,-1
 545 747 l 1,6,-1
 389 826 l 1,7,8
 198 928 198 928 198 1143 c 0,9,10
 198 1308 198 1308 309 1412 c 0,11,12
 407 1504 407 1504 545 1518 c 1,13,-1
 545 1760 l 1,14,-1
 655 1760 l 1,15,-1
 655 1516 l 1,16,17
 785 1500 785 1500 877 1412 c 0,18,19
 984 1310 984 1310 984 1143 c 1,20,-1
 816 1143 l 1,21,22
 815 1243 815 1243 752 1302 c 0,23,24
 709 1342 709 1342 655 1357 c 1,25,-1
 655 893 l 1,26,-1
 791 825 l 1,27,28
 1050 703 1050 703 1050 434 c 0,29,30
 1050 254 1050 254 931 120 c 1,31,32
 822 -1 822 -1 655 -17 c 1,33,-1
 655 -259 l 1,34,-1
 545 -258 l 1,35,-1
 545 -17 l 1,36,37
 380 0 380 0 266 121 c 0,38,39
 150 244 150 244 150 434 c 1,0,-1
545 947 m 1,40,-1
 545 1361 l 1,41,42
 481 1349 481 1349 430 1305 c 0,43,44
 366 1250 366 1250 366 1160 c 0,45,46
 366 1052 366 1052 467 986 c 1,47,-1
 545 947 l 1,40,-1
655 692 m 1,48,-1
 655 139 l 1,49,50
 740 157 740 157 803 233 c 0,51,52
 870 314 870 314 870 434 c 0,53,54
 870 572 870 572 742 648 c 1,55,-1
 655 692 l 1,48,-1
EndSplineSet
EndChar

StartChar: percent
Encoding: 5 37 8
Width: 1200
GlyphClass: 2
Flags: W
LayerCount: 2
Fore
SplineSet
699 205 m 128,-1,1
 750 152 750 152 830 152 c 0,2,3
 914 152 914 152 964.5 202.5 c 128,-1,4
 1015 253 1015 253 1015 334 c 0,5,6
 1015 411 1015 411 966 461 c 0,7,8
 914 515 914 515 833 515 c 128,-1,9
 752 515 752 515 701 467 c 1,10,11
 648 415 648 415 648 334 c 0,12,0
 648 258 648 258 699 205 c 128,-1,1
494 339 m 0,13,14
 494 470 494 470 592 568 c 0,15,16
 689 665 689 665 832 665 c 0,17,18
 973 665 973 665 1072 568 c 0,19,20
 1170 472 1170 472 1170 333 c 0,21,22
 1170 191 1170 191 1072 97 c 0,23,24
 971 0 971 0 832 0 c 0,25,26
 690 0 690 0 592 100 c 128,-1,27
 494 200 494 200 494 339 c 0,13,14
235 1060 m 128,-1,29
 286 1007 286 1007 366 1007 c 0,30,31
 450 1007 450 1007 500.5 1057.5 c 128,-1,32
 551 1108 551 1108 551 1189 c 0,33,34
 551 1266 551 1266 502 1316 c 0,35,36
 450 1370 450 1370 369 1370 c 128,-1,37
 288 1370 288 1370 237 1322 c 1,38,39
 184 1270 184 1270 184 1189 c 0,40,28
 184 1113 184 1113 235 1060 c 128,-1,29
1021 1382 m 1,41,-1
 1140 1285 l 1,42,-1
 176 136 l 1,43,-1
 57 233 l 1,44,-1
 1021 1382 l 1,41,-1
30 1194 m 0,45,46
 30 1325 30 1325 128 1423 c 0,47,48
 225 1520 225 1520 368 1520 c 0,49,50
 509 1520 509 1520 608 1423 c 0,51,52
 706 1327 706 1327 706 1188 c 0,53,54
 706 1046 706 1046 608 952 c 0,55,56
 507 855 507 855 368 855 c 0,57,58
 226 855 226 855 128 955 c 128,-1,59
 30 1055 30 1055 30 1194 c 0,45,46
EndSplineSet
EndChar

StartChar: ampersand
Encoding: 6 38 9
Width: 1200
GlyphClass: 2
Flags: W
LayerCount: 2
Fore
SplineSet
1132 0 m 1,0,-1
 941 0 l 1,1,-1
 849 152 l 1,2,3
 694 -20 694 -20 518 -20 c 0,4,5
 313 -20 313 -20 187 120 c 1,6,7
 68 254 68 254 68 434 c 0,8,9
 68 703 68 703 327 825 c 1,10,11
 134 927 134 927 134 1143 c 0,12,13
 134 1306 134 1306 245 1412 c 0,14,15
 359 1520 359 1520 529 1520 c 0,16,17
 700 1520 700 1520 813 1412 c 0,18,19
 920 1309 920 1309 920 1143 c 1,20,-1
 752 1143 l 1,21,22
 751 1243 751 1243 688 1302 c 0,23,24
 621 1365 621 1365 527 1365 c 0,25,26
 435 1365 435 1365 366 1305 c 0,27,28
 303 1250 303 1250 303 1128 c 0,29,30
 303 1015 303 1015 374 950 c 0,31,32
 433 896 433 896 581 896 c 1,33,-1
 861 422 l 1,34,35
 916 539 916 539 916 749 c 0,36,37
 916 800 916 800 908 903 c 1,38,-1
 1096 903 l 1,39,40
 1096 514 1096 514 951 286 c 1,41,-1
 1132 0 l 1,0,-1
495 734 m 1,42,43
 386 715 386 715 328 648 c 0,44,45
 248 556 248 556 248 434 c 128,-1,46
 248 312 248 312 315 233 c 0,47,48
 400 133 400 133 518 133 c 0,49,50
 652 133 652 133 771 280 c 1,51,-1
 495 734 l 1,42,43
EndSplineSet
EndChar

StartChar: quotesingle
Encoding: 7 39 10
Width: 1200
GlyphClass: 2
Flags: W
LayerCount: 2
Fore
SplineSet
506 1500 m 1,0,-1
 694 1500 l 1,1,-1
 664 1016 l 1,2,-1
 536 1016 l 1,3,-1
 506 1500 l 1,0,-1
EndSplineSet
EndChar

StartChar: parenleft
Encoding: 8 40 11
Width: 1200
GlyphClass: 2
Flags: W
LayerCount: 2
Fore
SplineSet
679 1760 m 1,0,1
 679 1760 679 1760 846 1760 c 1,2,3
 683 1528 683 1528 599 1252 c 0,4,5
 526 1011 526 1011 526 750 c 0,6,7
 526 480 526 480 599 247 c 1,8,9
 681 -21 681 -21 846 -260 c 1,10,-1
 679 -260 l 1,11,12
 507 19 507 19 431 259 c 0,13,14
 354 505 354 505 354 750 c 0,15,16
 354 1005 354 1005 431 1241 c 0,17,18
 512 1489 512 1489 679 1760 c 1,0,1
EndSplineSet
EndChar

StartChar: parenright
Encoding: 9 41 12
Width: 1200
GlyphClass: 2
Flags: W
LayerCount: 2
Fore
SplineSet
354 1760 m 1,0,-1
 521 1760 l 1,1,2
 688 1489 688 1489 769 1241 c 0,3,4
 846 1005 846 1005 846 750 c 0,5,6
 846 505 846 505 769 259 c 0,7,8
 693 19 693 19 521 -260 c 1,9,-1
 354 -260 l 1,10,11
 519 -21 519 -21 601 247 c 1,12,13
 674 480 674 480 674 750 c 0,14,15
 674 1011 674 1011 601 1252 c 0,16,17
 517 1528 517 1528 354 1760 c 1,0,-1
EndSplineSet
EndChar

StartChar: asterisk
Encoding: 10 42 13
Width: 1200
GlyphClass: 2
Flags: W
LayerCount: 2
Fore
SplineSet
680 672 m 1,0,-1
 520 672 l 1,1,-1
 520 967 l 1,2,-1
 281 810 l 1,3,-1
 201 948 l 1,4,-1
 460 1086 l 1,5,-1
 201 1224 l 1,6,-1
 281 1362 l 1,7,-1
 520 1205 l 1,8,-1
 520 1500 l 1,9,-1
 680 1500 l 1,10,-1
 680 1205 l 1,11,-1
 919 1362 l 1,12,-1
 999 1224 l 1,13,-1
 740 1086 l 1,14,-1
 999 948 l 1,15,-1
 919 810 l 1,16,-1
 680 967 l 1,17,-1
 680 672 l 1,0,-1
EndSplineSet
EndChar

StartChar: plus
Encoding: 11 43 14
Width: 1200
GlyphClass: 2
Flags: W
LayerCount: 2
Fore
SplineSet
186 670 m 1,0,-1
 186 830 l 1,1,-1
 520 830 l 1,2,-1
 520 1164 l 1,3,-1
 680 1164 l 1,4,-1
 680 830 l 1,5,-1
 1014 830 l 1,6,-1
 1014 670 l 1,7,-1
 680 670 l 1,8,-1
 680 336 l 1,9,-1
 520 336 l 1,10,-1
 520 670 l 1,11,-1
 186 670 l 1,0,-1
EndSplineSet
EndChar

StartChar: comma
Encoding: 12 44 15
Width: 1200
GlyphClass: 2
Flags: W
LayerCount: 2
Fore
SplineSet
662 202 m 1,0,1
 716 107 716 107 716 -7 c 0,2,3
 716 -182 716 -182 485 -292 c 1,4,-1
 485 -176 l 1,5,6
 557 -108 557 -108 557 -9 c 0,7,8
 557 53 557 53 499 132 c 1,9,10
 499 132 499 132 662 202 c 1,0,1
EndSplineSet
EndChar

StartChar: hyphen
Encoding: 13 45 16
Width: 1200
GlyphClass: 2
Flags: W
LayerCount: 2
Fore
SplineSet
186 670 m 1,0,-1
 186 830 l 1,1,-1
 1014 830 l 1,2,-1
 1014 670 l 1,3,-1
 186 670 l 1,0,-1
EndSplineSet
EndChar

StartChar: period
Encoding: 14 46 17
Width: 1200
GlyphClass: 2
Flags: W
LayerCount: 2
Fore
SplineSet
600 244 m 0,0,1
 659 244 659 244 694 208 c 0,2,3
 734 167 734 167 734 112 c 128,-1,4
 734 57 734 57 694 18 c 0,5,6
 655 -20 655 -20 600 -20 c 0,7,8
 543 -20 543 -20 506 16 c 0,9,10
 466 55 466 55 466 112 c 128,-1,11
 466 169 466 169 506 206.5 c 128,-1,12
 546 244 546 244 600 244 c 0,0,1
EndSplineSet
EndChar

StartChar: slash
Encoding: 15 47 18
Width: 1200
GlyphClass: 2
Flags: W
LayerCount: 2
Fore
SplineSet
1160 1760 m 1,0,-1
 219 -260 l 1,1,-1
 40 -260 l 1,2,-1
 983 1760 l 1,3,-1
 1160 1760 l 1,0,-1
EndSplineSet
EndChar

StartChar: zero
Encoding: 16 48 19
Width: 1200
GlyphClass: 2
Flags: W
LayerCount: 2
Fore
SplineSet
600 -20 m 0,0,1
 342 -20 342 -20 216 217 c 0,2,3
 110 417 110 417 110 750 c 128,-1,4
 110 1083 110 1083 216 1283 c 0,5,6
 342 1520 342 1520 600 1520 c 0,7,8
 860 1520 860 1520 984 1283 c 0,9,10
 1090 1080 1090 1080 1090 750 c 128,-1,11
 1090 420 1090 420 984 217 c 0,12,13
 860 -20 860 -20 600 -20 c 0,0,1
600 133 m 0,14,15
 752 133 752 133 842 302 c 0,16,17
 920 448 920 448 920 750 c 0,18,19
 920 914 920 914 897 1032 c 1,20,-1
 358 302 l 1,21,22
 453 133 453 133 600 133 c 0,14,15
305 454 m 1,23,-1
 842 1198 l 1,24,25
 752 1367 752 1367 600 1367 c 0,26,27
 449 1367 449 1367 358 1198 c 0,28,29
 280 1053 280 1053 280 750 c 0,30,31
 280 575 280 575 305 454 c 1,23,-1
EndSplineSet
EndChar

StartChar: one
Encoding: 17 49 20
Width: 1200
GlyphClass: 2
Flags: W
LayerCount: 2
Fore
SplineSet
250 0 m 1,0,-1
 250 160 l 1,1,-1
 584 160 l 1,2,-1
 584 1300 l 1,3,-1
 250 940 l 1,4,-1
 250 1150 l 1,5,-1
 574 1500 l 1,6,-1
 754 1500 l 1,7,-1
 754 160 l 1,8,-1
 1078 160 l 1,9,-1
 1078 0 l 1,10,-1
 250 0 l 1,0,-1
EndSplineSet
EndChar

StartChar: two
Encoding: 18 50 21
Width: 1200
GlyphClass: 2
Flags: W
LayerCount: 2
Fore
SplineSet
150 0 m 1,0,-1
 150 160 l 2,1,2
 150 321 150 321 341 477 c 1,3,-1
 702 781 l 2,4,5
 870 922 870 922 870 1066 c 0,6,7
 870 1176 870 1176 803 1267 c 1,8,9
 727 1367 727 1367 600 1367 c 128,-1,10
 473 1367 473 1367 395 1269 c 0,11,12
 330 1187 330 1187 330 1066 c 1,13,-1
 150 1066 l 1,14,15
 150 1256 150 1256 266 1379 c 0,16,17
 399 1520 399 1520 600 1520 c 0,18,19
 805 1520 805 1520 931 1380 c 1,20,21
 1050 1246 1050 1246 1050 1066 c 0,22,23
 1050 851 1050 851 834 671 c 2,24,-1
 431 334 l 1,25,26
 330 248 330 248 330 160 c 1,27,-1
 1050 160 l 1,28,-1
 1050 0 l 1,29,-1
 150 0 l 1,0,-1
EndSplineSet
EndChar

StartChar: three
Encoding: 19 51 22
Width: 1200
GlyphClass: 2
Flags: W
LayerCount: 2
Fore
SplineSet
150 434 m 1,0,-1
 330 434 l 1,1,2
 330 313 330 313 395 231 c 0,3,4
 473 133 473 133 600 133 c 0,5,6
 720 133 720 133 803 233 c 0,7,8
 870 314 870 314 870 434 c 0,9,10
 870 556 870 556 790.5 648.5 c 128,-1,11
 711 741 711 741 537 741 c 1,12,-1
 537 896 l 1,13,14
 687 896 687 896 744 950 c 1,15,16
 815 1013 815 1013 815 1128 c 0,17,18
 815 1250 815 1250 752 1305 c 0,19,20
 683 1365 683 1365 591 1365 c 0,21,22
 497 1365 497 1365 430 1302 c 0,23,24
 367 1243 367 1243 366 1143 c 1,25,-1
 198 1143 l 1,26,27
 198 1309 198 1309 305 1412 c 0,28,29
 418 1520 418 1520 589 1520 c 0,30,31
 759 1520 759 1520 873 1412 c 0,32,33
 984 1306 984 1306 984 1143 c 0,34,35
 984 927 984 927 791 825 c 1,36,37
 1050 703 1050 703 1050 434 c 0,38,39
 1050 254 1050 254 931 120 c 1,40,41
 805 -20 805 -20 600 -20 c 0,42,43
 399 -20 399 -20 266 121 c 0,44,45
 150 244 150 244 150 434 c 1,0,-1
EndSplineSet
EndChar

StartChar: four
Encoding: 20 52 23
Width: 1200
GlyphClass: 2
Flags: W
LayerCount: 2
Fore
SplineSet
810 0 m 1,0,-1
 810 321 l 1,1,-1
 100 321 l 1,2,3
 302 1014 302 1014 810 1500 c 1,4,-1
 990 1500 l 1,5,-1
 990 0 l 1,6,-1
 810 0 l 1,0,-1
810 1300 m 1,7,8
 502 952 502 952 312 481 c 1,9,10
 312 481 312 481 810 481 c 1,11,-1
 810 1300 l 1,7,8
EndSplineSet
EndChar

StartChar: five
Encoding: 21 53 24
Width: 1200
GlyphClass: 2
Flags: W
LayerCount: 2
Fore
SplineSet
150 434 m 1,0,-1
 330 434 l 1,1,2
 330 313 330 313 395 231 c 0,3,4
 473 133 473 133 600 133 c 0,5,6
 728 133 728 133 804 251 c 0,7,8
 870 353 870 353 870 488 c 0,9,10
 870 637 870 637 792 735 c 0,11,12
 713 835 713 835 600 835 c 0,13,14
 488 835 488 835 414 741 c 1,15,-1
 239 838 l 1,16,-1
 341 1500 l 1,17,-1
 957 1500 l 1,18,-1
 957 1340 l 1,19,-1
 484 1340 l 1,20,-1
 424 927 l 1,21,22
 504 988 504 988 606 988 c 0,23,24
 796 988 796 988 920 849 c 0,25,26
 1050 703 1050 703 1050 491 c 0,27,28
 1050 287 1050 287 935 138 c 0,29,30
 814 -20 814 -20 600 -20 c 0,31,32
 399 -20 399 -20 266 121 c 0,33,34
 150 244 150 244 150 434 c 1,0,-1
EndSplineSet
EndChar

StartChar: six
Encoding: 22 54 25
Width: 1200
GlyphClass: 2
Flags: W
LayerCount: 2
Fore
SplineSet
620 133 m 0,0,1
 748 133 748 133 824 251 c 0,2,3
 890 353 890 353 890 488 c 0,4,5
 890 636 890 636 812 735 c 0,6,7
 733 835 733 835 620 835 c 128,-1,8
 507 835 507 835 428 735 c 0,9,10
 350 636 350 636 350 488 c 0,11,12
 350 350 350 350 416 251 c 0,13,14
 495 133 495 133 620 133 c 0,0,1
1053 1166 m 1,15,-1
 867 1166 l 1,16,17
 860 1183 860 1183 852 1198 c 0,18,19
 762 1367 762 1367 620 1367 c 0,20,21
 479 1367 479 1367 388 1198 c 0,22,23
 310 1053 310 1053 310 750 c 1,24,25
 427 988 427 988 626 988 c 0,26,27
 815 988 815 988 940 849 c 0,28,29
 1070 704 1070 704 1070 491 c 0,30,31
 1070 287 1070 287 955 138 c 0,32,33
 834 -20 834 -20 620 -20 c 0,34,35
 362 -20 362 -20 236 217 c 0,36,37
 130 417 130 417 130 750 c 0,38,39
 130 1084 130 1084 236 1283 c 0,40,41
 362 1520 362 1520 620 1520 c 0,42,43
 879 1520 879 1520 1004 1283 c 0,44,45
 1035 1224 1035 1224 1053 1166 c 1,15,-1
EndSplineSet
EndChar

StartChar: seven
Encoding: 23 55 26
Width: 1200
GlyphClass: 2
Flags: W
LayerCount: 2
Fore
SplineSet
260 0 m 1,0,1
 542 435 542 435 670 780 c 0,2,3
 794 1115 794 1115 838 1340 c 1,4,-1
 150 1340 l 1,5,-1
 150 1500 l 1,6,-1
 1050 1500 l 1,7,8
 999 1118 999 1118 838 730 c 0,9,10
 664 310 664 310 458 0 c 1,11,-1
 260 0 l 1,0,1
EndSplineSet
EndChar

StartChar: eight
Encoding: 24 56 27
Width: 1200
GlyphClass: 2
Flags: W
LayerCount: 2
Fore
SplineSet
870 432 m 0,0,1
 870 554 870 554 803 635 c 0,2,3
 723 732 723 732 602 732 c 0,4,5
 473 732 473 732 396 634 c 0,6,7
 330 549 330 549 330 431 c 0,8,9
 330 316 330 316 396 231 c 0,10,11
 473 133 473 133 602 133 c 0,12,13
 723 133 723 133 803 230 c 0,14,15
 870 311 870 311 870 432 c 0,0,1
815 1126 m 128,-1,17
 815 1235 815 1235 754 1302 c 0,18,19
 697 1365 697 1365 600 1365 c 0,20,21
 507 1365 507 1365 448 1305 c 0,22,23
 385 1241 385 1241 385 1126 c 0,24,25
 385 1015 385 1015 448 947 c 0,26,27
 504 887 504 887 600 887 c 0,28,29
 697 887 697 887 754 950 c 0,30,16
 815 1017 815 1017 815 1126 c 128,-1,17
150 434 m 0,31,32
 150 703 150 703 409 825 c 1,33,34
 216 927 216 927 216 1143 c 0,35,36
 216 1306 216 1306 327 1412 c 0,37,38
 441 1520 441 1520 600 1520 c 128,-1,39
 759 1520 759 1520 873 1412 c 0,40,41
 984 1306 984 1306 984 1143 c 0,42,43
 984 927 984 927 791 825 c 1,44,45
 1050 703 1050 703 1050 434 c 0,46,47
 1050 254 1050 254 931 120 c 1,48,49
 805 -20 805 -20 600 -20 c 128,-1,50
 395 -20 395 -20 269 120 c 1,51,52
 150 254 150 254 150 434 c 0,31,32
EndSplineSet
EndChar

StartChar: nine
Encoding: 25 57 28
Width: 1200
GlyphClass: 2
Flags: W
LayerCount: 2
Fore
SplineSet
580 1367 m 0,0,1
 452 1367 452 1367 376 1249 c 0,2,3
 310 1147 310 1147 310 1012 c 0,4,5
 310 864 310 864 388 765 c 0,6,7
 467 665 467 665 580 665 c 128,-1,8
 693 665 693 665 772 765 c 0,9,10
 850 864 850 864 850 1012 c 0,11,12
 850 1150 850 1150 784 1249 c 0,13,14
 705 1367 705 1367 580 1367 c 0,0,1
147 334 m 1,15,-1
 333 334 l 1,16,17
 340 317 340 317 348 302 c 0,18,19
 438 133 438 133 580 133 c 0,20,21
 721 133 721 133 812 302 c 0,22,23
 890 447 890 447 890 750 c 1,24,25
 773 512 773 512 574 512 c 0,26,27
 385 512 385 512 260 651 c 0,28,29
 130 796 130 796 130 1009 c 0,30,31
 130 1213 130 1213 245 1362 c 0,32,33
 366 1520 366 1520 580 1520 c 0,34,35
 838 1520 838 1520 964 1283 c 0,36,37
 1070 1083 1070 1083 1070 750 c 0,38,39
 1070 416 1070 416 964 217 c 0,40,41
 838 -20 838 -20 580 -20 c 0,42,43
 321 -20 321 -20 196 217 c 0,44,45
 165 276 165 276 147 334 c 1,15,-1
EndSplineSet
EndChar

StartChar: colon
Encoding: 26 58 29
Width: 1200
GlyphClass: 2
Flags: W
LayerCount: 2
Fore
SplineSet
600 880 m 0,0,1
 659 880 659 880 694 844 c 0,2,3
 734 803 734 803 734 748 c 128,-1,4
 734 693 734 693 694 654 c 0,5,6
 655 616 655 616 600 616 c 0,7,8
 543 616 543 616 506 652 c 0,9,10
 466 691 466 691 466 748 c 128,-1,11
 466 805 466 805 506 842.5 c 128,-1,12
 546 880 546 880 600 880 c 0,0,1
600 244 m 0,13,14
 659 244 659 244 694 208 c 0,15,16
 734 167 734 167 734 112 c 128,-1,17
 734 57 734 57 694 18 c 0,18,19
 655 -20 655 -20 600 -20 c 0,20,21
 543 -20 543 -20 506 16 c 0,22,23
 466 55 466 55 466 112 c 128,-1,24
 466 169 466 169 506 206.5 c 128,-1,25
 546 244 546 244 600 244 c 0,13,14
EndSplineSet
EndChar

StartChar: semicolon
Encoding: 27 59 30
Width: 1200
GlyphClass: 2
Flags: W
LayerCount: 2
Fore
SplineSet
600 880 m 0,0,1
 659 880 659 880 694 844 c 0,2,3
 734 803 734 803 734 748 c 128,-1,4
 734 693 734 693 694 654 c 0,5,6
 655 616 655 616 600 616 c 0,7,8
 543 616 543 616 506 652 c 0,9,10
 466 691 466 691 466 748 c 128,-1,11
 466 805 466 805 506 842.5 c 128,-1,12
 546 880 546 880 600 880 c 0,0,1
652 202 m 1,13,14
 706 107 706 107 706 -7 c 0,15,16
 706 -182 706 -182 475 -292 c 1,17,-1
 475 -176 l 1,18,19
 547 -108 547 -108 547 -9 c 0,20,21
 547 53 547 53 489 132 c 1,22,-1
 652 202 l 1,13,14
EndSplineSet
EndChar

StartChar: less
Encoding: 28 60 31
Width: 1200
GlyphClass: 2
Flags: W
LayerCount: 2
Fore
SplineSet
200 796 m 1,0,-1
 917 1210 l 1,1,-1
 997 1071 l 1,2,-1
 441 750 l 1,3,-1
 997 428 l 1,4,-1
 917 289 l 1,5,-1
 200 704 l 1,6,-1
 200 796 l 1,0,-1
EndSplineSet
EndChar

StartChar: equal
Encoding: 29 61 32
Width: 1200
GlyphClass: 2
Flags: W
LayerCount: 2
Fore
SplineSet
186 830 m 1,0,-1
 186 990 l 1,1,-1
 1014 990 l 1,2,-1
 1014 830 l 1,3,-1
 186 830 l 1,0,-1
186 510 m 1,4,-1
 186 670 l 1,5,-1
 1014 670 l 1,6,-1
 1014 510 l 1,7,-1
 186 510 l 1,4,-1
EndSplineSet
EndChar

StartChar: greater
Encoding: 30 62 33
Width: 1200
GlyphClass: 2
Flags: W
LayerCount: 2
Fore
SplineSet
1000 796 m 1,0,-1
 1000 704 l 1,1,-1
 283 289 l 1,2,-1
 203 428 l 1,3,-1
 759 750 l 1,4,-1
 203 1071 l 1,5,-1
 283 1210 l 1,6,-1
 1000 796 l 1,0,-1
EndSplineSet
EndChar

StartChar: question
Encoding: 31 63 34
Width: 1200
GlyphClass: 2
Flags: W
LayerCount: 2
Fore
SplineSet
600 244 m 0,0,1
 659 244 659 244 694 208 c 0,2,3
 734 167 734 167 734 112 c 128,-1,4
 734 57 734 57 694 18 c 0,5,6
 655 -20 655 -20 600 -20 c 0,7,8
 543 -20 543 -20 506 16 c 0,9,10
 466 55 466 55 466 112 c 128,-1,11
 466 169 466 169 506 206.5 c 128,-1,12
 546 244 546 244 600 244 c 0,0,1
150 1066 m 1,13,14
 150 1256 150 1256 266 1379 c 0,15,16
 399 1520 399 1520 600 1520 c 0,17,18
 805 1520 805 1520 931 1380 c 1,19,20
 1050 1246 1050 1246 1050 1066 c 0,21,22
 1050 855 1050 855 833 690 c 0,23,24
 684 577 684 577 684 378 c 1,25,-1
 517 378 l 1,26,27
 517 656 517 656 702 781 c 1,28,29
 870 897 870 897 870 1066 c 0,30,31
 870 1186 870 1186 803 1267 c 0,32,33
 720 1367 720 1367 600 1367 c 0,34,35
 473 1367 473 1367 395 1269 c 0,36,37
 330 1187 330 1187 330 1066 c 1,38,-1
 150 1066 l 1,13,14
EndSplineSet
EndChar

StartChar: at
Encoding: 32 64 35
Width: 1200
GlyphClass: 2
Flags: W
LayerCount: 2
Fore
SplineSet
1090 0 m 1,0,-1
 910 0 l 1,1,-1
 910 72 l 1,2,3
 844 -20 844 -20 752 -20 c 0,4,5
 606 -20 606 -20 512 76 c 0,6,7
 414 176 414 176 414 319 c 0,8,9
 414 458 414 458 515 556 c 0,10,11
 601 639 601 639 750 639 c 0,12,13
 847 639 847 639 910 554 c 1,14,-1
 910 685 l 2,15,16
 910 803 910 803 853 872 c 0,17,18
 775 967 775 967 659 967 c 0,19,20
 486 967 486 967 381 810 c 0,21,22
 290 674 290 674 290 350 c 0,23,24
 290 41 290 41 368 -98 c 0,25,26
 463 -267 463 -267 600 -267 c 0,27,28
 691 -267 691 -267 760 -198 c 1,29,-1
 868 -331 l 1,30,31
 760 -420 760 -420 600 -420 c 0,32,33
 340 -420 340 -420 216 -183 c 0,34,35
 110 19 110 19 110 352 c 0,36,37
 110 701 110 701 258 912 c 0,38,39
 404 1120 404 1120 659 1120 c 0,40,41
 871 1120 871 1120 991 968 c 0,42,43
 1090 843 1090 843 1090 685 c 2,44,-1
 1090 0 l 1,0,-1
616 178 m 0,45,46
 664 122 664 122 752 122 c 0,47,48
 824 122 824 122 884 182 c 0,49,50
 899 197 899 197 910 215 c 1,51,-1
 910 410 l 1,52,53
 900 427 900 427 886 441 c 0,54,55
 832 495 832 495 753 495 c 0,56,57
 670 495 670 495 621 447 c 1,58,59
 570 395 570 395 570 313.5 c 128,-1,60
 570 232 570 232 616 178 c 0,45,46
EndSplineSet
EndChar

StartChar: A
Encoding: 33 65 36
Width: 1200
GlyphClass: 2
Flags: W
LayerCount: 2
Fore
SplineSet
50 0 m 1,0,1
 184 720 184 720 510 1500 c 1,2,-1
 690 1500 l 1,3,4
 1028 720 1028 720 1150 0 c 1,5,-1
 970 0 l 1,6,7
 913 341 913 341 820 670 c 1,8,-1
 381 670 l 1,9,10
 290 345 290 345 230 0 c 1,11,-1
 50 0 l 1,0,1
429 830 m 1,12,-1
 772 830 l 1,13,14
 696 1074 696 1074 600 1310 c 1,15,16
 505 1076 505 1076 429 830 c 1,12,-1
EndSplineSet
EndChar

StartChar: B
Encoding: 34 66 37
Width: 1200
GlyphClass: 2
Flags: W
LayerCount: 2
Fore
SplineSet
330 1347 m 1,0,-1
 330 900 l 1,1,-1
 496 900 l 2,2,3
 640 900 640 900 706 962.5 c 128,-1,4
 772 1025 772 1025 772 1123.5 c 128,-1,5
 772 1222 772 1222 705 1281 c 1,6,7
 633 1347 633 1347 496 1347 c 2,8,-1
 330 1347 l 1,0,-1
330 747 m 1,9,-1
 330 153 l 1,10,-1
 546 153 l 2,11,12
 707 153 707 153 800 240 c 0,13,14
 880 315 880 315 880 451 c 0,15,16
 880 573 880 573 800 660 c 128,-1,17
 720 747 720 747 546 747 c 2,18,-1
 330 747 l 1,9,-1
150 0 m 1,19,-1
 150 1500 l 1,20,-1
 496 1500 l 2,21,22
 706 1500 706 1500 827 1387 c 1,23,24
 939 1281 939 1281 939 1125 c 0,25,26
 939 927 939 927 752 847 c 1,27,28
 839 829 839 829 901 780 c 0,29,30
 1050 663 1050 663 1050 450 c 0,31,32
 1050 239 1050 239 910 119 c 1,33,34
 775 0 775 0 546 0 c 2,35,-1
 150 0 l 1,19,-1
EndSplineSet
EndChar

StartChar: C
Encoding: 35 67 38
Width: 1200
GlyphClass: 2
Flags: W
LayerCount: 2
Fore
SplineSet
1033 334 m 1,0,1
 1010 267 1010 267 984 217 c 0,2,3
 860 -20 860 -20 600 -20 c 0,4,5
 342 -20 342 -20 216 217 c 0,6,7
 110 417 110 417 110 750 c 0,8,9
 110 1084 110 1084 216 1283 c 0,10,11
 342 1520 342 1520 600 1520 c 0,12,13
 859 1520 859 1520 984 1283 c 0,14,15
 1015 1224 1015 1224 1033 1166 c 1,16,-1
 847 1166 l 1,17,18
 840 1183 840 1183 832 1198 c 0,19,20
 742 1367 742 1367 600 1367 c 0,21,22
 459 1367 459 1367 368 1198 c 0,23,24
 290 1053 290 1053 290 750 c 0,25,26
 290 441 290 441 368 302 c 0,27,28
 463 133 463 133 600 133 c 0,29,30
 742 133 742 133 832 302 c 0,31,32
 840 317 840 317 847 334 c 1,33,-1
 1033 334 l 1,0,1
EndSplineSet
EndChar

StartChar: D
Encoding: 36 68 39
Width: 1200
GlyphClass: 2
Flags: W
LayerCount: 2
Fore
SplineSet
329 153 m 1,0,1
 440 153 440 153 551 153 c 0,2,3
 744 153 744 153 833 322 c 0,4,5
 910 468 910 468 910 750 c 0,6,7
 910 1033 910 1033 832 1178 c 0,8,9
 741 1347 741 1347 550 1347 c 0,10,11
 440 1347 440 1347 330 1347 c 1,12,-1
 329 153 l 1,0,1
150 0 m 1,13,-1
 150 1500 l 1,14,-1
 550 1500 l 2,15,16
 859 1500 859 1500 984 1263 c 0,17,18
 1090 1062 1090 1062 1090 750 c 0,19,20
 1090 440 1090 440 985 237 c 1,21,22
 861 0 861 0 551 0 c 2,23,-1
 150 0 l 1,13,-1
EndSplineSet
EndChar

StartChar: E
Encoding: 37 69 40
Width: 1200
GlyphClass: 2
Flags: W
LayerCount: 2
Fore
SplineSet
186 0 m 1,0,-1
 186 1500 l 1,1,-1
 946 1500 l 1,2,-1
 946 1340 l 1,3,-1
 366 1340 l 1,4,-1
 366 830 l 1,5,-1
 821 830 l 1,6,-1
 821 670 l 1,7,-1
 366 670 l 1,8,-1
 366 160 l 1,9,-1
 1014 160 l 1,10,-1
 1014 0 l 1,11,-1
 186 0 l 1,0,-1
EndSplineSet
EndChar

StartChar: F
Encoding: 38 70 41
Width: 1200
GlyphClass: 2
Flags: W
LayerCount: 2
Fore
SplineSet
220 0 m 1,0,-1
 220 1500 l 1,1,-1
 980 1500 l 1,2,-1
 980 1340 l 1,3,-1
 400 1340 l 1,4,-1
 400 830 l 1,5,-1
 855 830 l 1,6,-1
 855 670 l 1,7,-1
 400 670 l 1,8,-1
 400 0 l 1,9,-1
 220 0 l 1,0,-1
EndSplineSet
EndChar

StartChar: G
Encoding: 39 71 42
Width: 1200
GlyphClass: 2
Flags: W
LayerCount: 2
Fore
SplineSet
1090 830 m 1,0,-1
 1090 750 l 2,1,2
 1090 420 1090 420 984 217 c 0,3,4
 860 -20 860 -20 600 -20 c 0,5,6
 342 -20 342 -20 216 217 c 0,7,8
 110 417 110 417 110 750 c 0,9,10
 110 1084 110 1084 216 1283 c 0,11,12
 342 1520 342 1520 600 1520 c 0,13,14
 859 1520 859 1520 984 1283 c 0,15,16
 1015 1224 1015 1224 1033 1166 c 1,17,-1
 847 1166 l 1,18,19
 840 1183 840 1183 832 1198 c 0,20,21
 742 1367 742 1367 600 1367 c 0,22,23
 459 1367 459 1367 368 1198 c 0,24,25
 290 1053 290 1053 290 750 c 0,26,27
 290 441 290 441 368 302 c 0,28,29
 463 133 463 133 600 133 c 0,30,31
 742 133 742 133 832 302 c 0,32,33
 899 428 899 428 908 670 c 1,34,-1
 595 669 l 1,35,-1
 595 829 l 1,36,-1
 1090 830 l 1,0,-1
EndSplineSet
EndChar

StartChar: H
Encoding: 40 72 43
Width: 1200
GlyphClass: 2
Flags: W
LayerCount: 2
Fore
SplineSet
150 1500 m 1,0,-1
 330 1500 l 1,1,-1
 330 830 l 1,2,-1
 870 830 l 1,3,-1
 870 1500 l 1,4,-1
 1050 1500 l 1,5,-1
 1050 0 l 1,6,-1
 870 0 l 1,7,-1
 870 670 l 1,8,-1
 330 670 l 1,9,-1
 330 0 l 1,10,-1
 150 0 l 1,11,-1
 150 1500 l 1,0,-1
EndSplineSet
EndChar

StartChar: I
Encoding: 41 73 44
Width: 1200
GlyphClass: 2
Flags: W
LayerCount: 2
Fore
SplineSet
186 0 m 1,0,-1
 186 160 l 1,1,-1
 510 160 l 1,2,-1
 510 1340 l 1,3,-1
 186 1340 l 1,4,-1
 186 1500 l 1,5,-1
 1014 1500 l 1,6,-1
 1014 1340 l 1,7,-1
 690 1340 l 1,8,-1
 690 160 l 1,9,-1
 1014 160 l 1,10,-1
 1014 0 l 1,11,-1
 186 0 l 1,0,-1
EndSplineSet
EndChar

StartChar: J
Encoding: 42 74 45
Width: 1200
GlyphClass: 2
Flags: W
LayerCount: 2
Fore
SplineSet
100 434 m 1,0,-1
 280 434 l 1,1,2
 280 313 280 313 345 231 c 0,3,4
 423 133 423 133 550 133 c 0,5,6
 670 133 670 133 753 233 c 0,7,8
 820 314 820 314 820 434 c 2,9,-1
 820 1340 l 1,10,-1
 280 1340 l 1,11,-1
 280 1500 l 1,12,-1
 1000 1500 l 1,13,-1
 1000 434 l 2,14,15
 1000 254 1000 254 881 120 c 1,16,17
 755 -20 755 -20 550 -20 c 0,18,19
 349 -20 349 -20 216 121 c 0,20,21
 100 244 100 244 100 434 c 1,0,-1
EndSplineSet
EndChar

StartChar: K
Encoding: 43 75 46
Width: 1200
GlyphClass: 2
Flags: W
LayerCount: 2
Fore
SplineSet
150 0 m 1,0,-1
 150 1500 l 1,1,-1
 330 1500 l 1,2,-1
 330 628 l 1,3,4
 680 1034 680 1034 835 1500 c 1,5,-1
 1015 1500 l 1,6,7
 864 1078 864 1078 627 752 c 1,8,9
 890 416 890 416 1050 0 c 1,10,-1
 868 0 l 1,11,12
 720 348 720 348 521 622 c 1,13,14
 440 510 440 510 330 396 c 1,15,-1
 330 0 l 1,16,-1
 150 0 l 1,0,-1
EndSplineSet
EndChar

StartChar: L
Encoding: 44 76 47
Width: 1200
GlyphClass: 2
Flags: W
LayerCount: 2
Fore
SplineSet
186 0 m 1,0,-1
 186 1500 l 1,1,-1
 366 1500 l 1,2,-1
 366 160 l 1,3,-1
 1014 160 l 1,4,-1
 1014 0 l 1,5,-1
 186 0 l 1,0,-1
EndSplineSet
EndChar

StartChar: M
Encoding: 45 77 48
Width: 1200
GlyphClass: 2
Flags: W
LayerCount: 2
Fore
SplineSet
150 0 m 1,0,-1
 150 1500 l 1,1,-1
 330 1500 l 1,2,3
 546 1140 546 1140 600 760 c 1,4,5
 667 1138 667 1138 870 1500 c 1,6,-1
 1050 1500 l 1,7,-1
 1050 0 l 1,8,-1
 890 0 l 1,9,-1
 890 1232 l 1,10,11
 690 828 690 828 690 458 c 1,12,-1
 510 458 l 1,13,14
 510 828 510 828 310 1232 c 1,15,-1
 310 0 l 1,16,-1
 150 0 l 1,0,-1
EndSplineSet
EndChar

StartChar: N
Encoding: 46 78 49
Width: 1200
GlyphClass: 2
Flags: W
LayerCount: 2
Fore
SplineSet
150 0 m 1,0,-1
 150 1500 l 1,1,-1
 330 1500 l 1,2,3
 732 1034 732 1034 890 462 c 1,4,-1
 890 1500 l 1,5,-1
 1050 1500 l 1,6,-1
 1050 0 l 1,7,-1
 890 0 l 1,8,9
 646 843 646 843 310 1264 c 1,10,-1
 310 0 l 1,11,-1
 150 0 l 1,0,-1
EndSplineSet
EndChar

StartChar: O
Encoding: 47 79 50
Width: 1200
GlyphClass: 2
Flags: W
LayerCount: 2
Fore
SplineSet
600 133 m 0,0,1
 742 133 742 133 832 302 c 0,2,3
 910 448 910 448 910 750 c 0,4,5
 910 1048 910 1048 832 1198 c 1,6,7
 742 1367 742 1367 600 1367 c 0,8,9
 459 1367 459 1367 368 1198 c 0,10,11
 290 1053 290 1053 290 750 c 0,12,13
 290 441 290 441 368 302 c 0,14,15
 463 133 463 133 600 133 c 0,0,1
600 -20 m 0,16,17
 342 -20 342 -20 216 217 c 0,18,19
 110 417 110 417 110 750 c 128,-1,20
 110 1083 110 1083 216 1283 c 0,21,22
 342 1520 342 1520 600 1520 c 0,23,24
 860 1520 860 1520 984 1283 c 0,25,26
 1090 1080 1090 1080 1090 750 c 128,-1,27
 1090 420 1090 420 984 217 c 0,28,29
 860 -20 860 -20 600 -20 c 0,16,17
EndSplineSet
EndChar

StartChar: P
Encoding: 48 80 51
Width: 1200
GlyphClass: 2
Flags: W
LayerCount: 2
Fore
SplineSet
150 0 m 1,0,-1
 150 1500 l 1,1,-1
 546 1500 l 2,2,3
 749 1500 749 1500 885 1381 c 0,4,5
 1050 1237 1050 1237 1050 1000 c 0,6,7
 1050 759 1050 759 884 616 c 1,8,9
 751 500 751 500 546 500 c 2,10,-1
 330 500 l 1,11,-1
 330 0 l 1,12,-1
 150 0 l 1,0,-1
330 1347 m 1,13,-1
 330 653 l 1,14,-1
 546 653 l 2,15,16
 693 653 693 653 775 740 c 0,17,18
 870 841 870 841 870 1000 c 128,-1,19
 870 1159 870 1159 771 1258 c 0,20,21
 681 1347 681 1347 546 1347 c 2,22,-1
 330 1347 l 1,13,-1
EndSplineSet
EndChar

StartChar: Q
Encoding: 49 81 52
Width: 1200
GlyphClass: 2
Flags: W
LayerCount: 2
Fore
SplineSet
514 587 m 1,0,-1
 640 678 l 1,1,-1
 859 365 l 1,2,3
 910 507 910 507 910 750 c 0,4,5
 910 1048 910 1048 832 1198 c 1,6,7
 742 1367 742 1367 600 1367 c 0,8,9
 459 1367 459 1367 368 1198 c 0,10,11
 290 1053 290 1053 290 750 c 0,12,13
 290 441 290 441 368 302 c 0,14,15
 463 133 463 133 600 133 c 0,16,17
 700 133 700 133 774 216 c 1,18,-1
 514 587 l 1,0,-1
600 -20 m 0,19,20
 342 -20 342 -20 216 217 c 0,21,22
 110 417 110 417 110 750 c 128,-1,23
 110 1083 110 1083 216 1283 c 0,24,25
 342 1520 342 1520 600 1520 c 0,26,27
 860 1520 860 1520 984 1283 c 0,28,29
 1090 1080 1090 1080 1090 750 c 128,-1,30
 1090 420 1090 420 984 217 c 1,31,-1
 975 200 l 1,32,-1
 1115 0 l 1,33,-1
 989 -91 l 1,34,-1
 873 74 l 1,35,36
 764 -20 764 -20 600 -20 c 0,19,20
EndSplineSet
EndChar

StartChar: R
Encoding: 50 82 53
Width: 1200
GlyphClass: 2
Flags: W
LayerCount: 2
Fore
SplineSet
330 1347 m 1,0,-1
 330 653 l 1,1,-1
 546 653 l 2,2,3
 693 653 693 653 775 740 c 0,4,5
 870 841 870 841 870 1000 c 128,-1,6
 870 1159 870 1159 771 1258 c 0,7,8
 681 1347 681 1347 546 1347 c 2,9,-1
 330 1347 l 1,0,-1
150 0 m 1,10,-1
 150 1500 l 1,11,-1
 546 1500 l 2,12,13
 749 1500 749 1500 885 1381 c 0,14,15
 1050 1237 1050 1237 1050 1000 c 0,16,17
 1050 757 1050 757 884 616 c 0,18,19
 835 574 835 574 777 547 c 1,20,-1
 1100 0 l 1,21,-1
 891 0 l 1,22,-1
 594 502 l 1,23,24
 571 500 571 500 546 500 c 2,25,-1
 330 500 l 1,26,-1
 330 0 l 1,27,-1
 150 0 l 1,10,-1
EndSplineSet
EndChar

StartChar: S
Encoding: 51 83 54
Width: 1200
GlyphClass: 2
Flags: W
LayerCount: 2
Fore
SplineSet
150 434 m 1,0,-1
 330 434 l 1,1,2
 330 313 330 313 395 231 c 0,3,4
 473 133 473 133 600 133 c 0,5,6
 720 133 720 133 803 233 c 0,7,8
 870 314 870 314 870 434 c 0,9,10
 870 572 870 572 742 648 c 1,11,-1
 389 826 l 1,12,13
 198 928 198 928 198 1143 c 0,14,15
 198 1306 198 1306 309 1412 c 0,16,17
 423 1520 423 1520 593 1520 c 0,18,19
 764 1520 764 1520 877 1412 c 0,20,21
 984 1309 984 1309 984 1143 c 1,22,-1
 816 1143 l 1,23,24
 815 1243 815 1243 752 1302 c 0,25,26
 685 1365 685 1365 591 1365 c 0,27,28
 499 1365 499 1365 430 1305 c 0,29,30
 366 1249 366 1249 366 1160 c 0,31,32
 366 1052 366 1052 467 986 c 1,33,-1
 791 825 l 1,34,35
 1050 703 1050 703 1050 434 c 0,36,37
 1050 254 1050 254 931 120 c 1,38,39
 805 -20 805 -20 600 -20 c 0,40,41
 399 -20 399 -20 266 121 c 0,42,43
 150 244 150 244 150 434 c 1,0,-1
EndSplineSet
EndChar

StartChar: T
Encoding: 52 84 55
Width: 1200
GlyphClass: 2
Flags: W
LayerCount: 2
Fore
SplineSet
510 0 m 1,0,-1
 510 1340 l 1,1,-1
 150 1340 l 1,2,-1
 150 1500 l 1,3,-1
 1050 1500 l 1,4,-1
 1050 1340 l 1,5,-1
 690 1340 l 1,6,-1
 690 0 l 1,7,-1
 510 0 l 1,0,-1
EndSplineSet
EndChar

StartChar: U
Encoding: 53 85 56
Width: 1200
GlyphClass: 2
Flags: W
LayerCount: 2
Fore
SplineSet
150 1500 m 1,0,-1
 330 1500 l 1,1,-1
 330 434 l 2,2,3
 330 313 330 313 395 231 c 0,4,5
 473 133 473 133 600 133 c 0,6,7
 722 133 722 133 805 233 c 0,8,9
 870 311 870 311 870 434 c 2,10,-1
 870 1500 l 1,11,-1
 1050 1500 l 1,12,-1
 1050 434 l 2,13,14
 1050 251 1050 251 931 120 c 0,15,16
 804 -20 804 -20 600 -20 c 0,17,18
 399 -20 399 -20 266 121 c 0,19,20
 150 243 150 243 150 434 c 2,21,-1
 150 1500 l 1,0,-1
EndSplineSet
EndChar

StartChar: V
Encoding: 54 86 57
Width: 1200
GlyphClass: 2
Flags: W
LayerCount: 2
Fore
SplineSet
510 0 m 1,0,1
 184 780 184 780 50 1500 c 1,2,-1
 230 1500 l 1,3,4
 344 820 344 820 600 190 c 1,5,6
 850 806 850 806 970 1500 c 1,7,-1
 1150 1500 l 1,8,9
 1016 780 1016 780 690 0 c 1,10,-1
 510 0 l 1,0,1
EndSplineSet
EndChar

StartChar: W
Encoding: 55 87 58
Width: 1200
GlyphClass: 2
Flags: W
LayerCount: 2
Fore
SplineSet
430 0 m 1,0,1
 430 0 430 0 250 0 c 1,2,3
 60 742 60 742 10 1500 c 1,4,-1
 190 1500 l 1,5,6
 231 740 231 740 356 220 c 1,7,8
 460 522 460 522 502 1036 c 1,9,-1
 684 1036 l 1,10,11
 731 540 731 540 848 213 c 1,12,13
 972 726 972 726 1010 1500 c 1,14,-1
 1190 1500 l 1,15,16
 1134 746 1134 746 950 0 c 1,17,-1
 770 0 l 1,18,19
 659 310 659 310 592 686 c 1,20,21
 536 316 536 316 430 0 c 1,0,1
EndSplineSet
EndChar

StartChar: X
Encoding: 56 88 59
Width: 1200
GlyphClass: 2
Flags: W
LayerCount: 2
Fore
SplineSet
100 0 m 1,0,1
 306 267 306 267 501 609 c 1,2,3
 262 1070 262 1070 100 1500 c 1,4,-1
 280 1500 l 1,5,6
 432 1102 432 1102 600 777 c 1,7,8
 762 1100 762 1100 920 1500 c 1,9,-1
 1100 1500 l 1,10,11
 944 1070 944 1070 699 609 c 1,12,13
 894 267 894 267 1100 0 c 1,14,-1
 894 0 l 1,15,16
 743 195 743 195 600 435 c 1,17,18
 457 195 457 195 306 0 c 1,19,-1
 100 0 l 1,0,1
EndSplineSet
EndChar

StartChar: Y
Encoding: 57 89 60
Width: 1200
GlyphClass: 2
Flags: W
LayerCount: 2
Fore
SplineSet
510 0 m 1,0,-1
 510 592 l 1,1,2
 250 1070 250 1070 100 1500 c 1,3,-1
 280 1500 l 1,4,5
 422 1100 422 1100 600 767 c 1,6,7
 786 1096 786 1096 920 1500 c 1,8,-1
 1100 1500 l 1,9,10
 956 1070 956 1070 690 592 c 1,11,-1
 690 0 l 1,12,-1
 510 0 l 1,0,-1
EndSplineSet
EndChar

StartChar: Z
Encoding: 58 90 61
Width: 1200
GlyphClass: 2
Flags: W
LayerCount: 2
Fore
SplineSet
150 0 m 1,0,-1
 150 160 l 1,1,2
 624 744 624 744 809 1340 c 1,3,-1
 220 1340 l 1,4,-1
 220 1500 l 1,5,-1
 1050 1500 l 1,6,7
 825 744 825 744 367 160 c 1,8,-1
 1050 160 l 1,9,-1
 1050 0 l 1,10,-1
 150 0 l 1,0,-1
EndSplineSet
EndChar

StartChar: bracketleft
Encoding: 59 91 62
Width: 1200
GlyphClass: 2
Flags: W
LayerCount: 2
Fore
SplineSet
348 1760 m 1,0,-1
 852 1760 l 1,1,-1
 852 1600 l 1,2,-1
 518 1600 l 1,3,-1
 518 -100 l 1,4,-1
 852 -100 l 1,5,-1
 852 -260 l 1,6,-1
 348 -260 l 1,7,-1
 348 1760 l 1,0,-1
EndSplineSet
EndChar

StartChar: backslash
Encoding: 60 92 63
Width: 1200
GlyphClass: 2
Flags: W
LayerCount: 2
Fore
SplineSet
40 1760 m 1,0,-1
 217 1760 l 1,1,-1
 1160 -260 l 1,2,-1
 981 -260 l 1,3,-1
 40 1760 l 1,0,-1
EndSplineSet
EndChar

StartChar: bracketright
Encoding: 61 93 64
Width: 1200
GlyphClass: 2
Flags: W
LayerCount: 2
Fore
SplineSet
348 -260 m 1,0,-1
 348 -100 l 1,1,-1
 682 -100 l 1,2,-1
 682 1600 l 1,3,-1
 348 1600 l 1,4,-1
 348 1760 l 1,5,-1
 852 1760 l 1,6,-1
 852 -260 l 1,7,-1
 348 -260 l 1,0,-1
EndSplineSet
EndChar

StartChar: asciicircum
Encoding: 62 94 65
Width: 1200
GlyphClass: 2
Flags: W
LayerCount: 2
Fore
SplineSet
185 1181 m 1,0,-1
 576 1500 l 1,1,-1
 624 1500 l 1,2,-1
 1015 1181 l 1,3,-1
 912 1058 l 1,4,-1
 601 1328 l 1,5,-1
 288 1058 l 1,6,-1
 185 1181 l 1,0,-1
EndSplineSet
EndChar

StartChar: underscore
Encoding: 63 95 66
Width: 1200
GlyphClass: 2
Flags: W
LayerCount: 2
Fore
SplineSet
186 -192 m 1,0,-1
 186 -32 l 1,1,-1
 1014 -32 l 1,2,-1
 1014 -192 l 1,3,-1
 186 -192 l 1,0,-1
EndSplineSet
EndChar

StartChar: grave
Encoding: 64 96 67
Width: 1200
GlyphClass: 2
Flags: W
LayerCount: 2
Fore
SplineSet
411 1426 m 1,0,-1
 573 1520 l 1,1,-1
 789 1086 l 1,2,-1
 679 1022 l 1,3,-1
 411 1426 l 1,0,-1
EndSplineSet
EndChar

StartChar: a
Encoding: 65 97 68
Width: 1200
GlyphClass: 2
Flags: W
LayerCount: 2
Fore
SplineSet
1002 0 m 1,0,-1
 822 0 l 1,1,-1
 822 237 l 1,2,3
 739 -20 739 -20 513 -20 c 0,4,5
 351 -20 351 -20 261 86 c 0,6,7
 180 181 180 181 180 299 c 0,8,9
 180 476 180 476 321 575 c 0,10,11
 431 653 431 653 581 653 c 2,12,-1
 817 653 l 1,13,14
 817 793 817 793 786 852 c 0,15,16
 727 964 727 964 595 964 c 0,17,18
 436 964 436 964 373 834 c 1,19,-1
 258 960 l 1,20,21
 379 1120 379 1120 618 1120 c 0,22,23
 821 1120 821 1120 931 958 c 0,24,25
 1002 853 1002 853 1002 654 c 2,26,-1
 1002 0 l 1,0,-1
822 507 m 1,27,28
 706 507 706 507 584 507 c 0,29,30
 472 507 472 507 408 448 c 0,31,32
 352 396 352 396 352 307 c 0,33,34
 352 240 352 240 396 192 c 0,35,36
 450 133 450 133 549 133 c 0,37,38
 654 133 654 133 722 219 c 1,39,40
 822 343 822 343 822 507 c 1,27,28
EndSplineSet
EndChar

StartChar: b
Encoding: 66 98 69
Width: 1200
GlyphClass: 2
Flags: W
LayerCount: 2
Fore
SplineSet
600 137 m 0,0,1
 736 137 736 137 799 266 c 0,2,3
 850 371 850 371 850 550 c 128,-1,4
 850 729 850 729 799 834 c 0,5,6
 736 963 736 963 600 963 c 0,7,8
 478 963 478 963 415 834 c 0,9,10
 364 729 364 729 364 550 c 128,-1,11
 364 371 364 371 415 266 c 0,12,13
 478 137 478 137 600 137 c 0,0,1
186 0 m 1,14,-1
 186 1500 l 1,15,-1
 366 1500 l 1,16,-1
 366 962 l 1,17,18
 435 1120 435 1120 600 1120 c 0,19,20
 793 1120 793 1120 914 960 c 0,21,22
 1030 807 1030 807 1030 550 c 128,-1,23
 1030 293 1030 293 914 140 c 0,24,25
 793 -20 793 -20 600 -20 c 0,26,27
 422 -20 422 -20 366 138 c 1,28,-1
 366 0 l 1,29,-1
 186 0 l 1,14,-1
EndSplineSet
EndChar

StartChar: c
Encoding: 67 99 70
Width: 1200
GlyphClass: 2
Flags: W
LayerCount: 2
Fore
SplineSet
1005 334 m 1,0,1
 974 221 974 221 914 140 c 0,2,3
 795 -20 795 -20 600 -20 c 0,4,5
 407 -20 407 -20 286 140 c 0,6,7
 170 293 170 293 170 550 c 128,-1,8
 170 807 170 807 286 960 c 0,9,10
 407 1120 407 1120 600 1120 c 0,11,12
 795 1120 795 1120 914 960 c 0,13,14
 974 879 974 879 1005 765 c 1,15,16
 1005 765 1005 765 825 765 c 1,17,18
 814 803 814 803 799 834 c 0,19,20
 737 963 737 963 600 963 c 0,21,22
 464 963 464 963 401 834 c 0,23,24
 350 729 350 729 350 550 c 128,-1,25
 350 371 350 371 401 266 c 0,26,27
 464 137 464 137 600 137 c 0,28,29
 737 137 737 137 799 266 c 0,30,31
 814 297 814 297 825 334 c 1,32,-1
 1005 334 l 1,0,1
EndSplineSet
EndChar

StartChar: d
Encoding: 68 100 71
Width: 1200
GlyphClass: 2
Flags: W
LayerCount: 2
Fore
SplineSet
600 137 m 0,0,1
 722 137 722 137 785 266 c 0,2,3
 836 371 836 371 836 550 c 128,-1,4
 836 729 836 729 785 834 c 0,5,6
 722 963 722 963 600 963 c 0,7,8
 464 963 464 963 401 834 c 0,9,10
 350 729 350 729 350 550 c 128,-1,11
 350 371 350 371 401 266 c 0,12,13
 464 137 464 137 600 137 c 0,0,1
1014 0 m 1,14,-1
 834 0 l 1,15,-1
 834 138 l 1,16,17
 778 -20 778 -20 600 -20 c 0,18,19
 407 -20 407 -20 286 140 c 0,20,21
 170 293 170 293 170 550 c 128,-1,22
 170 807 170 807 286 960 c 0,23,24
 407 1120 407 1120 600 1120 c 0,25,26
 765 1120 765 1120 834 962 c 1,27,-1
 834 1500 l 1,28,-1
 1014 1500 l 1,29,-1
 1014 0 l 1,14,-1
EndSplineSet
EndChar

StartChar: e
Encoding: 69 101 72
Width: 1200
GlyphClass: 2
Flags: W
LayerCount: 2
Fore
SplineSet
1005 334 m 1,0,1
 974 220 974 220 914 140 c 0,2,3
 794 -20 794 -20 600 -20 c 0,4,5
 407 -20 407 -20 286 140 c 0,6,7
 170 293 170 293 170 550 c 128,-1,8
 170 807 170 807 286 960 c 0,9,10
 407 1120 407 1120 600 1120 c 0,11,12
 792 1120 792 1120 914 960 c 0,13,14
 1022 818 1022 818 1029 586 c 1,15,-1
 362 393 l 1,16,17
 375 320 375 320 401 266 c 0,18,19
 463 137 463 137 600 137 c 128,-1,20
 737 137 737 137 799 266 c 0,21,22
 814 297 814 297 825 334 c 1,23,-1
 1005 334 l 1,0,1
350 550 m 1,24,-1
 840 692 l 1,25,26
 828 775 828 775 799 834 c 0,27,28
 736 963 736 963 600 963 c 128,-1,29
 464 963 464 963 401 834 c 0,30,31
 350 729 350 729 350 550 c 1,24,-1
EndSplineSet
EndChar

StartChar: f
Encoding: 70 102 73
Width: 1200
GlyphClass: 2
Flags: W
LayerCount: 2
Fore
SplineSet
510 0 m 1,0,-1
 510 800 l 1,1,-1
 186 800 l 1,2,-1
 186 960 l 1,3,-1
 510 960 l 1,4,-1
 510 1099 l 2,5,6
 510 1296 510 1296 601 1408 c 1,7,8
 697 1520 697 1520 874 1520 c 0,9,10
 1050 1520 1050 1520 1150 1403 c 1,11,-1
 1058 1281 l 1,12,13
 986 1367 986 1367 885 1367 c 0,14,15
 789 1367 789 1367 741 1305 c 0,16,17
 690 1240 690 1240 690 1099 c 2,18,-1
 690 960 l 1,19,-1
 1014 960 l 1,20,-1
 1014 800 l 1,21,-1
 690 800 l 1,22,-1
 690 0 l 1,23,-1
 510 0 l 1,0,-1
EndSplineSet
EndChar

StartChar: g
Encoding: 71 103 74
Width: 1200
GlyphClass: 2
Flags: W
LayerCount: 2
Fore
SplineSet
600 963 m 0,0,1
 464 963 464 963 401 834 c 0,2,3
 350 729 350 729 350 550 c 128,-1,4
 350 371 350 371 401 266 c 0,5,6
 464 137 464 137 600 137 c 0,7,8
 722 137 722 137 785 266 c 0,9,10
 836 371 836 371 836 550 c 128,-1,11
 836 729 836 729 785 834 c 0,12,13
 722 963 722 963 600 963 c 0,0,1
264 -252 m 1,14,-1
 401 -163 l 1,15,16
 464 -263 464 -263 584 -263 c 0,17,18
 720 -263 720 -263 783 -134 c 0,19,20
 834 -29 834 -29 834 138 c 1,21,22
 765 -20 765 -20 600 -20 c 0,23,24
 407 -20 407 -20 286 140 c 0,25,26
 170 293 170 293 170 550 c 128,-1,27
 170 807 170 807 286 960 c 0,28,29
 407 1120 407 1120 600 1120 c 0,30,31
 778 1120 778 1120 834 962 c 1,32,-1
 834 1100 l 1,33,-1
 1014 1100 l 1,34,-1
 1014 150 l 2,35,36
 1014 -109 1014 -109 898 -260 c 0,37,38
 774 -420 774 -420 581 -420 c 0,39,40
 389 -420 389 -420 264 -252 c 1,14,-1
EndSplineSet
EndChar

StartChar: h
Encoding: 72 104 75
Width: 1200
GlyphClass: 2
Flags: W
LayerCount: 2
Fore
SplineSet
186 0 m 1,0,-1
 186 1500 l 1,1,-1
 366 1500 l 1,2,-1
 366 863 l 1,3,4
 451 1120 451 1120 683 1120 c 0,5,6
 825 1120 825 1120 923 1008 c 0,7,8
 1014 904 1014 904 1014 699 c 2,9,-1
 1014 0 l 1,10,-1
 834 0 l 1,11,-1
 834 699 l 2,12,13
 834 840 834 840 783 905 c 0,14,15
 735 967 735 967 639 967 c 0,16,17
 538 967 538 967 466 881 c 0,18,19
 366 762 366 762 366 592 c 2,20,-1
 366 0 l 1,21,-1
 186 0 l 1,0,-1
EndSplineSet
EndChar

StartChar: i
Encoding: 73 105 76
Width: 1200
GlyphClass: 2
Flags: W
LayerCount: 2
Fore
SplineSet
560 1520 m 0,0,1
 619 1520 619 1520 654 1484 c 0,2,3
 694 1443 694 1443 694 1388 c 128,-1,4
 694 1333 694 1333 654 1294 c 0,5,6
 615 1256 615 1256 560 1256 c 0,7,8
 503 1256 503 1256 466 1292 c 0,9,10
 426 1331 426 1331 426 1388 c 128,-1,11
 426 1445 426 1445 466 1482.5 c 128,-1,12
 506 1520 506 1520 560 1520 c 0,0,1
1150 97 m 1,13,14
 1050 -20 1050 -20 875 -20 c 0,15,16
 697 -20 697 -20 601 92 c 0,17,18
 510 198 510 198 510 401 c 2,19,-1
 510 940 l 1,20,-1
 186 940 l 1,21,-1
 186 1100 l 1,22,-1
 690 1100 l 1,23,-1
 690 401 l 2,24,25
 690 261 690 261 741 195 c 0,26,27
 789 133 789 133 885 133 c 0,28,29
 986 133 986 133 1058 219 c 1,30,-1
 1150 97 l 1,13,14
EndSplineSet
EndChar

StartChar: j
Encoding: 74 106 77
Width: 1200
GlyphClass: 2
Flags: W
LayerCount: 2
Fore
SplineSet
669 1520 m 0,0,1
 728 1520 728 1520 763 1484 c 0,2,3
 803 1443 803 1443 803 1388 c 128,-1,4
 803 1333 803 1333 763 1294 c 0,5,6
 724 1256 724 1256 669 1256 c 0,7,8
 612 1256 612 1256 575 1292 c 0,9,10
 535 1331 535 1331 535 1388 c 128,-1,11
 535 1445 535 1445 575 1482.5 c 128,-1,12
 615 1520 615 1520 669 1520 c 0,0,1
159 -303 m 1,13,-1
 251 -181 l 1,14,15
 323 -267 323 -267 424 -267 c 0,16,17
 520 -267 520 -267 568 -205 c 0,18,19
 619 -139 619 -139 619 1 c 2,20,-1
 619 940 l 1,21,-1
 295 940 l 1,22,-1
 295 1100 l 1,23,-1
 799 1100 l 1,24,-1
 799 1 l 2,25,26
 799 -206 799 -206 708 -308 c 0,27,28
 608 -420 608 -420 435 -420 c 0,29,30
 259 -420 259 -420 159 -303 c 1,13,-1
EndSplineSet
EndChar

StartChar: k
Encoding: 75 107 78
Width: 1200
GlyphClass: 2
Flags: W
LayerCount: 2
Fore
SplineSet
186 0 m 1,0,-1
 186 1500 l 1,1,-1
 366 1500 l 1,2,-1
 366 365 l 1,3,4
 704 648 704 648 815 1100 c 1,5,-1
 995 1100 l 1,6,7
 924 808 924 808 749 552 c 1,8,9
 906 312 906 312 1014 0 c 1,10,-1
 832 0 l 1,11,12
 750 236 750 236 634 405 c 1,13,14
 519 282 519 282 366 157 c 1,15,-1
 366 0 l 1,16,-1
 186 0 l 1,0,-1
EndSplineSet
EndChar

StartChar: l
Encoding: 76 108 79
Width: 1200
GlyphClass: 2
Flags: W
LayerCount: 2
Fore
SplineSet
1150 97 m 1,0,1
 1050 -20 1050 -20 874 -20 c 0,2,3
 701 -20 701 -20 601 92 c 0,4,5
 510 194 510 194 510 401 c 2,6,-1
 510 1340 l 1,7,-1
 186 1340 l 1,8,-1
 186 1500 l 1,9,-1
 690 1500 l 1,10,-1
 690 401 l 2,11,12
 690 261 690 261 741 195 c 0,13,14
 789 133 789 133 885 133 c 0,15,16
 986 133 986 133 1058 219 c 1,17,18
 1058 219 1058 219 1150 97 c 1,0,1
EndSplineSet
EndChar

StartChar: m
Encoding: 77 109 80
Width: 1200
GlyphClass: 2
Flags: W
LayerCount: 2
Fore
SplineSet
154 0 m 1,0,-1
 154 1100 l 1,1,-1
 314 1100 l 1,2,-1
 314 986 l 1,3,4
 369 1120 369 1120 480 1120 c 0,5,6
 607 1120 607 1120 648 980 c 1,7,8
 696 1120 696 1120 843 1120 c 0,9,10
 954 1120 954 1120 1010 1004 c 0,11,12
 1046 931 1046 931 1046 765 c 2,13,-1
 1046 0 l 1,14,-1
 886 0 l 1,15,-1
 886 765 l 2,16,17
 886 869 886 869 876 901 c 0,18,19
 853 974 853 974 797 974 c 0,20,21
 728 974 728 974 696 909 c 0,22,23
 681 879 681 879 681 765 c 2,24,-1
 681 0 l 1,25,-1
 521 0 l 1,26,-1
 521 765 l 2,27,28
 521 873 521 873 510 908 c 0,29,30
 489 974 489 974 434 974 c 0,31,32
 364 974 364 974 335 906 c 0,33,34
 314 858 314 858 314 765 c 2,35,-1
 314 0 l 1,36,-1
 154 0 l 1,0,-1
EndSplineSet
EndChar

StartChar: n
Encoding: 78 110 81
Width: 1200
GlyphClass: 2
Flags: W
LayerCount: 2
Fore
SplineSet
186 0 m 1,0,-1
 186 1100 l 1,1,-1
 366 1100 l 1,2,-1
 366 863 l 1,3,4
 451 1120 451 1120 683 1120 c 0,5,6
 825 1120 825 1120 923 1008 c 0,7,8
 1014 904 1014 904 1014 699 c 2,9,-1
 1014 0 l 1,10,-1
 834 0 l 1,11,-1
 834 699 l 2,12,13
 834 840 834 840 783 905 c 0,14,15
 735 967 735 967 639 967 c 0,16,17
 538 967 538 967 466 881 c 0,18,19
 366 762 366 762 366 592 c 2,20,-1
 366 0 l 1,21,-1
 186 0 l 1,0,-1
EndSplineSet
EndChar

StartChar: o
Encoding: 79 111 82
Width: 1200
GlyphClass: 2
Flags: W
LayerCount: 2
Fore
SplineSet
600 137 m 128,-1,1
 736 137 736 137 799 266 c 0,2,3
 850 371 850 371 850 550 c 128,-1,4
 850 729 850 729 799 834 c 0,5,6
 736 963 736 963 600 963 c 128,-1,7
 464 963 464 963 401 834 c 0,8,9
 350 729 350 729 350 550 c 128,-1,10
 350 371 350 371 401 266 c 0,11,0
 464 137 464 137 600 137 c 128,-1,1
600 -20 m 128,-1,13
 407 -20 407 -20 286 140 c 0,14,15
 170 293 170 293 170 550 c 128,-1,16
 170 807 170 807 286 960 c 0,17,18
 407 1120 407 1120 600 1120 c 128,-1,19
 793 1120 793 1120 914 960 c 0,20,21
 1030 807 1030 807 1030 550 c 128,-1,22
 1030 293 1030 293 914 140 c 0,23,12
 793 -20 793 -20 600 -20 c 128,-1,13
EndSplineSet
EndChar

StartChar: p
Encoding: 80 112 83
Width: 1200
GlyphClass: 2
Flags: W
LayerCount: 2
Fore
SplineSet
600 963 m 0,0,1
 478 963 478 963 415 834 c 0,2,3
 364 729 364 729 364 550 c 128,-1,4
 364 371 364 371 415 266 c 0,5,6
 478 137 478 137 600 137 c 0,7,8
 736 137 736 137 799 266 c 0,9,10
 850 371 850 371 850 550 c 128,-1,11
 850 729 850 729 799 834 c 0,12,13
 736 963 736 963 600 963 c 0,0,1
186 1100 m 1,14,-1
 366 1100 l 1,15,-1
 366 962 l 1,16,17
 422 1120 422 1120 600 1120 c 0,18,19
 793 1120 793 1120 914 960 c 0,20,21
 1030 807 1030 807 1030 550 c 128,-1,22
 1030 293 1030 293 914 140 c 0,23,24
 793 -20 793 -20 600 -20 c 0,25,26
 435 -20 435 -20 366 138 c 1,27,-1
 366 -400 l 1,28,-1
 186 -400 l 1,29,-1
 186 1100 l 1,14,-1
EndSplineSet
EndChar

StartChar: q
Encoding: 81 113 84
Width: 1200
GlyphClass: 2
Flags: W
LayerCount: 2
Fore
SplineSet
600 963 m 0,0,1
 464 963 464 963 401 834 c 0,2,3
 350 729 350 729 350 550 c 128,-1,4
 350 371 350 371 401 266 c 0,5,6
 464 137 464 137 600 137 c 0,7,8
 722 137 722 137 785 266 c 0,9,10
 836 371 836 371 836 550 c 128,-1,11
 836 729 836 729 785 834 c 0,12,13
 722 963 722 963 600 963 c 0,0,1
600 -20 m 0,14,15
 407 -20 407 -20 286 140 c 0,16,17
 170 293 170 293 170 550 c 128,-1,18
 170 807 170 807 286 960 c 0,19,20
 407 1120 407 1120 600 1120 c 0,21,22
 778 1120 778 1120 834 962 c 1,23,-1
 834 1100 l 1,24,-1
 1014 1100 l 1,25,-1
 1014 -230 l 1,26,27
 1078 -190 1078 -190 1121 -122 c 128,-1,28
 1164 -54 1164 -54 1190 0 c 1,29,-1
 1190 -240 l 1,30,31
 1149 -306 1149 -306 1057 -356 c 0,32,33
 976 -400 976 -400 834 -400 c 1,34,-1
 834 138 l 1,35,36
 765 -20 765 -20 600 -20 c 0,14,15
EndSplineSet
EndChar

StartChar: r
Encoding: 82 114 85
Width: 1200
GlyphClass: 2
Flags: W
LayerCount: 2
Fore
SplineSet
186 0 m 1,0,-1
 186 1100 l 1,1,-1
 366 1100 l 1,2,-1
 366 863 l 1,3,4
 451 1120 451 1120 683 1120 c 0,5,6
 842 1120 842 1120 934 1010 c 0,7,8
 1014 914 1014 914 1014 765 c 1,9,-1
 834 765 l 1,10,11
 834 858 834 858 790 907 c 0,12,13
 736 967 736 967 656 967 c 0,14,15
 538 967 538 967 466 881 c 0,16,17
 366 762 366 762 366 592 c 2,18,-1
 366 0 l 1,19,-1
 186 0 l 1,0,-1
EndSplineSet
EndChar

StartChar: s
Encoding: 83 115 86
Width: 1200
GlyphClass: 2
Flags: W
LayerCount: 2
Fore
SplineSet
207 357 m 1,0,-1
 375 357 l 1,1,2
 376 257 376 257 439 198 c 0,3,4
 506 135 506 135 600 135 c 0,5,6
 699 135 699 135 761 195 c 0,7,8
 818 251 818 251 818 340 c 0,9,10
 818 441 818 441 699 481 c 1,11,-1
 459 556 l 1,12,13
 243 639 243 639 243 816 c 0,14,15
 243 961 243 961 361 1051 c 0,16,17
 451 1120 451 1120 587 1120 c 0,18,19
 742 1120 742 1120 840 1012 c 0,20,21
 922 922 922 922 922 794 c 1,22,-1
 753 794 l 1,23,24
 753 863 753 863 710 914 c 0,25,26
 665 967 665 967 584 967 c 0,27,28
 510 967 510 967 456 930 c 1,29,30
 408 894 408 894 408 829 c 0,31,32
 408 748 408 748 541 706 c 2,33,-1
 747 642 l 1,34,35
 993 563 993 563 993 343 c 0,36,37
 993 194 993 194 882 88 c 0,38,39
 768 -20 768 -20 598 -20 c 0,40,41
 427 -20 427 -20 314 88 c 0,42,43
 207 191 207 191 207 357 c 1,0,-1
EndSplineSet
EndChar

StartChar: t
Encoding: 84 116 87
Width: 1200
GlyphClass: 2
Flags: W
LayerCount: 2
Fore
SplineSet
874 -20 m 0,0,1
 701 -20 701 -20 601 92 c 0,2,3
 510 194 510 194 510 401 c 2,4,-1
 510 940 l 1,5,-1
 186 940 l 1,6,-1
 186 1100 l 1,7,-1
 510 1100 l 1,8,-1
 510 1500 l 1,9,-1
 690 1500 l 1,10,-1
 690 1100 l 1,11,-1
 1014 1100 l 1,12,-1
 1014 940 l 1,13,-1
 690 940 l 1,14,-1
 690 401 l 2,15,16
 690 261 690 261 741 195 c 0,17,18
 789 133 789 133 885 133 c 0,19,20
 986 133 986 133 1058 219 c 1,21,-1
 1150 97 l 1,22,23
 1050 -20 1050 -20 874 -20 c 0,0,1
EndSplineSet
EndChar

StartChar: u
Encoding: 85 117 88
Width: 1200
GlyphClass: 2
Flags: W
LayerCount: 2
Fore
SplineSet
1014 0 m 1,0,-1
 834 0 l 1,1,-1
 834 237 l 1,2,3
 749 -20 749 -20 517 -20 c 0,4,5
 375 -20 375 -20 277 92 c 0,6,7
 186 196 186 196 186 401 c 2,8,-1
 186 1100 l 1,9,-1
 366 1100 l 1,10,-1
 366 401 l 2,11,12
 366 260 366 260 417 195 c 0,13,14
 465 133 465 133 561 133 c 0,15,16
 662 133 662 133 734 219 c 0,17,18
 834 338 834 338 834 508 c 2,19,-1
 834 1100 l 1,20,-1
 1014 1100 l 1,21,-1
 1014 0 l 1,0,-1
EndSplineSet
EndChar

StartChar: v
Encoding: 86 118 89
Width: 1200
GlyphClass: 2
Flags: W
LayerCount: 2
Fore
SplineSet
510 0 m 1,0,1
 258 376 258 376 100 1100 c 1,2,-1
 280 1100 l 1,3,4
 434 440 434 440 602 198 c 1,5,6
 782 440 782 440 920 1100 c 1,7,-1
 1100 1100 l 1,8,9
 942 376 942 376 690 0 c 1,10,-1
 510 0 l 1,0,1
EndSplineSet
EndChar

StartChar: w
Encoding: 87 119 90
Width: 1200
GlyphClass: 2
Flags: W
LayerCount: 2
Fore
SplineSet
310 0 m 1,0,1
 132 542 132 542 64 1100 c 1,2,-1
 244 1100 l 1,3,4
 288 550 288 550 412 200 c 1,5,6
 510 410 510 410 510 836 c 1,7,-1
 691 836 l 1,8,9
 691 410 691 410 789 200 c 1,10,11
 912 550 912 550 956 1100 c 1,12,-1
 1136 1100 l 1,13,14
 1067 542 1067 542 891 0 c 1,15,-1
 711 0 l 1,16,17
 638 222 638 222 600 392 c 1,18,19
 563 222 563 222 490 0 c 1,20,-1
 310 0 l 1,0,1
EndSplineSet
EndChar

StartChar: x
Encoding: 88 120 91
Width: 1200
GlyphClass: 2
Flags: W
LayerCount: 2
Fore
SplineSet
130 0 m 1,0,1
 324 176 324 176 492 392 c 1,2,3
 255 706 255 706 130 1100 c 1,4,-1
 327 1100 l 1,5,6
 414 796 414 796 600 510 c 1,7,8
 784 790 784 790 873 1100 c 1,9,-1
 1070 1100 l 1,10,11
 945 722 945 722 709 392 c 1,12,13
 868 180 868 180 1070 0 c 1,14,-1
 845 0 l 1,15,16
 705 115 705 115 600 263 c 1,17,18
 489 117 489 117 355 0 c 1,19,-1
 130 0 l 1,0,1
EndSplineSet
EndChar

StartChar: y
Encoding: 89 121 92
Width: 1200
GlyphClass: 2
Flags: W
LayerCount: 2
Fore
SplineSet
517 -20 m 0,0,1
 375 -20 375 -20 277 92 c 0,2,3
 186 196 186 196 186 401 c 2,4,-1
 186 1100 l 1,5,-1
 366 1100 l 1,6,-1
 366 401 l 2,7,8
 366 260 366 260 417 195 c 0,9,10
 465 133 465 133 561 133 c 0,11,12
 662 133 662 133 734 219 c 0,13,14
 834 338 834 338 834 508 c 2,15,-1
 834 1100 l 1,16,-1
 1014 1100 l 1,17,-1
 1014 150 l 2,18,19
 1014 -111 1014 -111 898 -260 c 0,20,21
 773 -420 773 -420 579 -420 c 0,22,23
 389 -420 389 -420 264 -252 c 1,24,-1
 401 -163 l 1,25,26
 464 -263 464 -263 584 -263 c 0,27,28
 720 -263 720 -263 783 -134 c 0,29,30
 834 -29 834 -29 834 150 c 2,31,-1
 834 237 l 1,32,33
 749 -20 749 -20 517 -20 c 0,0,1
EndSplineSet
EndChar

StartChar: z
Encoding: 90 122 93
Width: 1200
GlyphClass: 2
Flags: W
LayerCount: 2
Fore
SplineSet
186 0 m 1,0,-1
 186 160 l 1,1,2
 591 558 591 558 773 940 c 1,3,-1
 222 940 l 1,4,-1
 222 1100 l 1,5,-1
 1014 1100 l 1,6,7
 885 627 885 627 406 160 c 1,8,-1
 1014 160 l 1,9,-1
 1014 0 l 1,10,-1
 186 0 l 1,0,-1
EndSplineSet
EndChar

StartChar: braceleft
Encoding: 91 123 94
Width: 1200
GlyphClass: 2
Flags: W
LayerCount: 2
Fore
SplineSet
1014 1760 m 1,0,-1
 1014 1600 l 1,1,-1
 862 1600 l 2,2,3
 680 1600 680 1600 680 1420 c 2,4,-1
 680 1010 l 2,5,6
 680 824 680 824 538 750 c 1,7,8
 680 689 680 689 680 490 c 2,9,-1
 680 80 l 2,10,11
 680 -100 680 -100 862 -100 c 2,12,-1
 1014 -100 l 1,13,-1
 1014 -260 l 1,14,-1
 862 -260 l 2,15,16
 510 -260 510 -260 510 80 c 2,17,-1
 510 490 l 2,18,19
 510 670 510 670 338 670 c 2,20,-1
 186 670 l 1,21,-1
 186 830 l 1,22,-1
 338 830 l 2,23,24
 510 830 510 830 510 1010 c 2,25,-1
 510 1420 l 2,26,27
 510 1760 510 1760 862 1760 c 2,28,-1
 1014 1760 l 1,0,-1
EndSplineSet
EndChar

StartChar: bar
Encoding: 92 124 95
Width: 1200
GlyphClass: 2
Flags: W
LayerCount: 2
Fore
SplineSet
520 1760 m 1,0,-1
 680 1760 l 1,1,-1
 680 -260 l 1,2,-1
 520 -260 l 1,3,-1
 520 1760 l 1,0,-1
EndSplineSet
EndChar

StartChar: braceright
Encoding: 93 125 96
Width: 1200
GlyphClass: 2
Flags: W
LayerCount: 2
Fore
SplineSet
186 1760 m 1,0,-1
 338 1760 l 2,1,2
 690 1760 690 1760 690 1420 c 2,3,-1
 690 1010 l 2,4,5
 690 830 690 830 862 830 c 2,6,-1
 1014 830 l 1,7,-1
 1014 670 l 1,8,-1
 862 670 l 2,9,10
 690 670 690 670 690 490 c 2,11,-1
 690 80 l 2,12,13
 690 -260 690 -260 338 -260 c 2,14,-1
 186 -260 l 1,15,-1
 186 -100 l 1,16,-1
 338 -100 l 2,17,18
 520 -100 520 -100 520 80 c 2,19,-1
 520 490 l 2,20,21
 520 689 520 689 662 750 c 1,22,23
 520 824 520 824 520 1010 c 2,24,-1
 520 1420 l 2,25,26
 520 1600 520 1600 338 1600 c 2,27,-1
 186 1600 l 1,28,-1
 186 1760 l 1,0,-1
EndSplineSet
EndChar

StartChar: asciitilde
Encoding: 94 126 97
Width: 1200
GlyphClass: 2
Flags: W
LayerCount: 2
Fore
SplineSet
186 618 m 1,0,1
 236 934 236 934 419 934 c 0,2,3
 528 934 528 934 632 827 c 0,4,5
 726 730 726 730 783 730 c 128,-1,6
 840 730 840 730 869 877 c 1,7,-1
 1014 877 l 1,8,9
 957 561 957 561 793 561 c 0,10,11
 702 561 702 561 568 689 c 0,12,13
 488 766 488 766 424 766 c 0,14,15
 356 766 356 766 328 618 c 1,16,-1
 186 618 l 1,0,1
EndSplineSet
EndChar

StartChar: exclamdown
Encoding: 96 161 99
Width: 1200
GlyphClass: 2
Flags: W
LayerCount: 2
Fore
SplineSet
600 856 m 0,0,1
 541 856 541 856 506 892 c 0,2,3
 466 933 466 933 466 988 c 128,-1,4
 466 1043 466 1043 506 1082 c 0,5,6
 545 1120 545 1120 600 1120 c 0,7,8
 657 1120 657 1120 694 1084 c 0,9,10
 734 1045 734 1045 734 988 c 128,-1,11
 734 931 734 931 694 893.5 c 128,-1,12
 654 856 654 856 600 856 c 0,0,1
710 -400 m 1,13,-1
 490 -400 l 1,14,-1
 530 730 l 1,15,-1
 670 730 l 1,16,-1
 710 -400 l 1,13,-1
EndSplineSet
EndChar

StartChar: cent
Encoding: 97 162 100
Width: 1200
GlyphClass: 2
Flags: W
LayerCount: 2
Fore
SplineSet
1005 334 m 1,0,1
 974 222 974 222 914 140 c 0,2,3
 813 3 813 3 655 -17 c 1,4,-1
 655 -259 l 1,5,-1
 545 -258 l 1,6,-1
 545 -17 l 1,7,8
 389 3 389 3 286 140 c 0,9,10
 170 294 170 294 170 550 c 128,-1,11
 170 806 170 806 286 960 c 0,12,13
 389 1097 389 1097 545 1117 c 1,14,-1
 545 1348 l 1,15,-1
 655 1348 l 1,16,-1
 655 1117 l 1,17,18
 812 1097 812 1097 914 960 c 0,19,20
 974 880 974 880 1005 765 c 1,21,-1
 825 765 l 1,22,23
 814 803 814 803 799 834 c 0,24,25
 750 935 750 935 655 957 c 1,26,-1
 655 143 l 1,27,28
 750 165 750 165 799 266 c 0,29,30
 814 297 814 297 825 334 c 1,31,-1
 1005 334 l 1,0,1
545 143 m 1,32,-1
 545 957 l 1,33,34
 450 935 450 935 401 834 c 0,35,36
 350 729 350 729 350 550 c 128,-1,37
 350 371 350 371 401 266 c 0,38,39
 450 165 450 165 545 143 c 1,32,-1
EndSplineSet
EndChar

StartChar: sterling
Encoding: 98 163 101
Width: 1200
GlyphClass: 2
Flags: W
LayerCount: 2
Fore
SplineSet
80 0 m 1,0,-1
 80 160 l 1,1,-1
 186 160 l 1,2,-1
 186 664 l 1,3,-1
 80 664 l 1,4,-1
 80 824 l 1,5,-1
 186 824 l 1,6,-1
 186 1143 l 2,7,8
 186 1306 186 1306 297 1412 c 0,9,10
 411 1520 411 1520 581 1520 c 0,11,12
 752 1520 752 1520 865 1412 c 0,13,14
 972 1309 972 1309 972 1143 c 1,15,-1
 804 1143 l 1,16,17
 803 1243 803 1243 740 1302 c 0,18,19
 673 1365 673 1365 579 1365 c 0,20,21
 498 1365 498 1365 429 1305 c 0,22,23
 366 1250 366 1250 366 1128 c 2,24,-1
 366 824 l 1,25,-1
 705 824 l 1,26,-1
 705 664 l 1,27,-1
 366 664 l 1,28,-1
 366 160 l 1,29,-1
 1017 160 l 1,30,-1
 1017 0 l 1,31,-1
 80 0 l 1,0,-1
EndSplineSet
EndChar

StartChar: currency
Encoding: 99 164 102
Width: 1200
GlyphClass: 2
Flags: W
LayerCount: 2
Fore
SplineSet
458 618 m 128,-1,1
 509 565 509 565 589 565 c 0,2,3
 673 565 673 565 723.5 615.5 c 128,-1,4
 774 666 774 666 774 747 c 0,5,6
 774 824 774 824 725 874 c 0,7,8
 673 928 673 928 592 928 c 128,-1,9
 511 928 511 928 460 880 c 1,10,11
 407 828 407 828 407 747 c 0,12,0
 407 671 407 671 458 618 c 128,-1,1
185 448 m 1,13,-1
 305 568 l 1,14,15
 254 646 254 646 254 746 c 0,16,17
 254 848 254 848 308 928 c 1,18,-1
 185 1052 l 1,19,-1
 298 1165 l 1,20,-1
 426 1037 l 1,21,22
 500 1078 500 1078 592 1078 c 0,23,24
 690 1078 690 1078 768 1031 c 1,25,-1
 902 1165 l 1,26,-1
 1015 1052 l 1,27,-1
 882 919 l 1,28,29
 930 845 930 845 930 746 c 0,30,31
 930 651 930 651 886 578 c 1,32,-1
 1015 448 l 1,33,-1
 902 335 l 1,34,-1
 773 464 l 1,35,36
 693 413 693 413 592 413 c 0,37,38
 497 413 497 413 421 457 c 1,39,-1
 298 335 l 1,40,-1
 185 448 l 1,13,-1
EndSplineSet
EndChar

StartChar: yen
Encoding: 100 165 103
Width: 1200
GlyphClass: 2
Flags: W
LayerCount: 2
Fore
SplineSet
510 0 m 1,0,-1
 510 490 l 1,1,-1
 186 490 l 1,2,-1
 186 610 l 1,3,-1
 500 610 l 1,4,-1
 437 730 l 1,5,-1
 186 730 l 1,6,-1
 186 850 l 1,7,-1
 376 850 l 1,8,9
 209 1188 209 1188 100 1500 c 1,10,-1
 280 1500 l 1,11,12
 405 1149 405 1149 557 850 c 1,13,-1
 645 850 l 1,14,15
 803 1146 803 1146 920 1500 c 1,16,-1
 1100 1500 l 1,17,18
 995 1188 995 1188 826 850 c 1,19,-1
 1014 850 l 1,20,-1
 1014 730 l 1,21,-1
 765 730 l 1,22,-1
 700 610 l 1,23,-1
 1014 610 l 1,24,-1
 1014 490 l 1,25,-1
 690 490 l 1,26,-1
 690 0 l 1,27,-1
 510 0 l 1,0,-1
EndSplineSet
EndChar

StartChar: brokenbar
Encoding: 101 166 104
Width: 1200
GlyphClass: 2
Flags: W
LayerCount: 2
Fore
SplineSet
520 1760 m 1,0,-1
 680 1760 l 1,1,-1
 680 830 l 1,2,-1
 520 830 l 1,3,-1
 520 1760 l 1,0,-1
520 670 m 1,4,-1
 680 670 l 1,5,-1
 680 -260 l 1,6,-1
 520 -260 l 1,7,-1
 520 670 l 1,4,-1
EndSplineSet
EndChar

StartChar: section
Encoding: 102 167 105
Width: 1200
GlyphClass: 2
Flags: W
LayerCount: 2
Fore
SplineSet
935 1194 m 1,0,-1
 766 1194 l 1,1,2
 766 1263 766 1263 723 1314 c 0,3,4
 678 1367 678 1367 597 1367 c 0,5,6
 521 1367 521 1367 469 1330 c 0,7,8
 421 1296 421 1296 421 1229 c 0,9,10
 421 1148 421 1148 554 1106 c 2,11,-1
 760 1042 l 1,12,13
 1006 963 1006 963 1006 743 c 0,14,15
 1006 608 1006 608 915 508 c 1,16,-1
 774 595 l 1,17,18
 831 651 831 651 831 740 c 0,19,20
 831 841 831 841 712 881 c 1,21,-1
 472 956 l 1,22,23
 256 1039 256 1039 256 1216 c 0,24,25
 256 1361 256 1361 374 1451 c 0,26,27
 464 1520 464 1520 600 1520 c 0,28,29
 755 1520 755 1520 853 1412 c 0,30,31
 935 1322 935 1322 935 1194 c 1,0,-1
265 306 m 1,32,-1
 434 306 l 1,33,34
 434 237 434 237 477 186 c 0,35,36
 522 133 522 133 603 133 c 0,37,38
 679 133 679 133 731 170 c 0,39,40
 779 204 779 204 779 271 c 0,41,42
 779 352 779 352 646 394 c 2,43,-1
 440 458 l 1,44,45
 194 537 194 537 194 757 c 0,46,47
 194 892 194 892 285 992 c 1,48,-1
 426 905 l 1,49,50
 369 849 369 849 369 760 c 0,51,52
 369 659 369 659 488 619 c 1,53,-1
 728 544 l 1,54,55
 944 461 944 461 944 284 c 0,56,57
 944 139 944 139 826 49 c 0,58,59
 736 -20 736 -20 600 -20 c 0,60,61
 445 -20 445 -20 347 88 c 0,62,63
 265 178 265 178 265 306 c 1,32,-1
EndSplineSet
EndChar

StartChar: dieresis
Encoding: 103 168 106
Width: 1200
GlyphClass: 2
Flags: W
LayerCount: 2
Fore
SplineSet
766 1520 m 0,0,1
 825 1520 825 1520 860 1484 c 0,2,3
 900 1443 900 1443 900 1388 c 128,-1,4
 900 1333 900 1333 860 1294 c 0,5,6
 821 1256 821 1256 766 1256 c 0,7,8
 709 1256 709 1256 672 1292 c 0,9,10
 632 1331 632 1331 632 1388 c 128,-1,11
 632 1445 632 1445 672 1482.5 c 128,-1,12
 712 1520 712 1520 766 1520 c 0,0,1
434 1520 m 0,13,14
 493 1520 493 1520 528 1484 c 0,15,16
 568 1443 568 1443 568 1388 c 128,-1,17
 568 1333 568 1333 528 1294 c 0,18,19
 489 1256 489 1256 434 1256 c 0,20,21
 377 1256 377 1256 340 1292 c 0,22,23
 300 1331 300 1331 300 1388 c 128,-1,24
 300 1445 300 1445 340 1482.5 c 128,-1,25
 380 1520 380 1520 434 1520 c 0,13,14
EndSplineSet
EndChar

StartChar: copyright
Encoding: 104 169 107
Width: 1200
GlyphClass: 2
Flags: W
LayerCount: 2
Fore
SplineSet
820 962 m 1,0,1
 804 901 804 901 770 856 c 0,2,3
 704 768 704 768 597 768 c 0,4,5
 491 768 491 768 424 856 c 0,6,7
 362 937 362 937 362 1073 c 128,-1,8
 362 1209 362 1209 424 1290 c 0,9,10
 491 1378 491 1378 597 1378 c 0,11,12
 702 1378 702 1378 770 1290 c 0,13,14
 805 1245 805 1245 820 1182 c 1,15,-1
 688 1182 l 1,16,17
 684 1195 684 1195 679 1206 c 0,18,19
 654 1260 654 1260 597 1260 c 128,-1,20
 540 1260 540 1260 515 1206 c 0,21,22
 492 1157 492 1157 492 1073 c 128,-1,23
 492 989 492 989 515 940 c 0,24,25
 541 886 541 886 597 886 c 0,26,27
 652 886 652 886 679 940 c 0,28,29
 684 950 684 950 687 962 c 1,30,-1
 820 962 l 1,0,1
600 1454 m 0,31,32
 442 1454 442 1454 336 1343 c 0,33,34
 227 1230 227 1230 227 1069 c 128,-1,35
 227 908 227 908 337.5 796.5 c 128,-1,36
 448 685 448 685 603 685 c 0,37,38
 756 685 756 685 864 797 c 0,39,40
 973 910 973 910 973 1069 c 128,-1,41
 973 1228 973 1228 862.5 1341 c 128,-1,42
 752 1454 752 1454 600 1454 c 0,31,32
600 615 m 0,43,44
 417 615 417 615 284 744 c 0,45,46
 149 875 149 875 149 1066 c 0,47,48
 149 1255 149 1255 282 1388 c 0,49,50
 414 1520 414 1520 600 1520 c 128,-1,51
 786 1520 786 1520 918 1388 c 128,-1,52
 1050 1256 1050 1256 1050 1068 c 128,-1,53
 1050 880 1050 880 918 747.5 c 128,-1,54
 786 615 786 615 600 615 c 0,43,44
EndSplineSet
EndChar

StartChar: ordfeminine
Encoding: 105 170 108
Width: 1200
GlyphClass: 2
Flags: W
LayerCount: 2
Fore
SplineSet
812 920 m 1,0,-1
 682 920 l 1,1,-1
 682 975 l 1,2,3
 632 910 632 910 548 910 c 0,4,5
 455 910 455 910 406 970 c 0,6,7
 361 1025 361 1025 361 1090 c 0,8,9
 361 1190 361 1190 440 1244 c 0,10,11
 501 1286 501 1286 582 1286 c 2,12,-1
 679 1286 l 1,13,14
 678 1335 678 1335 666 1357 c 0,15,16
 641 1402 641 1402 588 1402 c 0,17,18
 522 1402 522 1402 495 1348 c 1,19,-1
 404 1432 l 1,20,21
 470 1520 470 1520 600 1520 c 0,22,23
 712 1520 712 1520 773 1430 c 0,24,25
 811 1374 811 1374 812 1267 c 1,26,-1
 812 920 l 1,0,-1
583 1184 m 2,27,28
 536 1184 536 1184 509 1156 c 0,29,30
 484 1130 484 1130 484 1095 c 0,31,32
 484 1065 484 1065 503 1046 c 0,33,34
 527 1022 527 1022 565 1022 c 0,35,36
 615 1022 615 1022 650 1070 c 1,37,38
 674 1106 674 1106 681 1184 c 1,39,-1
 583 1184 l 2,27,28
236 670 m 1,40,-1
 236 810 l 1,41,-1
 964 810 l 1,42,-1
 964 670 l 1,43,-1
 236 670 l 1,40,-1
EndSplineSet
EndChar

StartChar: guillemotleft
Encoding: 106 171 109
Width: 1200
GlyphClass: 2
Flags: W
LayerCount: 2
Fore
SplineSet
865 336 m 1,0,-1
 543 726 l 1,1,-1
 543 775 l 1,2,-1
 865 1166 l 1,3,-1
 988 1063 l 1,4,-1
 718 752 l 1,5,-1
 988 439 l 1,6,-1
 865 336 l 1,0,-1
472 336 m 1,7,-1
 150 726 l 1,8,-1
 150 775 l 1,9,-1
 472 1166 l 1,10,-1
 595 1063 l 1,11,-1
 325 752 l 1,12,-1
 595 439 l 1,13,-1
 472 336 l 1,7,-1
EndSplineSet
EndChar

StartChar: logicalnot
Encoding: 107 172 110
Width: 1200
GlyphClass: 2
Flags: W
LayerCount: 2
Fore
SplineSet
186 670 m 1,0,-1
 186 830 l 1,1,-1
 1014 830 l 1,2,-1
 1014 309 l 1,3,-1
 854 309 l 1,4,-1
 854 670 l 1,5,-1
 186 670 l 1,0,-1
EndSplineSet
EndChar

StartChar: uni00AD
Encoding: 108 173 111
Width: 1200
GlyphClass: 2
Flags: W
LayerCount: 2
Fore
SplineSet
186 670 m 1,0,-1
 186 830 l 1,1,-1
 1014 830 l 1,2,-1
 1014 670 l 1,3,-1
 186 670 l 1,0,-1
EndSplineSet
EndChar

StartChar: registered
Encoding: 109 174 112
Width: 1200
GlyphClass: 2
Flags: W
LayerCount: 2
Fore
SplineSet
542 1250 m 1,0,-1
 542 1067 l 1,1,-1
 620 1067 l 2,2,3
 663 1067 663 1067 684 1106 c 0,4,5
 699 1134 699 1134 699 1166 c 0,6,7
 699 1203 699 1203 674 1228 c 0,8,9
 651 1250 651 1250 620 1250 c 2,10,-1
 542 1250 l 1,0,-1
410 771 m 1,11,-1
 410 1371 l 1,12,-1
 620 1371 l 2,13,14
 702 1371 702 1371 766 1316 c 0,15,16
 829 1263 829 1263 829 1170 c 0,17,18
 829 1070 829 1070 770 1014 c 0,19,20
 747 992 747 992 724 980 c 1,21,-1
 867 801 l 1,22,23
 973 912 973 912 973 1069 c 0,24,25
 973 1228 973 1228 862.5 1341 c 128,-1,26
 752 1454 752 1454 600 1454 c 0,27,28
 443 1454 443 1454 336 1343 c 0,29,30
 227 1229 227 1229 227 1069 c 0,31,32
 227 908 227 908 337.5 796.5 c 128,-1,33
 448 685 448 685 603 685 c 0,34,35
 737 685 737 685 837 771 c 1,36,-1
 719 771 l 1,37,-1
 599 946 l 1,38,-1
 542 946 l 1,39,-1
 542 771 l 1,40,-1
 410 771 l 1,11,-1
600 615 m 0,41,42
 417 615 417 615 284 744 c 0,43,44
 149 875 149 875 149 1066 c 0,45,46
 149 1255 149 1255 282 1388 c 0,47,48
 414 1520 414 1520 600 1520 c 128,-1,49
 786 1520 786 1520 918 1388 c 128,-1,50
 1050 1256 1050 1256 1050 1068 c 128,-1,51
 1050 880 1050 880 918 747.5 c 128,-1,52
 786 615 786 615 600 615 c 0,41,42
EndSplineSet
EndChar

StartChar: macron
Encoding: 110 175 113
Width: 1200
GlyphClass: 2
Flags: W
LayerCount: 2
Fore
SplineSet
186 1532 m 1,0,-1
 186 1692 l 1,1,-1
 1014 1692 l 1,2,-1
 1014 1532 l 1,3,-1
 186 1532 l 1,0,-1
EndSplineSet
EndChar

StartChar: degree
Encoding: 111 176 114
Width: 1200
GlyphClass: 2
Flags: W
LayerCount: 2
Fore
SplineSet
483 1272.5 m 128,-1,1
 483 1221 483 1221 517 1184.5 c 128,-1,2
 551 1148 551 1148 601 1148 c 128,-1,3
 651 1148 651 1148 685 1184.5 c 128,-1,4
 719 1221 719 1221 719 1272.5 c 128,-1,5
 719 1324 719 1324 685 1360 c 128,-1,6
 651 1396 651 1396 601 1396 c 128,-1,7
 551 1396 551 1396 517 1360 c 128,-1,0
 483 1324 483 1324 483 1272.5 c 128,-1,1
350 1270 m 128,-1,9
 350 1374 350 1374 423 1447 c 128,-1,10
 496 1520 496 1520 600 1520 c 128,-1,11
 704 1520 704 1520 777 1447 c 128,-1,12
 850 1374 850 1374 850 1270 c 128,-1,13
 850 1166 850 1166 777 1093 c 128,-1,14
 704 1020 704 1020 600 1020 c 128,-1,15
 496 1020 496 1020 423 1093 c 128,-1,8
 350 1166 350 1166 350 1270 c 128,-1,9
EndSplineSet
EndChar

StartChar: plusminus
Encoding: 112 177 115
Width: 1200
GlyphClass: 2
Flags: W
LayerCount: 2
Fore
SplineSet
186 780 m 1,0,-1
 186 940 l 1,1,-1
 520 940 l 1,2,-1
 520 1274 l 1,3,-1
 680 1274 l 1,4,-1
 680 940 l 1,5,-1
 1014 940 l 1,6,-1
 1014 780 l 1,7,-1
 680 780 l 1,8,-1
 680 446 l 1,9,-1
 520 446 l 1,10,-1
 520 780 l 1,11,-1
 186 780 l 1,0,-1
186 233 m 1,12,-1
 186 393 l 1,13,-1
 1014 393 l 1,14,-1
 1014 233 l 1,15,-1
 186 233 l 1,12,-1
EndSplineSet
EndChar

StartChar: uni00B2
Encoding: 113 178 116
Width: 1200
GlyphClass: 2
Flags: W
LayerCount: 2
Fore
SplineSet
350 700 m 1,0,-1
 350 805 l 2,1,2
 350 897 350 897 455 983 c 1,3,-1
 635 1135 l 2,4,5
 710 1198 710 1198 710 1258 c 0,6,7
 710 1308 710 1308 681 1344 c 0,8,9
 649 1384 649 1384 600 1384 c 0,10,11
 549 1384 549 1384 517 1344 c 0,12,13
 490 1310 490 1310 490 1258 c 1,14,-1
 350 1258 l 1,15,16
 350 1363 350 1363 415 1432 c 0,17,18
 489 1510 489 1510 600 1510 c 0,19,20
 722 1510 722 1510 788 1431 c 0,21,22
 850 1357 850 1357 850 1258 c 0,23,24
 850 1139 850 1139 733 1041 c 2,25,-1
 532 873 l 2,26,27
 506 851 506 851 496 830 c 1,28,-1
 850 830 l 1,29,-1
 850 700 l 1,30,-1
 350 700 l 1,0,-1
EndSplineSet
EndChar

StartChar: uni00B3
Encoding: 114 179 117
Width: 1200
GlyphClass: 2
Flags: W
LayerCount: 2
Fore
SplineSet
490 952 m 1,0,1
 490 900 490 900 517 866 c 0,2,3
 550 826 550 826 600 826 c 0,4,5
 649 826 649 826 682 867 c 0,6,7
 710 901 710 901 710 952 c 0,8,9
 710 1004 710 1004 677 1042 c 128,-1,10
 644 1080 644 1080 568 1080 c 1,11,-1
 568 1208 l 1,12,13
 634 1208 634 1208 655 1228 c 0,14,15
 682 1254 682 1254 682 1299 c 0,16,17
 682 1349 682 1349 660 1369 c 0,18,19
 633 1392 633 1392 596 1392 c 0,20,21
 558 1392 558 1392 532 1368 c 0,22,23
 508 1346 508 1346 508 1306 c 1,24,-1
 374 1306 l 1,25,26
 374 1400 374 1400 435 1459 c 0,27,28
 498 1520 498 1520 594 1520 c 128,-1,29
 690 1520 690 1520 754 1459 c 0,30,31
 817 1399 817 1399 817 1306 c 0,32,33
 817 1207 817 1207 744 1149 c 1,34,35
 850 1081 850 1081 850 952 c 0,36,37
 850 852 850 852 784 778 c 0,38,39
 714 700 714 700 600 700 c 0,40,41
 489 700 489 700 415 778 c 0,42,43
 350 847 350 847 350 952 c 1,44,-1
 490 952 l 1,0,1
EndSplineSet
EndChar

StartChar: acute
Encoding: 115 180 118
Width: 1200
GlyphClass: 2
Flags: W
LayerCount: 2
Fore
SplineSet
627 1520 m 1,0,-1
 789 1426 l 1,1,-1
 521 1022 l 1,2,-1
 411 1086 l 1,3,-1
 627 1520 l 1,0,-1
EndSplineSet
EndChar

StartChar: uni00B5
Encoding: 116 181 119
Width: 1200
GlyphClass: 2
Flags: W
LayerCount: 2
Fore
SplineSet
1014 0 m 1,0,-1
 834 0 l 1,1,-1
 834 237 l 1,2,3
 749 -20 749 -20 517 -20 c 0,4,5
 434 -20 434 -20 366 18 c 1,6,-1
 366 -400 l 1,7,-1
 186 -400 l 1,8,-1
 186 1100 l 1,9,-1
 366 1100 l 1,10,-1
 366 401 l 2,11,12
 366 260 366 260 417 195 c 0,13,14
 465 133 465 133 561 133 c 0,15,16
 662 133 662 133 734 219 c 0,17,18
 834 338 834 338 834 508 c 2,19,-1
 834 1100 l 1,20,-1
 1014 1100 l 1,21,-1
 1014 0 l 1,0,-1
EndSplineSet
EndChar

StartChar: paragraph
Encoding: 117 182 120
Width: 1200
GlyphClass: 2
Flags: W
LayerCount: 2
Fore
SplineSet
1016 0 m 1,0,-1
 886 0 l 1,1,-1
 886 1360 l 1,2,-1
 740 1360 l 1,3,-1
 740 0 l 1,4,-1
 600 0 l 1,5,-1
 600 595 l 1,6,7
 414 596 414 596 282 728 c 128,-1,8
 150 860 150 860 150 1048 c 128,-1,9
 150 1236 150 1236 282 1368 c 0,10,11
 415 1500 415 1500 600 1500 c 2,12,-1
 1016 1500 l 1,13,-1
 1016 0 l 1,0,-1
EndSplineSet
EndChar

StartChar: periodcentered
Encoding: 118 183 121
Width: 1200
GlyphClass: 2
Flags: W
LayerCount: 2
Fore
SplineSet
600 880 m 0,0,1
 659 880 659 880 694 844 c 0,2,3
 734 803 734 803 734 748 c 128,-1,4
 734 693 734 693 694 654 c 0,5,6
 655 616 655 616 600 616 c 0,7,8
 543 616 543 616 506 652 c 0,9,10
 466 691 466 691 466 748 c 128,-1,11
 466 805 466 805 506 842.5 c 128,-1,12
 546 880 546 880 600 880 c 0,0,1
EndSplineSet
EndChar

StartChar: cedilla
Encoding: 119 184 122
Width: 1200
GlyphClass: 2
Flags: W
LayerCount: 2
Fore
SplineSet
485 159 m 1,0,1
 715 55 715 55 715 -126 c 0,2,3
 715 -320 715 -320 501 -410 c 1,4,-1
 501 -221 l 1,5,6
 583 -182 583 -182 583 -110 c 0,7,8
 583 -16 583 -16 485 43 c 1,9,-1
 485 159 l 1,0,1
EndSplineSet
EndChar

StartChar: uni00B9
Encoding: 120 185 123
Width: 1200
GlyphClass: 2
Flags: W
LayerCount: 2
Fore
SplineSet
368 700 m 1,0,-1
 368 830 l 1,1,-1
 530 830 l 1,2,-1
 530 1306 l 1,3,-1
 368 1131 l 1,4,-1
 368 1310 l 1,5,-1
 544 1500 l 1,6,-1
 670 1500 l 1,7,-1
 670 830 l 1,8,-1
 832 830 l 1,9,-1
 832 700 l 1,10,-1
 368 700 l 1,0,-1
EndSplineSet
EndChar

StartChar: ordmasculine
Encoding: 121 186 124
Width: 1200
GlyphClass: 2
Flags: W
LayerCount: 2
Fore
SplineSet
600 1402 m 0,0,1
 543 1402 543 1402 518 1348 c 0,2,3
 495 1299 495 1299 495 1215 c 128,-1,4
 495 1131 495 1131 518 1082 c 0,5,6
 544 1028 544 1028 600 1028 c 0,7,8
 657 1028 657 1028 682 1082 c 0,9,10
 705 1132 705 1132 705 1215 c 0,11,12
 705 1300 705 1300 682 1348 c 0,13,14
 656 1402 656 1402 600 1402 c 0,0,1
600 1520 m 128,-1,16
 706 1520 706 1520 773 1432 c 0,17,18
 835 1351 835 1351 835 1215 c 128,-1,19
 835 1079 835 1079 773 998 c 0,20,21
 706 910 706 910 600 910 c 128,-1,22
 494 910 494 910 427 998 c 0,23,24
 365 1079 365 1079 365 1215 c 128,-1,25
 365 1351 365 1351 427 1432 c 0,26,15
 494 1520 494 1520 600 1520 c 128,-1,16
236 670 m 1,27,-1
 236 810 l 1,28,-1
 964 810 l 1,29,-1
 964 670 l 1,30,-1
 236 670 l 1,27,-1
EndSplineSet
EndChar

StartChar: guillemotright
Encoding: 122 187 125
Width: 1200
GlyphClass: 2
Flags: W
LayerCount: 2
Fore
SplineSet
335 336 m 1,0,-1
 212 439 l 1,1,-1
 482 752 l 1,2,-1
 212 1063 l 1,3,-1
 335 1166 l 1,4,-1
 657 775 l 1,5,-1
 657 726 l 1,6,-1
 335 336 l 1,0,-1
728 336 m 1,7,-1
 605 439 l 1,8,-1
 875 752 l 1,9,-1
 605 1063 l 1,10,-1
 728 1166 l 1,11,-1
 1050 775 l 1,12,-1
 1050 726 l 1,13,-1
 728 336 l 1,7,-1
EndSplineSet
EndChar

StartChar: onequarter
Encoding: 123 188 126
Width: 1200
GlyphClass: 2
Flags: W
LayerCount: 2
Fore
SplineSet
58 700 m 1,0,-1
 58 830 l 1,1,-1
 220 830 l 1,2,-1
 220 1306 l 1,3,-1
 58 1131 l 1,4,-1
 58 1310 l 1,5,-1
 234 1500 l 1,6,-1
 360 1500 l 1,7,-1
 360 830 l 1,8,-1
 522 830 l 1,9,-1
 522 700 l 1,10,-1
 58 700 l 1,0,-1
979 0 m 1,11,-1
 979 160 l 1,12,-1
 616 160 l 1,13,14
 724 521 724 521 994 800 c 1,15,-1
 1119 800 l 1,16,-1
 1119 0 l 1,17,-1
 979 0 l 1,11,-1
979 290 m 1,18,-1
 979 626 l 1,19,20
 872 488 872 488 793 290 c 1,21,-1
 979 290 l 1,18,-1
981 1437 m 1,22,-1
 1115 1362 l 1,23,-1
 365 63 l 1,24,-1
 231 138 l 1,25,-1
 981 1437 l 1,22,-1
EndSplineSet
EndChar

StartChar: onehalf
Encoding: 124 189 127
Width: 1200
GlyphClass: 2
Flags: W
LayerCount: 2
Fore
SplineSet
89 700 m 1,0,-1
 89 830 l 1,1,-1
 211 830 l 1,2,-1
 211 1306 l 1,3,-1
 49 1131 l 1,4,-1
 49 1310 l 1,5,-1
 225 1500 l 1,6,-1
 351 1500 l 1,7,-1
 351 830 l 1,8,-1
 473 830 l 1,9,-1
 473 700 l 1,10,-1
 89 700 l 1,0,-1
911 1437 m 1,11,-1
 1045 1362 l 1,12,-1
 295 63 l 1,13,-1
 161 138 l 1,14,-1
 911 1437 l 1,11,-1
648 0 m 1,15,-1
 648 105 l 2,16,17
 648 197 648 197 753 283 c 1,18,-1
 933 435 l 2,19,20
 1008 498 1008 498 1008 558 c 0,21,22
 1008 608 1008 608 979 644 c 0,23,24
 947 684 947 684 898 684 c 0,25,26
 847 684 847 684 815 644 c 0,27,28
 788 610 788 610 788 558 c 1,29,-1
 648 558 l 1,30,31
 648 663 648 663 713 732 c 0,32,33
 787 810 787 810 898 810 c 0,34,35
 1020 810 1020 810 1086 731 c 0,36,37
 1148 657 1148 657 1148 558 c 0,38,39
 1148 439 1148 439 1031 341 c 2,40,-1
 830 173 l 2,41,42
 804 151 804 151 794 130 c 1,43,-1
 1148 130 l 1,44,-1
 1148 0 l 1,45,-1
 648 0 l 1,15,-1
EndSplineSet
EndChar

StartChar: threequarters
Encoding: 125 190 128
Width: 1200
GlyphClass: 2
Flags: W
LayerCount: 2
Fore
SplineSet
190 952 m 1,0,1
 190 900 190 900 217 866 c 0,2,3
 250 826 250 826 300 826 c 0,4,5
 349 826 349 826 382 867 c 0,6,7
 410 901 410 901 410 952 c 0,8,9
 410 1004 410 1004 377 1042 c 128,-1,10
 344 1080 344 1080 268 1080 c 1,11,-1
 268 1208 l 1,12,13
 334 1208 334 1208 355 1228 c 0,14,15
 382 1254 382 1254 382 1299 c 0,16,17
 382 1349 382 1349 360 1369 c 0,18,19
 333 1392 333 1392 296 1392 c 0,20,21
 258 1392 258 1392 232 1368 c 0,22,23
 208 1346 208 1346 208 1306 c 1,24,-1
 74 1306 l 1,25,26
 74 1400 74 1400 135 1459 c 0,27,28
 198 1520 198 1520 294 1520 c 128,-1,29
 390 1520 390 1520 454 1459 c 0,30,31
 517 1399 517 1399 517 1306 c 0,32,33
 517 1207 517 1207 444 1149 c 1,34,35
 550 1081 550 1081 550 952 c 0,36,37
 550 852 550 852 484 778 c 0,38,39
 414 700 414 700 300 700 c 0,40,41
 189 700 189 700 115 778 c 0,42,43
 50 847 50 847 50 952 c 1,44,-1
 190 952 l 1,0,1
979 0 m 1,45,-1
 979 160 l 1,46,-1
 616 160 l 1,47,48
 724 521 724 521 994 800 c 1,49,-1
 1119 800 l 1,50,-1
 1119 0 l 1,51,-1
 979 0 l 1,45,-1
979 290 m 1,52,-1
 979 626 l 1,53,54
 872 488 872 488 793 290 c 1,55,-1
 979 290 l 1,52,-1
981 1437 m 1,56,-1
 1115 1362 l 1,57,-1
 365 63 l 1,58,-1
 231 138 l 1,59,-1
 981 1437 l 1,56,-1
EndSplineSet
EndChar

StartChar: questiondown
Encoding: 126 191 129
Width: 1200
GlyphClass: 2
Flags: W
LayerCount: 2
Fore
SplineSet
600 1120 m 0,0,1
 659 1120 659 1120 694 1084 c 0,2,3
 734 1043 734 1043 734 988 c 128,-1,4
 734 933 734 933 694 894 c 0,5,6
 655 856 655 856 600 856 c 0,7,8
 543 856 543 856 506 892 c 0,9,10
 466 931 466 931 466 988 c 128,-1,11
 466 1045 466 1045 506 1082.5 c 128,-1,12
 546 1120 546 1120 600 1120 c 0,0,1
1050 34 m 1,13,14
 1050 -156 1050 -156 934 -279 c 0,15,16
 801 -420 801 -420 600 -420 c 0,17,18
 395 -420 395 -420 269 -280 c 1,19,20
 150 -146 150 -146 150 34 c 0,21,22
 150 245 150 245 367 410 c 0,23,24
 516 523 516 523 516 722 c 1,25,-1
 683 722 l 1,26,27
 683 444 683 444 498 319 c 1,28,29
 330 203 330 203 330 34 c 0,30,31
 330 -86 330 -86 397 -167 c 0,32,33
 480 -267 480 -267 600 -267 c 0,34,35
 727 -267 727 -267 805 -169 c 0,36,37
 870 -87 870 -87 870 34 c 1,38,-1
 1050 34 l 1,13,14
EndSplineSet
EndChar

StartChar: Agrave
Encoding: 127 192 130
Width: 1200
GlyphClass: 2
Flags: W
LayerCount: 2
Fore
SplineSet
50 0 m 1,0,1
 184 720 184 720 510 1500 c 1,2,-1
 690 1500 l 1,3,4
 1028 720 1028 720 1150 0 c 1,5,-1
 970 0 l 1,6,7
 913 341 913 341 820 670 c 1,8,-1
 381 670 l 1,9,10
 290 345 290 345 230 0 c 1,11,-1
 50 0 l 1,0,1
429 830 m 1,12,-1
 772 830 l 1,13,14
 696 1074 696 1074 600 1310 c 1,15,16
 505 1076 505 1076 429 830 c 1,12,-1
500 1930 m 1,17,-1
 660 1616 l 1,18,-1
 550 1552 l 1,19,-1
 338 1836 l 1,20,-1
 500 1930 l 1,17,-1
EndSplineSet
EndChar

StartChar: Aacute
Encoding: 128 193 131
Width: 1200
GlyphClass: 2
Flags: W
LayerCount: 2
Fore
SplineSet
50 0 m 1,0,1
 184 720 184 720 510 1500 c 1,2,-1
 690 1500 l 1,3,4
 1028 720 1028 720 1150 0 c 1,5,-1
 970 0 l 1,6,7
 913 341 913 341 820 670 c 1,8,-1
 381 670 l 1,9,10
 290 345 290 345 230 0 c 1,11,-1
 50 0 l 1,0,1
429 830 m 1,12,-1
 772 830 l 1,13,14
 696 1074 696 1074 600 1310 c 1,15,16
 505 1076 505 1076 429 830 c 1,12,-1
706 1930 m 1,17,-1
 868 1836 l 1,18,-1
 656 1552 l 1,19,-1
 546 1616 l 1,20,-1
 706 1930 l 1,17,-1
EndSplineSet
EndChar

StartChar: Acircumflex
Encoding: 129 194 132
Width: 1200
GlyphClass: 2
Flags: W
LayerCount: 2
Fore
SplineSet
50 0 m 1,0,1
 184 720 184 720 510 1500 c 1,2,-1
 690 1500 l 1,3,4
 1028 720 1028 720 1150 0 c 1,5,-1
 970 0 l 1,6,7
 913 341 913 341 820 670 c 1,8,-1
 381 670 l 1,9,10
 290 345 290 345 230 0 c 1,11,-1
 50 0 l 1,0,1
429 830 m 1,12,-1
 772 830 l 1,13,14
 696 1074 696 1074 600 1310 c 1,15,16
 505 1076 505 1076 429 830 c 1,12,-1
338 1646 m 1,17,-1
 550 1930 l 1,18,-1
 656 1930 l 1,19,-1
 868 1646 l 1,20,-1
 757 1574 l 1,21,-1
 603 1766 l 1,22,-1
 447 1574 l 1,23,-1
 338 1646 l 1,17,-1
EndSplineSet
EndChar

StartChar: Atilde
Encoding: 130 195 133
Width: 1200
GlyphClass: 2
Flags: W
LayerCount: 2
Fore
SplineSet
50 0 m 1,0,1
 184 720 184 720 510 1500 c 1,2,-1
 690 1500 l 1,3,4
 1028 720 1028 720 1150 0 c 1,5,-1
 970 0 l 1,6,7
 913 341 913 341 820 670 c 1,8,-1
 381 670 l 1,9,10
 290 345 290 345 230 0 c 1,11,-1
 50 0 l 1,0,1
429 830 m 1,12,-1
 772 830 l 1,13,14
 696 1074 696 1074 600 1310 c 1,15,16
 505 1076 505 1076 429 830 c 1,12,-1
339 1657 m 1,17,18
 364 1884 364 1884 512 1884 c 0,19,20
 589 1884 589 1884 631 1814 c 0,21,22
 667 1754 667 1754 686 1754 c 0,23,24
 740 1754 740 1754 754 1843 c 1,25,-1
 857 1843 l 1,26,27
 832 1616 832 1616 684 1616 c 0,28,29
 607 1616 607 1616 564 1693 c 0,30,31
 532 1750 532 1750 512 1750 c 0,32,33
 458 1750 458 1750 442 1657 c 1,34,-1
 339 1657 l 1,17,18
EndSplineSet
EndChar

StartChar: Adieresis
Encoding: 131 196 134
Width: 1200
GlyphClass: 2
Flags: W
LayerCount: 2
Fore
SplineSet
50 0 m 1,0,1
 184 720 184 720 510 1500 c 1,2,-1
 690 1500 l 1,3,4
 1028 720 1028 720 1150 0 c 1,5,-1
 970 0 l 1,6,7
 913 341 913 341 820 670 c 1,8,-1
 381 670 l 1,9,10
 290 345 290 345 230 0 c 1,11,-1
 50 0 l 1,0,1
429 830 m 1,12,-1
 772 830 l 1,13,14
 696 1074 696 1074 600 1310 c 1,15,16
 505 1076 505 1076 429 830 c 1,12,-1
766 1881 m 0,17,18
 825 1881 825 1881 860 1845 c 0,19,20
 900 1804 900 1804 900 1749 c 128,-1,21
 900 1694 900 1694 860 1655 c 0,22,23
 821 1617 821 1617 766 1617 c 0,24,25
 709 1617 709 1617 672 1653 c 0,26,27
 632 1692 632 1692 632 1749 c 128,-1,28
 632 1806 632 1806 672 1843.5 c 128,-1,29
 712 1881 712 1881 766 1881 c 0,17,18
434 1881 m 0,30,31
 493 1881 493 1881 528 1845 c 0,32,33
 568 1804 568 1804 568 1749 c 128,-1,34
 568 1694 568 1694 528 1655 c 0,35,36
 489 1617 489 1617 434 1617 c 0,37,38
 377 1617 377 1617 340 1653 c 0,39,40
 300 1692 300 1692 300 1749 c 128,-1,41
 300 1806 300 1806 340 1843.5 c 128,-1,42
 380 1881 380 1881 434 1881 c 0,30,31
EndSplineSet
EndChar

StartChar: Aring
Encoding: 132 197 135
Width: 1200
GlyphClass: 2
Flags: W
LayerCount: 2
Fore
SplineSet
50 0 m 1,0,1
 184 720 184 720 510 1500 c 1,2,-1
 690 1500 l 1,3,4
 1028 720 1028 720 1150 0 c 1,5,-1
 970 0 l 1,6,7
 913 341 913 341 820 670 c 1,8,-1
 381 670 l 1,9,10
 290 345 290 345 230 0 c 1,11,-1
 50 0 l 1,0,1
429 830 m 1,12,-1
 772 830 l 1,13,14
 696 1074 696 1074 600 1310 c 1,15,16
 505 1076 505 1076 429 830 c 1,12,-1
539 1745 m 0,17,18
 539 1720 539 1720 557 1699 c 0,19,20
 574 1679 574 1679 600 1679 c 0,21,22
 628 1679 628 1679 644 1698 c 0,23,24
 661 1718 661 1718 661 1745 c 0,25,26
 661 1770 661 1770 643 1791 c 0,27,28
 626 1811 626 1811 600 1811 c 128,-1,29
 574 1811 574 1811 556.5 1791.5 c 128,-1,30
 539 1772 539 1772 539 1745 c 0,17,18
429 1744 m 0,31,32
 429 1814 429 1814 479 1862 c 128,-1,33
 529 1910 529 1910 600 1910 c 0,34,35
 672 1910 672 1910 721 1862 c 0,36,37
 771 1813 771 1813 771 1744 c 0,38,39
 771 1674 771 1674 721 1626 c 128,-1,40
 671 1578 671 1578 600 1578 c 128,-1,41
 529 1578 529 1578 479 1626.5 c 128,-1,42
 429 1675 429 1675 429 1744 c 0,31,32
EndSplineSet
EndChar

StartChar: AE
Encoding: 133 198 136
Width: 1200
GlyphClass: 2
Flags: W
LayerCount: 2
Fore
SplineSet
10 0 m 1,0,1
 156 810 156 810 470 1500 c 1,2,-1
 1126 1500 l 1,3,-1
 1126 1340 l 1,4,-1
 808 1340 l 1,5,-1
 808 830 l 1,6,-1
 1056 830 l 1,7,-1
 1056 670 l 1,8,-1
 808 670 l 1,9,-1
 808 160 l 1,10,-1
 1190 160 l 1,11,-1
 1190 0 l 1,12,-1
 648 0 l 1,13,-1
 648 670 l 1,14,-1
 324 670 l 1,15,16
 240 347 240 347 180 0 c 1,17,-1
 10 0 l 1,0,1
648 830 m 1,18,-1
 648 1340 l 1,19,-1
 558 1340 l 1,20,21
 452 1115 452 1115 368 830 c 1,22,-1
 648 830 l 1,18,-1
EndSplineSet
EndChar

StartChar: Ccedilla
Encoding: 134 199 137
Width: 1200
GlyphClass: 2
Flags: W
LayerCount: 2
Fore
SplineSet
1033 334 m 1,0,1
 1010 266 1010 266 984 217 c 0,2,3
 882 22 882 22 689 -12 c 1,4,5
 715 -65 715 -65 715 -126 c 0,6,7
 715 -320 715 -320 501 -410 c 1,8,-1
 501 -221 l 1,9,10
 583 -182 583 -182 583 -110 c 0,11,12
 583 -59 583 -59 554 -18 c 1,13,14
 330 2 330 2 216 217 c 0,15,16
 110 417 110 417 110 750 c 0,17,18
 110 1084 110 1084 216 1283 c 0,19,20
 342 1520 342 1520 600 1520 c 0,21,22
 859 1520 859 1520 984 1283 c 0,23,24
 1015 1224 1015 1224 1033 1166 c 1,25,-1
 847 1166 l 1,26,27
 840 1183 840 1183 832 1198 c 0,28,29
 742 1367 742 1367 600 1367 c 0,30,31
 459 1367 459 1367 368 1198 c 0,32,33
 290 1053 290 1053 290 750 c 0,34,35
 290 441 290 441 368 302 c 0,36,37
 463 133 463 133 600 133 c 0,38,39
 742 133 742 133 832 302 c 0,40,41
 840 317 840 317 847 334 c 1,42,-1
 1033 334 l 1,0,1
EndSplineSet
EndChar

StartChar: Egrave
Encoding: 135 200 138
Width: 1200
GlyphClass: 2
Flags: W
LayerCount: 2
Fore
SplineSet
186 0 m 1,0,-1
 186 1500 l 1,1,-1
 946 1500 l 1,2,-1
 946 1340 l 1,3,-1
 366 1340 l 1,4,-1
 366 830 l 1,5,-1
 821 830 l 1,6,-1
 821 670 l 1,7,-1
 366 670 l 1,8,-1
 366 160 l 1,9,-1
 1014 160 l 1,10,-1
 1014 0 l 1,11,-1
 186 0 l 1,0,-1
500 1930 m 1,12,-1
 660 1616 l 1,13,-1
 550 1552 l 1,14,-1
 338 1836 l 1,15,-1
 500 1930 l 1,12,-1
EndSplineSet
EndChar

StartChar: Eacute
Encoding: 136 201 139
Width: 1200
GlyphClass: 2
Flags: W
LayerCount: 2
Fore
SplineSet
186 0 m 1,0,-1
 186 1500 l 1,1,-1
 946 1500 l 1,2,-1
 946 1340 l 1,3,-1
 366 1340 l 1,4,-1
 366 830 l 1,5,-1
 821 830 l 1,6,-1
 821 670 l 1,7,-1
 366 670 l 1,8,-1
 366 160 l 1,9,-1
 1014 160 l 1,10,-1
 1014 0 l 1,11,-1
 186 0 l 1,0,-1
706 1930 m 1,12,-1
 868 1836 l 1,13,-1
 656 1552 l 1,14,-1
 546 1616 l 1,15,-1
 706 1930 l 1,12,-1
EndSplineSet
EndChar

StartChar: Ecircumflex
Encoding: 137 202 140
Width: 1200
GlyphClass: 2
Flags: W
LayerCount: 2
Fore
SplineSet
338 1646 m 1,0,-1
 550 1930 l 1,1,-1
 656 1930 l 1,2,-1
 868 1646 l 1,3,-1
 757 1574 l 1,4,-1
 603 1766 l 1,5,-1
 447 1574 l 1,6,-1
 338 1646 l 1,0,-1
186 0 m 1,7,-1
 186 1500 l 1,8,-1
 946 1500 l 1,9,-1
 946 1340 l 1,10,-1
 366 1340 l 1,11,-1
 366 830 l 1,12,-1
 821 830 l 1,13,-1
 821 670 l 1,14,-1
 366 670 l 1,15,-1
 366 160 l 1,16,-1
 1014 160 l 1,17,-1
 1014 0 l 1,18,-1
 186 0 l 1,7,-1
EndSplineSet
EndChar

StartChar: Edieresis
Encoding: 138 203 141
Width: 1200
GlyphClass: 2
Flags: W
LayerCount: 2
Fore
SplineSet
766 1881 m 0,0,1
 825 1881 825 1881 860 1845 c 0,2,3
 900 1804 900 1804 900 1749 c 128,-1,4
 900 1694 900 1694 860 1655 c 0,5,6
 821 1617 821 1617 766 1617 c 0,7,8
 709 1617 709 1617 672 1653 c 0,9,10
 632 1692 632 1692 632 1749 c 128,-1,11
 632 1806 632 1806 672 1843.5 c 128,-1,12
 712 1881 712 1881 766 1881 c 0,0,1
434 1881 m 0,13,14
 493 1881 493 1881 528 1845 c 0,15,16
 568 1804 568 1804 568 1749 c 128,-1,17
 568 1694 568 1694 528 1655 c 0,18,19
 489 1617 489 1617 434 1617 c 0,20,21
 377 1617 377 1617 340 1653 c 0,22,23
 300 1692 300 1692 300 1749 c 128,-1,24
 300 1806 300 1806 340 1843.5 c 128,-1,25
 380 1881 380 1881 434 1881 c 0,13,14
186 0 m 1,26,-1
 186 1500 l 1,27,-1
 946 1500 l 1,28,-1
 946 1340 l 1,29,-1
 366 1340 l 1,30,-1
 366 830 l 1,31,-1
 821 830 l 1,32,-1
 821 670 l 1,33,-1
 366 670 l 1,34,-1
 366 160 l 1,35,-1
 1014 160 l 1,36,-1
 1014 0 l 1,37,-1
 186 0 l 1,26,-1
EndSplineSet
EndChar

StartChar: Igrave
Encoding: 139 204 142
Width: 1200
GlyphClass: 2
Flags: W
LayerCount: 2
Fore
SplineSet
500 1930 m 1,0,-1
 660 1616 l 1,1,-1
 550 1552 l 1,2,-1
 338 1836 l 1,3,-1
 500 1930 l 1,0,-1
186 0 m 1,4,-1
 186 160 l 1,5,-1
 510 160 l 1,6,-1
 510 1340 l 1,7,-1
 186 1340 l 1,8,-1
 186 1500 l 1,9,-1
 1014 1500 l 1,10,-1
 1014 1340 l 1,11,-1
 690 1340 l 1,12,-1
 690 160 l 1,13,-1
 1014 160 l 1,14,-1
 1014 0 l 1,15,-1
 186 0 l 1,4,-1
EndSplineSet
EndChar

StartChar: Iacute
Encoding: 140 205 143
Width: 1200
GlyphClass: 2
Flags: W
LayerCount: 2
Fore
SplineSet
706 1930 m 1,0,-1
 868 1836 l 1,1,-1
 656 1552 l 1,2,-1
 546 1616 l 1,3,-1
 706 1930 l 1,0,-1
186 0 m 1,4,-1
 186 160 l 1,5,-1
 510 160 l 1,6,-1
 510 1340 l 1,7,-1
 186 1340 l 1,8,-1
 186 1500 l 1,9,-1
 1014 1500 l 1,10,-1
 1014 1340 l 1,11,-1
 690 1340 l 1,12,-1
 690 160 l 1,13,-1
 1014 160 l 1,14,-1
 1014 0 l 1,15,-1
 186 0 l 1,4,-1
EndSplineSet
EndChar

StartChar: Icircumflex
Encoding: 141 206 144
Width: 1200
GlyphClass: 2
Flags: W
LayerCount: 2
Fore
SplineSet
338 1646 m 1,0,-1
 550 1930 l 1,1,-1
 656 1930 l 1,2,-1
 868 1646 l 1,3,-1
 757 1574 l 1,4,-1
 603 1766 l 1,5,-1
 447 1574 l 1,6,-1
 338 1646 l 1,0,-1
186 0 m 1,7,-1
 186 160 l 1,8,-1
 510 160 l 1,9,-1
 510 1340 l 1,10,-1
 186 1340 l 1,11,-1
 186 1500 l 1,12,-1
 1014 1500 l 1,13,-1
 1014 1340 l 1,14,-1
 690 1340 l 1,15,-1
 690 160 l 1,16,-1
 1014 160 l 1,17,-1
 1014 0 l 1,18,-1
 186 0 l 1,7,-1
EndSplineSet
EndChar

StartChar: Idieresis
Encoding: 142 207 145
Width: 1200
GlyphClass: 2
Flags: W
LayerCount: 2
Fore
SplineSet
766 1881 m 0,0,1
 825 1881 825 1881 860 1845 c 0,2,3
 900 1804 900 1804 900 1749 c 128,-1,4
 900 1694 900 1694 860 1655 c 0,5,6
 821 1617 821 1617 766 1617 c 0,7,8
 709 1617 709 1617 672 1653 c 0,9,10
 632 1692 632 1692 632 1749 c 128,-1,11
 632 1806 632 1806 672 1843.5 c 128,-1,12
 712 1881 712 1881 766 1881 c 0,0,1
434 1881 m 0,13,14
 493 1881 493 1881 528 1845 c 0,15,16
 568 1804 568 1804 568 1749 c 128,-1,17
 568 1694 568 1694 528 1655 c 0,18,19
 489 1617 489 1617 434 1617 c 0,20,21
 377 1617 377 1617 340 1653 c 0,22,23
 300 1692 300 1692 300 1749 c 128,-1,24
 300 1806 300 1806 340 1843.5 c 128,-1,25
 380 1881 380 1881 434 1881 c 0,13,14
186 0 m 1,26,-1
 186 160 l 1,27,-1
 510 160 l 1,28,-1
 510 1340 l 1,29,-1
 186 1340 l 1,30,-1
 186 1500 l 1,31,-1
 1014 1500 l 1,32,-1
 1014 1340 l 1,33,-1
 690 1340 l 1,34,-1
 690 160 l 1,35,-1
 1014 160 l 1,36,-1
 1014 0 l 1,37,-1
 186 0 l 1,26,-1
EndSplineSet
EndChar

StartChar: Eth
Encoding: 143 208 146
Width: 1200
GlyphClass: 2
Flags: W
LayerCount: 2
Fore
SplineSet
329 153 m 1,0,-1
 551 153 l 2,1,2
 744 153 744 153 833 322 c 0,3,4
 910 468 910 468 910 750 c 0,5,6
 910 1033 910 1033 832 1178 c 0,7,8
 741 1347 741 1347 550 1347 c 2,9,-1
 330 1347 l 1,10,-1
 330 820 l 1,11,-1
 654 820 l 1,12,-1
 654 680 l 1,13,-1
 329 680 l 1,14,-1
 329 153 l 1,0,-1
150 0 m 1,15,-1
 150 680 l 1,16,-1
 80 680 l 1,17,-1
 80 820 l 1,18,-1
 150 820 l 1,19,-1
 150 1500 l 1,20,-1
 550 1500 l 2,21,22
 859 1500 859 1500 984 1263 c 0,23,24
 1090 1062 1090 1062 1090 750 c 0,25,26
 1090 440 1090 440 985 237 c 1,27,28
 861 0 861 0 551 0 c 2,29,-1
 150 0 l 1,15,-1
EndSplineSet
EndChar

StartChar: Ntilde
Encoding: 144 209 147
Width: 1200
GlyphClass: 2
Flags: W
LayerCount: 2
Fore
SplineSet
339 1657 m 1,0,1
 364 1884 364 1884 512 1884 c 0,2,3
 589 1884 589 1884 631 1814 c 0,4,5
 667 1754 667 1754 686 1754 c 0,6,7
 740 1754 740 1754 754 1843 c 1,8,-1
 857 1843 l 1,9,10
 832 1616 832 1616 684 1616 c 0,11,12
 607 1616 607 1616 564 1693 c 0,13,14
 532 1750 532 1750 512 1750 c 0,15,16
 458 1750 458 1750 442 1657 c 1,17,-1
 339 1657 l 1,0,1
150 0 m 1,18,-1
 150 1500 l 1,19,-1
 330 1500 l 1,20,21
 732 1034 732 1034 890 462 c 1,22,-1
 890 1500 l 1,23,-1
 1050 1500 l 1,24,-1
 1050 0 l 1,25,-1
 890 0 l 1,26,27
 646 843 646 843 310 1264 c 1,28,-1
 310 0 l 1,29,-1
 150 0 l 1,18,-1
EndSplineSet
EndChar

StartChar: Ograve
Encoding: 145 210 148
Width: 1200
GlyphClass: 2
Flags: W
LayerCount: 2
Fore
SplineSet
600 133 m 0,0,1
 742 133 742 133 832 302 c 0,2,3
 910 448 910 448 910 750 c 0,4,5
 910 1048 910 1048 832 1198 c 1,6,7
 742 1367 742 1367 600 1367 c 0,8,9
 459 1367 459 1367 368 1198 c 0,10,11
 290 1053 290 1053 290 750 c 0,12,13
 290 441 290 441 368 302 c 0,14,15
 463 133 463 133 600 133 c 0,0,1
600 -20 m 0,16,17
 342 -20 342 -20 216 217 c 0,18,19
 110 417 110 417 110 750 c 128,-1,20
 110 1083 110 1083 216 1283 c 0,21,22
 342 1520 342 1520 600 1520 c 0,23,24
 860 1520 860 1520 984 1283 c 0,25,26
 1090 1080 1090 1080 1090 750 c 128,-1,27
 1090 420 1090 420 984 217 c 0,28,29
 860 -20 860 -20 600 -20 c 0,16,17
500 1930 m 1,30,-1
 660 1616 l 1,31,-1
 550 1552 l 1,32,-1
 338 1836 l 1,33,-1
 500 1930 l 1,30,-1
EndSplineSet
EndChar

StartChar: Oacute
Encoding: 146 211 149
Width: 1200
GlyphClass: 2
Flags: W
LayerCount: 2
Fore
SplineSet
600 133 m 0,0,1
 742 133 742 133 832 302 c 0,2,3
 910 448 910 448 910 750 c 0,4,5
 910 1048 910 1048 832 1198 c 1,6,7
 742 1367 742 1367 600 1367 c 0,8,9
 459 1367 459 1367 368 1198 c 0,10,11
 290 1053 290 1053 290 750 c 0,12,13
 290 441 290 441 368 302 c 0,14,15
 463 133 463 133 600 133 c 0,0,1
600 -20 m 0,16,17
 342 -20 342 -20 216 217 c 0,18,19
 110 417 110 417 110 750 c 128,-1,20
 110 1083 110 1083 216 1283 c 0,21,22
 342 1520 342 1520 600 1520 c 0,23,24
 860 1520 860 1520 984 1283 c 0,25,26
 1090 1080 1090 1080 1090 750 c 128,-1,27
 1090 420 1090 420 984 217 c 0,28,29
 860 -20 860 -20 600 -20 c 0,16,17
706 1930 m 1,30,-1
 868 1836 l 1,31,-1
 656 1552 l 1,32,-1
 546 1616 l 1,33,-1
 706 1930 l 1,30,-1
EndSplineSet
EndChar

StartChar: Ocircumflex
Encoding: 147 212 150
Width: 1200
GlyphClass: 2
Flags: W
LayerCount: 2
Fore
SplineSet
338 1646 m 1,0,-1
 550 1930 l 1,1,-1
 656 1930 l 1,2,-1
 868 1646 l 1,3,-1
 757 1574 l 1,4,-1
 603 1766 l 1,5,-1
 447 1574 l 1,6,-1
 338 1646 l 1,0,-1
600 133 m 0,7,8
 742 133 742 133 832 302 c 0,9,10
 910 448 910 448 910 750 c 0,11,12
 910 1048 910 1048 832 1198 c 1,13,14
 742 1367 742 1367 600 1367 c 0,15,16
 459 1367 459 1367 368 1198 c 0,17,18
 290 1053 290 1053 290 750 c 0,19,20
 290 441 290 441 368 302 c 0,21,22
 463 133 463 133 600 133 c 0,7,8
600 -20 m 0,23,24
 342 -20 342 -20 216 217 c 0,25,26
 110 417 110 417 110 750 c 128,-1,27
 110 1083 110 1083 216 1283 c 0,28,29
 342 1520 342 1520 600 1520 c 0,30,31
 860 1520 860 1520 984 1283 c 0,32,33
 1090 1080 1090 1080 1090 750 c 128,-1,34
 1090 420 1090 420 984 217 c 0,35,36
 860 -20 860 -20 600 -20 c 0,23,24
EndSplineSet
EndChar

StartChar: Otilde
Encoding: 148 213 151
Width: 1200
GlyphClass: 2
Flags: W
LayerCount: 2
Fore
SplineSet
339 1657 m 1,0,1
 364 1884 364 1884 512 1884 c 0,2,3
 589 1884 589 1884 631 1814 c 0,4,5
 667 1754 667 1754 686 1754 c 0,6,7
 740 1754 740 1754 754 1843 c 1,8,-1
 857 1843 l 1,9,10
 832 1616 832 1616 684 1616 c 0,11,12
 607 1616 607 1616 564 1693 c 0,13,14
 532 1750 532 1750 512 1750 c 0,15,16
 458 1750 458 1750 442 1657 c 1,17,-1
 339 1657 l 1,0,1
600 133 m 0,18,19
 742 133 742 133 832 302 c 0,20,21
 910 448 910 448 910 750 c 0,22,23
 910 1048 910 1048 832 1198 c 1,24,25
 742 1367 742 1367 600 1367 c 0,26,27
 459 1367 459 1367 368 1198 c 0,28,29
 290 1053 290 1053 290 750 c 0,30,31
 290 441 290 441 368 302 c 0,32,33
 463 133 463 133 600 133 c 0,18,19
600 -20 m 0,34,35
 342 -20 342 -20 216 217 c 0,36,37
 110 417 110 417 110 750 c 128,-1,38
 110 1083 110 1083 216 1283 c 0,39,40
 342 1520 342 1520 600 1520 c 0,41,42
 860 1520 860 1520 984 1283 c 0,43,44
 1090 1080 1090 1080 1090 750 c 128,-1,45
 1090 420 1090 420 984 217 c 0,46,47
 860 -20 860 -20 600 -20 c 0,34,35
EndSplineSet
EndChar

StartChar: Odieresis
Encoding: 149 214 152
Width: 1200
GlyphClass: 2
Flags: W
LayerCount: 2
Fore
SplineSet
766 1881 m 0,0,1
 825 1881 825 1881 860 1845 c 0,2,3
 900 1804 900 1804 900 1749 c 128,-1,4
 900 1694 900 1694 860 1655 c 0,5,6
 821 1617 821 1617 766 1617 c 0,7,8
 709 1617 709 1617 672 1653 c 0,9,10
 632 1692 632 1692 632 1749 c 128,-1,11
 632 1806 632 1806 672 1843.5 c 128,-1,12
 712 1881 712 1881 766 1881 c 0,0,1
434 1881 m 0,13,14
 493 1881 493 1881 528 1845 c 0,15,16
 568 1804 568 1804 568 1749 c 128,-1,17
 568 1694 568 1694 528 1655 c 0,18,19
 489 1617 489 1617 434 1617 c 0,20,21
 377 1617 377 1617 340 1653 c 0,22,23
 300 1692 300 1692 300 1749 c 128,-1,24
 300 1806 300 1806 340 1843.5 c 128,-1,25
 380 1881 380 1881 434 1881 c 0,13,14
600 133 m 0,26,27
 742 133 742 133 832 302 c 0,28,29
 910 448 910 448 910 750 c 0,30,31
 910 1048 910 1048 832 1198 c 1,32,33
 742 1367 742 1367 600 1367 c 0,34,35
 459 1367 459 1367 368 1198 c 0,36,37
 290 1053 290 1053 290 750 c 0,38,39
 290 441 290 441 368 302 c 0,40,41
 463 133 463 133 600 133 c 0,26,27
600 -20 m 0,42,43
 342 -20 342 -20 216 217 c 0,44,45
 110 417 110 417 110 750 c 128,-1,46
 110 1083 110 1083 216 1283 c 0,47,48
 342 1520 342 1520 600 1520 c 0,49,50
 860 1520 860 1520 984 1283 c 0,51,52
 1090 1080 1090 1080 1090 750 c 128,-1,53
 1090 420 1090 420 984 217 c 0,54,55
 860 -20 860 -20 600 -20 c 0,42,43
EndSplineSet
EndChar

StartChar: multiply
Encoding: 150 215 153
Width: 1200
GlyphClass: 2
Flags: W
LayerCount: 2
Fore
SplineSet
364 401 m 1,0,-1
 251 514 l 1,1,-1
 487 750 l 1,2,-1
 251 986 l 1,3,-1
 364 1099 l 1,4,-1
 600 863 l 1,5,-1
 836 1099 l 1,6,-1
 949 986 l 1,7,-1
 713 750 l 1,8,-1
 949 514 l 1,9,-1
 836 401 l 1,10,-1
 600 637 l 1,11,-1
 364 401 l 1,0,-1
EndSplineSet
EndChar

StartChar: Oslash
Encoding: 151 216 154
Width: 1200
GlyphClass: 2
Flags: W
LayerCount: 2
Fore
SplineSet
130 0 m 1,0,-1
 231 190 l 1,1,2
 224 203 224 203 216 217 c 0,3,4
 110 417 110 417 110 750 c 0,5,6
 110 1084 110 1084 216 1283 c 0,7,8
 342 1520 342 1520 600 1520 c 0,9,10
 774 1520 774 1520 887 1414 c 1,11,-1
 933 1500 l 1,12,-1
 1070 1500 l 1,13,-1
 969 1310 l 1,14,15
 977 1297 977 1297 984 1283 c 0,16,17
 1090 1071 1090 1071 1090 750 c 0,18,19
 1090 420 1090 420 984 217 c 0,20,21
 860 -20 860 -20 600 -20 c 0,22,23
 428 -20 428 -20 315 85 c 1,24,-1
 269 0 l 1,25,-1
 130 0 l 1,0,-1
600 133 m 0,26,27
 742 133 742 133 832 302 c 0,28,29
 910 448 910 448 910 750 c 0,30,31
 910 976 910 976 865 1117 c 1,32,-1
 402 249 l 1,33,34
 487 133 487 133 600 133 c 0,26,27
334 381 m 1,35,-1
 800 1251 l 1,36,37
 718 1367 718 1367 600 1367 c 0,38,39
 459 1367 459 1367 368 1198 c 0,40,41
 290 1053 290 1053 290 750 c 0,42,43
 290 518 290 518 334 381 c 1,35,-1
EndSplineSet
EndChar

StartChar: Ugrave
Encoding: 152 217 155
Width: 1200
GlyphClass: 2
Flags: W
LayerCount: 2
Fore
SplineSet
150 1500 m 1,0,-1
 330 1500 l 1,1,-1
 330 434 l 2,2,3
 330 313 330 313 395 231 c 0,4,5
 473 133 473 133 600 133 c 0,6,7
 722 133 722 133 805 233 c 0,8,9
 870 311 870 311 870 434 c 2,10,-1
 870 1500 l 1,11,-1
 1050 1500 l 1,12,-1
 1050 434 l 2,13,14
 1050 251 1050 251 931 120 c 0,15,16
 804 -20 804 -20 600 -20 c 0,17,18
 399 -20 399 -20 266 121 c 0,19,20
 150 243 150 243 150 434 c 2,21,-1
 150 1500 l 1,0,-1
500 1930 m 1,22,-1
 660 1616 l 1,23,-1
 550 1552 l 1,24,-1
 338 1836 l 1,25,-1
 500 1930 l 1,22,-1
EndSplineSet
EndChar

StartChar: Uacute
Encoding: 153 218 156
Width: 1200
GlyphClass: 2
Flags: W
LayerCount: 2
Fore
SplineSet
150 1500 m 1,0,-1
 330 1500 l 1,1,-1
 330 434 l 2,2,3
 330 313 330 313 395 231 c 0,4,5
 473 133 473 133 600 133 c 0,6,7
 722 133 722 133 805 233 c 0,8,9
 870 311 870 311 870 434 c 2,10,-1
 870 1500 l 1,11,-1
 1050 1500 l 1,12,-1
 1050 434 l 2,13,14
 1050 251 1050 251 931 120 c 0,15,16
 804 -20 804 -20 600 -20 c 0,17,18
 399 -20 399 -20 266 121 c 0,19,20
 150 243 150 243 150 434 c 2,21,-1
 150 1500 l 1,0,-1
706 1930 m 1,22,-1
 868 1836 l 1,23,-1
 656 1552 l 1,24,-1
 546 1616 l 1,25,-1
 706 1930 l 1,22,-1
EndSplineSet
EndChar

StartChar: Ucircumflex
Encoding: 154 219 157
Width: 1200
GlyphClass: 2
Flags: W
LayerCount: 2
Fore
SplineSet
338 1646 m 1,0,-1
 550 1930 l 1,1,-1
 656 1930 l 1,2,-1
 868 1646 l 1,3,-1
 757 1574 l 1,4,-1
 603 1766 l 1,5,-1
 447 1574 l 1,6,-1
 338 1646 l 1,0,-1
150 1500 m 1,7,-1
 330 1500 l 1,8,-1
 330 434 l 2,9,10
 330 313 330 313 395 231 c 0,11,12
 473 133 473 133 600 133 c 0,13,14
 722 133 722 133 805 233 c 0,15,16
 870 311 870 311 870 434 c 2,17,-1
 870 1500 l 1,18,-1
 1050 1500 l 1,19,-1
 1050 434 l 2,20,21
 1050 251 1050 251 931 120 c 0,22,23
 804 -20 804 -20 600 -20 c 0,24,25
 399 -20 399 -20 266 121 c 0,26,27
 150 243 150 243 150 434 c 2,28,-1
 150 1500 l 1,7,-1
EndSplineSet
EndChar

StartChar: Udieresis
Encoding: 155 220 158
Width: 1200
GlyphClass: 2
Flags: W
LayerCount: 2
Fore
SplineSet
766 1881 m 0,0,1
 825 1881 825 1881 860 1845 c 0,2,3
 900 1804 900 1804 900 1749 c 128,-1,4
 900 1694 900 1694 860 1655 c 0,5,6
 821 1617 821 1617 766 1617 c 0,7,8
 709 1617 709 1617 672 1653 c 0,9,10
 632 1692 632 1692 632 1749 c 128,-1,11
 632 1806 632 1806 672 1843.5 c 128,-1,12
 712 1881 712 1881 766 1881 c 0,0,1
434 1881 m 0,13,14
 493 1881 493 1881 528 1845 c 0,15,16
 568 1804 568 1804 568 1749 c 128,-1,17
 568 1694 568 1694 528 1655 c 0,18,19
 489 1617 489 1617 434 1617 c 0,20,21
 377 1617 377 1617 340 1653 c 0,22,23
 300 1692 300 1692 300 1749 c 128,-1,24
 300 1806 300 1806 340 1843.5 c 128,-1,25
 380 1881 380 1881 434 1881 c 0,13,14
150 1500 m 1,26,-1
 330 1500 l 1,27,-1
 330 434 l 2,28,29
 330 313 330 313 395 231 c 0,30,31
 473 133 473 133 600 133 c 0,32,33
 722 133 722 133 805 233 c 0,34,35
 870 311 870 311 870 434 c 2,36,-1
 870 1500 l 1,37,-1
 1050 1500 l 1,38,-1
 1050 434 l 2,39,40
 1050 251 1050 251 931 120 c 0,41,42
 804 -20 804 -20 600 -20 c 0,43,44
 399 -20 399 -20 266 121 c 0,45,46
 150 243 150 243 150 434 c 2,47,-1
 150 1500 l 1,26,-1
EndSplineSet
EndChar

StartChar: Yacute
Encoding: 156 221 159
Width: 1200
GlyphClass: 2
Flags: W
LayerCount: 2
Fore
SplineSet
510 0 m 1,0,-1
 510 592 l 1,1,2
 250 1070 250 1070 100 1500 c 1,3,-1
 280 1500 l 1,4,5
 422 1100 422 1100 600 767 c 1,6,7
 786 1096 786 1096 920 1500 c 1,8,-1
 1100 1500 l 1,9,10
 956 1070 956 1070 690 592 c 1,11,-1
 690 0 l 1,12,-1
 510 0 l 1,0,-1
706 1930 m 1,13,-1
 868 1836 l 1,14,-1
 656 1552 l 1,15,-1
 546 1616 l 1,16,-1
 706 1930 l 1,13,-1
EndSplineSet
EndChar

StartChar: Thorn
Encoding: 157 222 160
Width: 1200
GlyphClass: 2
Flags: W
LayerCount: 2
Fore
SplineSet
330 403 m 1,0,-1
 546 403 l 2,1,2
 693 403 693 403 775 490 c 0,3,4
 870 591 870 591 870 750 c 128,-1,5
 870 909 870 909 771 1008 c 0,6,7
 681 1097 681 1097 546 1097 c 2,8,-1
 330 1097 l 1,9,-1
 330 403 l 1,0,-1
150 0 m 1,10,-1
 150 1500 l 1,11,-1
 330 1500 l 1,12,-1
 330 1250 l 1,13,-1
 546 1250 l 2,14,15
 749 1250 749 1250 885 1131 c 0,16,17
 1050 987 1050 987 1050 750 c 0,18,19
 1050 511 1050 511 884 366 c 0,20,21
 751 250 751 250 546 250 c 2,22,-1
 330 250 l 1,23,-1
 330 0 l 1,24,-1
 150 0 l 1,10,-1
EndSplineSet
EndChar

StartChar: germandbls
Encoding: 158 223 161
Width: 1200
GlyphClass: 2
Flags: W
LayerCount: 2
Fore
SplineSet
198 0 m 1,0,-1
 198 1143 l 2,1,2
 198 1309 198 1309 305 1412 c 0,3,4
 418 1520 418 1520 589 1520 c 0,5,6
 759 1520 759 1520 873 1412 c 0,7,8
 984 1306 984 1306 984 1143 c 0,9,10
 984 927 984 927 791 825 c 1,11,12
 1050 703 1050 703 1050 434 c 0,13,14
 1050 254 1050 254 931 120 c 1,15,16
 805 -20 805 -20 600 -20 c 1,17,-1
 600 133 l 1,18,19
 720 133 720 133 803 233 c 0,20,21
 870 314 870 314 870 434 c 0,22,23
 870 556 870 556 790.5 648.5 c 128,-1,24
 711 741 711 741 537 741 c 1,25,-1
 537 896 l 1,26,27
 685 896 685 896 744 950 c 0,28,29
 815 1015 815 1015 815 1128 c 0,30,31
 815 1250 815 1250 752 1305 c 0,32,33
 683 1365 683 1365 591 1365 c 0,34,35
 486 1365 486 1365 430 1302 c 0,36,37
 379 1245 379 1245 378 1143 c 1,38,-1
 378 0 l 1,39,-1
 198 0 l 1,0,-1
EndSplineSet
EndChar

StartChar: agrave
Encoding: 159 224 162
Width: 1200
GlyphClass: 2
Flags: W
LayerCount: 2
Fore
SplineSet
1002 0 m 1,0,-1
 822 0 l 1,1,-1
 822 237 l 1,2,3
 739 -20 739 -20 513 -20 c 0,4,5
 351 -20 351 -20 261 86 c 0,6,7
 180 181 180 181 180 299 c 0,8,9
 180 476 180 476 321 575 c 0,10,11
 431 653 431 653 581 653 c 2,12,-1
 817 653 l 1,13,14
 817 793 817 793 786 852 c 0,15,16
 727 964 727 964 595 964 c 0,17,18
 436 964 436 964 373 834 c 1,19,-1
 258 960 l 1,20,21
 379 1120 379 1120 618 1120 c 0,22,23
 821 1120 821 1120 931 958 c 0,24,25
 1002 853 1002 853 1002 654 c 2,26,-1
 1002 0 l 1,0,-1
822 507 m 1,27,28
 706 507 706 507 584 507 c 0,29,30
 472 507 472 507 408 448 c 0,31,32
 352 396 352 396 352 307 c 0,33,34
 352 240 352 240 396 192 c 0,35,36
 450 133 450 133 549 133 c 0,37,38
 654 133 654 133 722 219 c 1,39,40
 822 343 822 343 822 507 c 1,27,28
496 1528 m 1,41,-1
 656 1214 l 1,42,-1
 546 1150 l 1,43,-1
 334 1434 l 1,44,-1
 496 1528 l 1,41,-1
EndSplineSet
EndChar

StartChar: aacute
Encoding: 160 225 163
Width: 1200
GlyphClass: 2
Flags: W
LayerCount: 2
Fore
SplineSet
1002 0 m 1,0,-1
 822 0 l 1,1,-1
 822 237 l 1,2,3
 739 -20 739 -20 513 -20 c 0,4,5
 351 -20 351 -20 261 86 c 0,6,7
 180 181 180 181 180 299 c 0,8,9
 180 476 180 476 321 575 c 0,10,11
 431 653 431 653 581 653 c 2,12,-1
 817 653 l 1,13,14
 817 793 817 793 786 852 c 0,15,16
 727 964 727 964 595 964 c 0,17,18
 436 964 436 964 373 834 c 1,19,-1
 258 960 l 1,20,21
 379 1120 379 1120 618 1120 c 0,22,23
 821 1120 821 1120 931 958 c 0,24,25
 1002 853 1002 853 1002 654 c 2,26,-1
 1002 0 l 1,0,-1
822 507 m 1,27,28
 706 507 706 507 584 507 c 0,29,30
 472 507 472 507 408 448 c 0,31,32
 352 396 352 396 352 307 c 0,33,34
 352 240 352 240 396 192 c 0,35,36
 450 133 450 133 549 133 c 0,37,38
 654 133 654 133 722 219 c 1,39,40
 822 343 822 343 822 507 c 1,27,28
706 1528 m 1,41,-1
 868 1434 l 1,42,-1
 656 1150 l 1,43,-1
 546 1214 l 1,44,-1
 706 1528 l 1,41,-1
EndSplineSet
EndChar

StartChar: acircumflex
Encoding: 161 226 164
Width: 1200
GlyphClass: 2
Flags: W
LayerCount: 2
Fore
SplineSet
338 1244 m 1,0,-1
 550 1528 l 1,1,-1
 656 1528 l 1,2,-1
 868 1244 l 1,3,-1
 757 1172 l 1,4,-1
 603 1364 l 1,5,-1
 447 1172 l 1,6,-1
 338 1244 l 1,0,-1
1002 0 m 1,7,-1
 822 0 l 1,8,-1
 822 237 l 1,9,10
 739 -20 739 -20 513 -20 c 0,11,12
 351 -20 351 -20 261 86 c 0,13,14
 180 181 180 181 180 299 c 0,15,16
 180 476 180 476 321 575 c 0,17,18
 431 653 431 653 581 653 c 2,19,-1
 817 653 l 1,20,21
 817 793 817 793 786 852 c 0,22,23
 727 964 727 964 595 964 c 0,24,25
 436 964 436 964 373 834 c 1,26,-1
 258 960 l 1,27,28
 379 1120 379 1120 618 1120 c 0,29,30
 821 1120 821 1120 931 958 c 0,31,32
 1002 853 1002 853 1002 654 c 2,33,-1
 1002 0 l 1,7,-1
822 507 m 1,34,35
 706 507 706 507 584 507 c 0,36,37
 472 507 472 507 408 448 c 0,38,39
 352 396 352 396 352 307 c 0,40,41
 352 240 352 240 396 192 c 0,42,43
 450 133 450 133 549 133 c 0,44,45
 654 133 654 133 722 219 c 1,46,47
 822 343 822 343 822 507 c 1,34,35
EndSplineSet
EndChar

StartChar: atilde
Encoding: 162 227 165
Width: 1200
GlyphClass: 2
Flags: W
LayerCount: 2
Fore
SplineSet
342 1298 m 1,0,1
 367 1525 367 1525 515 1525 c 0,2,3
 592 1525 592 1525 634 1455 c 0,4,5
 670 1395 670 1395 689 1395 c 0,6,7
 743 1395 743 1395 757 1484 c 1,8,-1
 860 1484 l 1,9,10
 835 1257 835 1257 687 1257 c 0,11,12
 610 1257 610 1257 567 1334 c 0,13,14
 535 1391 535 1391 515 1391 c 0,15,16
 461 1391 461 1391 445 1298 c 1,17,-1
 342 1298 l 1,0,1
1002 0 m 1,18,-1
 822 0 l 1,19,-1
 822 237 l 1,20,21
 739 -20 739 -20 513 -20 c 0,22,23
 351 -20 351 -20 261 86 c 0,24,25
 180 181 180 181 180 299 c 0,26,27
 180 476 180 476 321 575 c 0,28,29
 431 653 431 653 581 653 c 2,30,-1
 817 653 l 1,31,32
 817 793 817 793 786 852 c 0,33,34
 727 964 727 964 595 964 c 0,35,36
 436 964 436 964 373 834 c 1,37,-1
 258 960 l 1,38,39
 379 1120 379 1120 618 1120 c 0,40,41
 821 1120 821 1120 931 958 c 0,42,43
 1002 853 1002 853 1002 654 c 2,44,-1
 1002 0 l 1,18,-1
822 507 m 1,45,46
 706 507 706 507 584 507 c 0,47,48
 472 507 472 507 408 448 c 0,49,50
 352 396 352 396 352 307 c 0,51,52
 352 240 352 240 396 192 c 0,53,54
 450 133 450 133 549 133 c 0,55,56
 654 133 654 133 722 219 c 1,57,58
 822 343 822 343 822 507 c 1,45,46
EndSplineSet
EndChar

StartChar: adieresis
Encoding: 163 228 166
Width: 1200
GlyphClass: 2
Flags: W
LayerCount: 2
Fore
SplineSet
766 1520 m 0,0,1
 825 1520 825 1520 860 1484 c 0,2,3
 900 1443 900 1443 900 1388 c 128,-1,4
 900 1333 900 1333 860 1294 c 0,5,6
 821 1256 821 1256 766 1256 c 0,7,8
 709 1256 709 1256 672 1292 c 0,9,10
 632 1331 632 1331 632 1388 c 128,-1,11
 632 1445 632 1445 672 1482.5 c 128,-1,12
 712 1520 712 1520 766 1520 c 0,0,1
434 1520 m 0,13,14
 493 1520 493 1520 528 1484 c 0,15,16
 568 1443 568 1443 568 1388 c 128,-1,17
 568 1333 568 1333 528 1294 c 0,18,19
 489 1256 489 1256 434 1256 c 0,20,21
 377 1256 377 1256 340 1292 c 0,22,23
 300 1331 300 1331 300 1388 c 128,-1,24
 300 1445 300 1445 340 1482.5 c 128,-1,25
 380 1520 380 1520 434 1520 c 0,13,14
1002 0 m 1,26,-1
 822 0 l 1,27,-1
 822 237 l 1,28,29
 739 -20 739 -20 513 -20 c 0,30,31
 351 -20 351 -20 261 86 c 0,32,33
 180 181 180 181 180 299 c 0,34,35
 180 476 180 476 321 575 c 0,36,37
 431 653 431 653 581 653 c 2,38,-1
 817 653 l 1,39,40
 817 793 817 793 786 852 c 0,41,42
 727 964 727 964 595 964 c 0,43,44
 436 964 436 964 373 834 c 1,45,-1
 258 960 l 1,46,47
 379 1120 379 1120 618 1120 c 0,48,49
 821 1120 821 1120 931 958 c 0,50,51
 1002 853 1002 853 1002 654 c 2,52,-1
 1002 0 l 1,26,-1
822 507 m 1,53,54
 706 507 706 507 584 507 c 0,55,56
 472 507 472 507 408 448 c 0,57,58
 352 396 352 396 352 307 c 0,59,60
 352 240 352 240 396 192 c 0,61,62
 450 133 450 133 549 133 c 0,63,64
 654 133 654 133 722 219 c 1,65,66
 822 343 822 343 822 507 c 1,53,54
EndSplineSet
EndChar

StartChar: aring
Encoding: 164 229 167
Width: 1200
GlyphClass: 2
Flags: W
LayerCount: 2
Fore
SplineSet
1002 0 m 1,0,-1
 822 0 l 1,1,-1
 822 237 l 1,2,3
 739 -20 739 -20 513 -20 c 0,4,5
 351 -20 351 -20 261 86 c 0,6,7
 180 181 180 181 180 299 c 0,8,9
 180 476 180 476 321 575 c 0,10,11
 431 653 431 653 581 653 c 2,12,-1
 817 653 l 1,13,14
 817 793 817 793 786 852 c 0,15,16
 727 964 727 964 595 964 c 0,17,18
 436 964 436 964 373 834 c 1,19,-1
 258 960 l 1,20,21
 379 1120 379 1120 618 1120 c 0,22,23
 821 1120 821 1120 931 958 c 0,24,25
 1002 853 1002 853 1002 654 c 2,26,-1
 1002 0 l 1,0,-1
822 507 m 1,27,28
 706 507 706 507 584 507 c 0,29,30
 472 507 472 507 408 448 c 0,31,32
 352 396 352 396 352 307 c 0,33,34
 352 240 352 240 396 192 c 0,35,36
 450 133 450 133 549 133 c 0,37,38
 654 133 654 133 722 219 c 1,39,40
 822 343 822 343 822 507 c 1,27,28
539 1387 m 0,41,42
 539 1362 539 1362 557 1341 c 0,43,44
 574 1321 574 1321 600 1321 c 0,45,46
 628 1321 628 1321 644 1340 c 0,47,48
 661 1360 661 1360 661 1387 c 0,49,50
 661 1412 661 1412 643 1433 c 0,51,52
 626 1453 626 1453 600 1453 c 128,-1,53
 574 1453 574 1453 556.5 1433.5 c 128,-1,54
 539 1414 539 1414 539 1387 c 0,41,42
429 1386 m 0,55,56
 429 1456 429 1456 479 1504 c 128,-1,57
 529 1552 529 1552 600 1552 c 0,58,59
 672 1552 672 1552 721 1504 c 0,60,61
 771 1455 771 1455 771 1386 c 0,62,63
 771 1316 771 1316 721 1268 c 128,-1,64
 671 1220 671 1220 600 1220 c 128,-1,65
 529 1220 529 1220 479 1268.5 c 128,-1,66
 429 1317 429 1317 429 1386 c 0,55,56
EndSplineSet
EndChar

StartChar: ae
Encoding: 165 230 168
Width: 1200
GlyphClass: 2
Flags: W
LayerCount: 2
Fore
SplineSet
1114 334 m 1,0,1
 1113 165 1113 165 1033 72 c 0,2,3
 954 -20 954 -20 815 -20 c 0,4,5
 729 -20 729 -20 683 0 c 1,6,-1
 515 0 l 1,7,-1
 515 64 l 1,8,9
 472 -20 472 -20 385 -20 c 0,10,11
 242 -20 242 -20 167 72 c 0,12,13
 86 171 86 171 86 335 c 0,14,15
 86 488 86 488 175 594 c 0,16,17
 255 690 255 690 405 690 c 2,18,-1
 525 690 l 1,19,-1
 525 766 l 2,20,21
 525 866 525 866 494 908 c 0,22,23
 452 965 452 965 376 966 c 1,24,25
 299 966 299 966 246 908 c 0,26,27
 226 886 226 886 220 868 c 1,28,-1
 104 965 l 1,29,30
 123 1005 123 1005 146 1030 c 0,31,32
 230 1120 230 1120 385 1120 c 0,33,34
 518 1120 518 1120 602 1007 c 1,35,36
 684 1120 684 1120 815 1120 c 0,37,38
 956 1120 956 1120 1033 1028 c 0,39,40
 1114 931 1114 931 1114 765 c 2,41,-1
 1114 582 l 1,42,-1
 680 388 l 1,43,-1
 680 334 l 2,44,45
 680 245 680 245 706 192 c 0,46,47
 735 133 735 133 815 133 c 0,48,49
 892 133 892 133 930 192 c 0,50,51
 967 250 967 250 967 334 c 1,52,-1
 1114 334 l 1,0,1
680 549 m 1,53,-1
 967 662 l 1,54,-1
 967 765 l 2,55,56
 967 856 967 856 934 905 c 0,57,58
 892 968 892 968 820 968 c 0,59,60
 749 968 749 968 713 914 c 0,61,62
 680 864 680 864 680 765 c 2,63,-1
 680 549 l 1,53,-1
524 537 m 1,64,-1
 405 537 l 2,65,66
 316 537 316 537 274 474 c 0,67,68
 242 426 242 426 242 335 c 0,69,70
 242 243 242 243 274 196 c 0,71,72
 315 134 315 134 394 133 c 1,73,74
 524 133 524 133 524 296 c 2,75,-1
 524 537 l 1,64,-1
EndSplineSet
EndChar

StartChar: ccedilla
Encoding: 166 231 169
Width: 1200
GlyphClass: 2
Flags: W
LayerCount: 2
Fore
SplineSet
1005 334 m 1,0,1
 974 222 974 222 914 140 c 0,2,3
 824 18 824 18 688 -11 c 1,4,5
 715 -64 715 -64 715 -126 c 0,6,7
 715 -320 715 -320 501 -410 c 1,8,-1
 501 -221 l 1,9,10
 583 -182 583 -182 583 -110 c 0,11,12
 583 -59 583 -59 554 -18 c 1,13,14
 392 0 392 0 286 140 c 0,15,16
 170 293 170 293 170 550 c 128,-1,17
 170 807 170 807 286 960 c 0,18,19
 407 1120 407 1120 600 1120 c 0,20,21
 795 1120 795 1120 914 960 c 0,22,23
 974 879 974 879 1005 765 c 1,24,-1
 825 765 l 1,25,26
 814 803 814 803 799 834 c 0,27,28
 737 963 737 963 600 963 c 0,29,30
 464 963 464 963 401 834 c 0,31,32
 350 729 350 729 350 550 c 128,-1,33
 350 371 350 371 401 266 c 0,34,35
 464 137 464 137 600 137 c 0,36,37
 737 137 737 137 799 266 c 0,38,39
 814 297 814 297 825 334 c 1,40,-1
 1005 334 l 1,0,1
EndSplineSet
EndChar

StartChar: egrave
Encoding: 167 232 170
Width: 1200
GlyphClass: 2
Flags: W
LayerCount: 2
Fore
SplineSet
1005 334 m 1,0,1
 974 220 974 220 914 140 c 0,2,3
 794 -20 794 -20 600 -20 c 0,4,5
 407 -20 407 -20 286 140 c 0,6,7
 170 293 170 293 170 550 c 128,-1,8
 170 807 170 807 286 960 c 0,9,10
 407 1120 407 1120 600 1120 c 0,11,12
 792 1120 792 1120 914 960 c 0,13,14
 1022 818 1022 818 1029 586 c 1,15,-1
 362 393 l 1,16,17
 375 320 375 320 401 266 c 0,18,19
 463 137 463 137 600 137 c 128,-1,20
 737 137 737 137 799 266 c 0,21,22
 814 297 814 297 825 334 c 1,23,-1
 1005 334 l 1,0,1
350 550 m 1,24,-1
 840 692 l 1,25,26
 828 775 828 775 799 834 c 0,27,28
 736 963 736 963 600 963 c 128,-1,29
 464 963 464 963 401 834 c 0,30,31
 350 729 350 729 350 550 c 1,24,-1
496 1528 m 1,32,-1
 656 1214 l 1,33,-1
 546 1150 l 1,34,-1
 334 1434 l 1,35,-1
 496 1528 l 1,32,-1
EndSplineSet
EndChar

StartChar: eacute
Encoding: 168 233 171
Width: 1200
GlyphClass: 2
Flags: W
LayerCount: 2
Fore
SplineSet
1005 334 m 1,0,1
 974 220 974 220 914 140 c 0,2,3
 794 -20 794 -20 600 -20 c 0,4,5
 407 -20 407 -20 286 140 c 0,6,7
 170 293 170 293 170 550 c 128,-1,8
 170 807 170 807 286 960 c 0,9,10
 407 1120 407 1120 600 1120 c 0,11,12
 792 1120 792 1120 914 960 c 0,13,14
 1022 818 1022 818 1029 586 c 1,15,-1
 362 393 l 1,16,17
 375 320 375 320 401 266 c 0,18,19
 463 137 463 137 600 137 c 128,-1,20
 737 137 737 137 799 266 c 0,21,22
 814 297 814 297 825 334 c 1,23,-1
 1005 334 l 1,0,1
350 550 m 1,24,-1
 840 692 l 1,25,26
 828 775 828 775 799 834 c 0,27,28
 736 963 736 963 600 963 c 128,-1,29
 464 963 464 963 401 834 c 0,30,31
 350 729 350 729 350 550 c 1,24,-1
706 1528 m 1,32,-1
 868 1434 l 1,33,-1
 656 1150 l 1,34,-1
 546 1214 l 1,35,-1
 706 1528 l 1,32,-1
EndSplineSet
EndChar

StartChar: ecircumflex
Encoding: 169 234 172
Width: 1200
GlyphClass: 2
Flags: W
LayerCount: 2
Fore
SplineSet
338 1244 m 1,0,-1
 550 1528 l 1,1,-1
 656 1528 l 1,2,-1
 868 1244 l 1,3,-1
 757 1172 l 1,4,-1
 603 1364 l 1,5,-1
 447 1172 l 1,6,-1
 338 1244 l 1,0,-1
1005 334 m 1,7,8
 974 220 974 220 914 140 c 0,9,10
 794 -20 794 -20 600 -20 c 0,11,12
 407 -20 407 -20 286 140 c 0,13,14
 170 293 170 293 170 550 c 128,-1,15
 170 807 170 807 286 960 c 0,16,17
 407 1120 407 1120 600 1120 c 0,18,19
 792 1120 792 1120 914 960 c 0,20,21
 1022 818 1022 818 1029 586 c 1,22,-1
 362 393 l 1,23,24
 375 320 375 320 401 266 c 0,25,26
 463 137 463 137 600 137 c 128,-1,27
 737 137 737 137 799 266 c 0,28,29
 814 297 814 297 825 334 c 1,30,-1
 1005 334 l 1,7,8
350 550 m 1,31,-1
 840 692 l 1,32,33
 828 775 828 775 799 834 c 0,34,35
 736 963 736 963 600 963 c 128,-1,36
 464 963 464 963 401 834 c 0,37,38
 350 729 350 729 350 550 c 1,31,-1
EndSplineSet
EndChar

StartChar: edieresis
Encoding: 170 235 173
Width: 1200
GlyphClass: 2
Flags: W
LayerCount: 2
Fore
SplineSet
766 1520 m 0,0,1
 825 1520 825 1520 860 1484 c 0,2,3
 900 1443 900 1443 900 1388 c 128,-1,4
 900 1333 900 1333 860 1294 c 0,5,6
 821 1256 821 1256 766 1256 c 0,7,8
 709 1256 709 1256 672 1292 c 0,9,10
 632 1331 632 1331 632 1388 c 128,-1,11
 632 1445 632 1445 672 1482.5 c 128,-1,12
 712 1520 712 1520 766 1520 c 0,0,1
434 1520 m 0,13,14
 493 1520 493 1520 528 1484 c 0,15,16
 568 1443 568 1443 568 1388 c 128,-1,17
 568 1333 568 1333 528 1294 c 0,18,19
 489 1256 489 1256 434 1256 c 0,20,21
 377 1256 377 1256 340 1292 c 0,22,23
 300 1331 300 1331 300 1388 c 128,-1,24
 300 1445 300 1445 340 1482.5 c 128,-1,25
 380 1520 380 1520 434 1520 c 0,13,14
1005 334 m 1,26,27
 974 220 974 220 914 140 c 0,28,29
 794 -20 794 -20 600 -20 c 0,30,31
 407 -20 407 -20 286 140 c 0,32,33
 170 293 170 293 170 550 c 128,-1,34
 170 807 170 807 286 960 c 0,35,36
 407 1120 407 1120 600 1120 c 0,37,38
 792 1120 792 1120 914 960 c 0,39,40
 1022 818 1022 818 1029 586 c 1,41,-1
 362 393 l 1,42,43
 375 320 375 320 401 266 c 0,44,45
 463 137 463 137 600 137 c 128,-1,46
 737 137 737 137 799 266 c 0,47,48
 814 297 814 297 825 334 c 1,49,-1
 1005 334 l 1,26,27
350 550 m 1,50,-1
 840 692 l 1,51,52
 828 775 828 775 799 834 c 0,53,54
 736 963 736 963 600 963 c 128,-1,55
 464 963 464 963 401 834 c 0,56,57
 350 729 350 729 350 550 c 1,50,-1
EndSplineSet
EndChar

StartChar: igrave
Encoding: 171 236 174
Width: 1200
GlyphClass: 2
Flags: W
LayerCount: 2
Fore
SplineSet
1150 97 m 1,0,1
 1050 -20 1050 -20 875 -20 c 0,2,3
 697 -20 697 -20 601 92 c 0,4,5
 510 198 510 198 510 401 c 2,6,-1
 510 940 l 1,7,-1
 186 940 l 1,8,-1
 186 1100 l 1,9,-1
 690 1100 l 1,10,-1
 690 401 l 2,11,12
 690 261 690 261 741 195 c 0,13,14
 789 133 789 133 885 133 c 0,15,16
 986 133 986 133 1058 219 c 1,17,-1
 1150 97 l 1,0,1
496 1528 m 1,18,-1
 656 1214 l 1,19,-1
 546 1150 l 1,20,-1
 334 1434 l 1,21,-1
 496 1528 l 1,18,-1
EndSplineSet
EndChar

StartChar: iacute
Encoding: 172 237 175
Width: 1200
GlyphClass: 2
Flags: W
LayerCount: 2
Fore
SplineSet
1150 97 m 1,0,1
 1050 -20 1050 -20 875 -20 c 0,2,3
 697 -20 697 -20 601 92 c 0,4,5
 510 198 510 198 510 401 c 2,6,-1
 510 940 l 1,7,-1
 186 940 l 1,8,-1
 186 1100 l 1,9,-1
 690 1100 l 1,10,-1
 690 401 l 2,11,12
 690 261 690 261 741 195 c 0,13,14
 789 133 789 133 885 133 c 0,15,16
 986 133 986 133 1058 219 c 1,17,-1
 1150 97 l 1,0,1
706 1528 m 1,18,-1
 868 1434 l 1,19,-1
 656 1150 l 1,20,-1
 546 1214 l 1,21,-1
 706 1528 l 1,18,-1
EndSplineSet
EndChar

StartChar: icircumflex
Encoding: 173 238 176
Width: 1200
GlyphClass: 2
Flags: W
LayerCount: 2
Fore
SplineSet
263 1244 m 1,0,-1
 475 1528 l 1,1,-1
 581 1528 l 1,2,-1
 793 1244 l 1,3,-1
 682 1172 l 1,4,-1
 528 1364 l 1,5,-1
 372 1172 l 1,6,-1
 263 1244 l 1,0,-1
1150 97 m 1,7,8
 1050 -20 1050 -20 875 -20 c 0,9,10
 697 -20 697 -20 601 92 c 0,11,12
 510 198 510 198 510 401 c 2,13,-1
 510 940 l 1,14,-1
 186 940 l 1,15,-1
 186 1100 l 1,16,-1
 690 1100 l 1,17,-1
 690 401 l 2,18,19
 690 261 690 261 741 195 c 0,20,21
 789 133 789 133 885 133 c 0,22,23
 986 133 986 133 1058 219 c 1,24,-1
 1150 97 l 1,7,8
EndSplineSet
EndChar

StartChar: idieresis
Encoding: 174 239 177
Width: 1200
GlyphClass: 2
Flags: W
LayerCount: 2
Fore
SplineSet
678 1520 m 0,0,1
 737 1520 737 1520 772 1484 c 0,2,3
 812 1443 812 1443 812 1388 c 128,-1,4
 812 1333 812 1333 772 1294 c 0,5,6
 733 1256 733 1256 678 1256 c 0,7,8
 621 1256 621 1256 584 1292 c 0,9,10
 544 1331 544 1331 544 1388 c 128,-1,11
 544 1445 544 1445 584 1482.5 c 128,-1,12
 624 1520 624 1520 678 1520 c 0,0,1
346 1520 m 0,13,14
 405 1520 405 1520 440 1484 c 0,15,16
 480 1443 480 1443 480 1388 c 128,-1,17
 480 1333 480 1333 440 1294 c 0,18,19
 401 1256 401 1256 346 1256 c 0,20,21
 289 1256 289 1256 252 1292 c 0,22,23
 212 1331 212 1331 212 1388 c 128,-1,24
 212 1445 212 1445 252 1482.5 c 128,-1,25
 292 1520 292 1520 346 1520 c 0,13,14
1150 97 m 1,26,27
 1050 -20 1050 -20 875 -20 c 0,28,29
 697 -20 697 -20 601 92 c 0,30,31
 510 198 510 198 510 401 c 2,32,-1
 510 940 l 1,33,-1
 186 940 l 1,34,-1
 186 1100 l 1,35,-1
 690 1100 l 1,36,-1
 690 401 l 2,37,38
 690 261 690 261 741 195 c 0,39,40
 789 133 789 133 885 133 c 0,41,42
 986 133 986 133 1058 219 c 1,43,-1
 1150 97 l 1,26,27
EndSplineSet
EndChar

StartChar: eth
Encoding: 175 240 178
Width: 1200
GlyphClass: 2
Flags: W
LayerCount: 2
Fore
SplineSet
352 1459 m 1,0,1
 449 1520 449 1520 580 1520 c 0,2,3
 740 1520 740 1520 849 1429 c 1,4,-1
 1017 1564 l 1,5,-1
 1110 1462 l 1,6,-1
 939 1325 l 1,7,8
 952 1305 952 1305 964 1283 c 0,9,10
 1070 1089 1070 1089 1070 750 c 0,11,12
 1070 417 1070 417 964 217 c 0,13,14
 838 -20 838 -20 580 -20 c 0,15,16
 366 -20 366 -20 245 138 c 0,17,18
 130 288 130 288 130 491 c 0,19,20
 130 704 130 704 260 849 c 1,21,22
 386 988 386 988 574 988 c 0,23,24
 799 988 799 988 902 697 c 1,25,26
 902 1080 902 1080 832 1208 c 0,27,28
 826 1219 826 1219 820 1229 c 1,29,-1
 624 1072 l 1,30,-1
 531 1174 l 1,31,-1
 729 1333 l 1,32,33
 665 1380 665 1380 584 1380 c 0,34,35
 494 1380 494 1380 434 1332 c 1,36,-1
 352 1459 l 1,0,1
580 133 m 0,37,38
 705 133 705 133 784 251 c 0,39,40
 850 350 850 350 850 488 c 0,41,42
 850 636 850 636 772 735 c 0,43,44
 693 835 693 835 580 835 c 128,-1,45
 467 835 467 835 388 735 c 0,46,47
 310 636 310 636 310 488 c 0,48,49
 310 353 310 353 376 251 c 0,50,51
 452 133 452 133 580 133 c 0,37,38
EndSplineSet
EndChar

StartChar: ntilde
Encoding: 176 241 179
Width: 1200
GlyphClass: 2
Flags: W
LayerCount: 2
Fore
SplineSet
342 1298 m 1,0,1
 367 1525 367 1525 515 1525 c 0,2,3
 592 1525 592 1525 634 1455 c 0,4,5
 670 1395 670 1395 689 1395 c 0,6,7
 743 1395 743 1395 757 1484 c 1,8,-1
 860 1484 l 1,9,10
 835 1257 835 1257 687 1257 c 0,11,12
 610 1257 610 1257 567 1334 c 0,13,14
 535 1391 535 1391 515 1391 c 0,15,16
 461 1391 461 1391 445 1298 c 1,17,-1
 342 1298 l 1,0,1
186 0 m 1,18,-1
 186 1100 l 1,19,-1
 366 1100 l 1,20,-1
 366 863 l 1,21,22
 451 1120 451 1120 683 1120 c 0,23,24
 825 1120 825 1120 923 1008 c 0,25,26
 1014 904 1014 904 1014 699 c 2,27,-1
 1014 0 l 1,28,-1
 834 0 l 1,29,-1
 834 699 l 2,30,31
 834 840 834 840 783 905 c 0,32,33
 735 967 735 967 639 967 c 0,34,35
 538 967 538 967 466 881 c 0,36,37
 366 762 366 762 366 592 c 2,38,-1
 366 0 l 1,39,-1
 186 0 l 1,18,-1
EndSplineSet
EndChar

StartChar: ograve
Encoding: 177 242 180
Width: 1200
GlyphClass: 2
Flags: W
LayerCount: 2
Fore
SplineSet
600 137 m 128,-1,1
 736 137 736 137 799 266 c 0,2,3
 850 371 850 371 850 550 c 128,-1,4
 850 729 850 729 799 834 c 0,5,6
 736 963 736 963 600 963 c 128,-1,7
 464 963 464 963 401 834 c 0,8,9
 350 729 350 729 350 550 c 128,-1,10
 350 371 350 371 401 266 c 0,11,0
 464 137 464 137 600 137 c 128,-1,1
600 -20 m 128,-1,13
 407 -20 407 -20 286 140 c 0,14,15
 170 293 170 293 170 550 c 128,-1,16
 170 807 170 807 286 960 c 0,17,18
 407 1120 407 1120 600 1120 c 128,-1,19
 793 1120 793 1120 914 960 c 0,20,21
 1030 807 1030 807 1030 550 c 128,-1,22
 1030 293 1030 293 914 140 c 0,23,12
 793 -20 793 -20 600 -20 c 128,-1,13
496 1528 m 1,24,-1
 656 1214 l 1,25,-1
 546 1150 l 1,26,-1
 334 1434 l 1,27,-1
 496 1528 l 1,24,-1
EndSplineSet
EndChar

StartChar: oacute
Encoding: 178 243 181
Width: 1200
GlyphClass: 2
Flags: W
LayerCount: 2
Fore
SplineSet
600 137 m 128,-1,1
 736 137 736 137 799 266 c 0,2,3
 850 371 850 371 850 550 c 128,-1,4
 850 729 850 729 799 834 c 0,5,6
 736 963 736 963 600 963 c 128,-1,7
 464 963 464 963 401 834 c 0,8,9
 350 729 350 729 350 550 c 128,-1,10
 350 371 350 371 401 266 c 0,11,0
 464 137 464 137 600 137 c 128,-1,1
600 -20 m 128,-1,13
 407 -20 407 -20 286 140 c 0,14,15
 170 293 170 293 170 550 c 128,-1,16
 170 807 170 807 286 960 c 0,17,18
 407 1120 407 1120 600 1120 c 128,-1,19
 793 1120 793 1120 914 960 c 0,20,21
 1030 807 1030 807 1030 550 c 128,-1,22
 1030 293 1030 293 914 140 c 0,23,12
 793 -20 793 -20 600 -20 c 128,-1,13
706 1528 m 1,24,-1
 868 1434 l 1,25,-1
 656 1150 l 1,26,-1
 546 1214 l 1,27,-1
 706 1528 l 1,24,-1
EndSplineSet
EndChar

StartChar: ocircumflex
Encoding: 179 244 182
Width: 1200
GlyphClass: 2
Flags: W
LayerCount: 2
Fore
SplineSet
338 1244 m 1,0,-1
 550 1528 l 1,1,-1
 656 1528 l 1,2,-1
 868 1244 l 1,3,-1
 757 1172 l 1,4,-1
 603 1364 l 1,5,-1
 447 1172 l 1,6,-1
 338 1244 l 1,0,-1
600 137 m 128,-1,8
 736 137 736 137 799 266 c 0,9,10
 850 371 850 371 850 550 c 128,-1,11
 850 729 850 729 799 834 c 0,12,13
 736 963 736 963 600 963 c 128,-1,14
 464 963 464 963 401 834 c 0,15,16
 350 729 350 729 350 550 c 128,-1,17
 350 371 350 371 401 266 c 0,18,7
 464 137 464 137 600 137 c 128,-1,8
600 -20 m 128,-1,20
 407 -20 407 -20 286 140 c 0,21,22
 170 293 170 293 170 550 c 128,-1,23
 170 807 170 807 286 960 c 0,24,25
 407 1120 407 1120 600 1120 c 128,-1,26
 793 1120 793 1120 914 960 c 0,27,28
 1030 807 1030 807 1030 550 c 128,-1,29
 1030 293 1030 293 914 140 c 0,30,19
 793 -20 793 -20 600 -20 c 128,-1,20
EndSplineSet
EndChar

StartChar: otilde
Encoding: 180 245 183
Width: 1200
GlyphClass: 2
Flags: W
LayerCount: 2
Fore
SplineSet
342 1298 m 1,0,1
 367 1525 367 1525 515 1525 c 0,2,3
 592 1525 592 1525 634 1455 c 0,4,5
 670 1395 670 1395 689 1395 c 0,6,7
 743 1395 743 1395 757 1484 c 1,8,-1
 860 1484 l 1,9,10
 835 1257 835 1257 687 1257 c 0,11,12
 610 1257 610 1257 567 1334 c 0,13,14
 535 1391 535 1391 515 1391 c 0,15,16
 461 1391 461 1391 445 1298 c 1,17,-1
 342 1298 l 1,0,1
600 137 m 128,-1,19
 736 137 736 137 799 266 c 0,20,21
 850 371 850 371 850 550 c 128,-1,22
 850 729 850 729 799 834 c 0,23,24
 736 963 736 963 600 963 c 128,-1,25
 464 963 464 963 401 834 c 0,26,27
 350 729 350 729 350 550 c 128,-1,28
 350 371 350 371 401 266 c 0,29,18
 464 137 464 137 600 137 c 128,-1,19
600 -20 m 128,-1,31
 407 -20 407 -20 286 140 c 0,32,33
 170 293 170 293 170 550 c 128,-1,34
 170 807 170 807 286 960 c 0,35,36
 407 1120 407 1120 600 1120 c 128,-1,37
 793 1120 793 1120 914 960 c 0,38,39
 1030 807 1030 807 1030 550 c 128,-1,40
 1030 293 1030 293 914 140 c 0,41,30
 793 -20 793 -20 600 -20 c 128,-1,31
EndSplineSet
EndChar

StartChar: odieresis
Encoding: 181 246 184
Width: 1200
GlyphClass: 2
Flags: W
LayerCount: 2
Fore
SplineSet
766 1520 m 0,0,1
 825 1520 825 1520 860 1484 c 0,2,3
 900 1443 900 1443 900 1388 c 128,-1,4
 900 1333 900 1333 860 1294 c 0,5,6
 821 1256 821 1256 766 1256 c 0,7,8
 709 1256 709 1256 672 1292 c 0,9,10
 632 1331 632 1331 632 1388 c 128,-1,11
 632 1445 632 1445 672 1482.5 c 128,-1,12
 712 1520 712 1520 766 1520 c 0,0,1
434 1520 m 0,13,14
 493 1520 493 1520 528 1484 c 0,15,16
 568 1443 568 1443 568 1388 c 128,-1,17
 568 1333 568 1333 528 1294 c 0,18,19
 489 1256 489 1256 434 1256 c 0,20,21
 377 1256 377 1256 340 1292 c 0,22,23
 300 1331 300 1331 300 1388 c 128,-1,24
 300 1445 300 1445 340 1482.5 c 128,-1,25
 380 1520 380 1520 434 1520 c 0,13,14
600 137 m 128,-1,27
 736 137 736 137 799 266 c 0,28,29
 850 371 850 371 850 550 c 128,-1,30
 850 729 850 729 799 834 c 0,31,32
 736 963 736 963 600 963 c 128,-1,33
 464 963 464 963 401 834 c 0,34,35
 350 729 350 729 350 550 c 128,-1,36
 350 371 350 371 401 266 c 0,37,26
 464 137 464 137 600 137 c 128,-1,27
600 -20 m 128,-1,39
 407 -20 407 -20 286 140 c 0,40,41
 170 293 170 293 170 550 c 128,-1,42
 170 807 170 807 286 960 c 0,43,44
 407 1120 407 1120 600 1120 c 128,-1,45
 793 1120 793 1120 914 960 c 0,46,47
 1030 807 1030 807 1030 550 c 128,-1,48
 1030 293 1030 293 914 140 c 0,49,38
 793 -20 793 -20 600 -20 c 128,-1,39
EndSplineSet
EndChar

StartChar: divide
Encoding: 182 247 185
Width: 1200
GlyphClass: 2
Flags: W
LayerCount: 2
Fore
SplineSet
600 1192 m 0,0,1
 659 1192 659 1192 694 1156 c 0,2,3
 734 1115 734 1115 734 1060 c 128,-1,4
 734 1005 734 1005 694 966 c 0,5,6
 655 928 655 928 600 928 c 0,7,8
 543 928 543 928 506 964 c 0,9,10
 466 1003 466 1003 466 1060 c 128,-1,11
 466 1117 466 1117 506 1154.5 c 128,-1,12
 546 1192 546 1192 600 1192 c 0,0,1
600 556 m 0,13,14
 659 556 659 556 694 520 c 0,15,16
 734 479 734 479 734 424 c 128,-1,17
 734 369 734 369 694 330 c 0,18,19
 655 292 655 292 600 292 c 0,20,21
 543 292 543 292 506 328 c 0,22,23
 466 367 466 367 466 424 c 128,-1,24
 466 481 466 481 506 518.5 c 128,-1,25
 546 556 546 556 600 556 c 0,13,14
186 670 m 1,26,-1
 186 830 l 1,27,-1
 1014 830 l 1,28,-1
 1014 670 l 1,29,-1
 186 670 l 1,26,-1
EndSplineSet
EndChar

StartChar: oslash
Encoding: 183 248 186
Width: 1200
GlyphClass: 2
Flags: W
LayerCount: 2
Fore
SplineSet
237 0 m 1,0,-1
 302 121 l 1,1,2
 294 130 294 130 286 140 c 0,3,4
 170 285 170 285 170 550 c 0,5,6
 170 807 170 807 286 960 c 0,7,8
 407 1120 407 1120 600 1120 c 0,9,10
 716 1120 716 1120 806 1062 c 1,11,-1
 826 1100 l 1,12,-1
 963 1100 l 1,13,-1
 899 979 l 1,14,15
 906 970 906 970 914 960 c 0,16,17
 1030 815 1030 815 1030 550 c 0,18,19
 1030 293 1030 293 914 140 c 0,20,21
 793 -20 793 -20 600 -20 c 0,22,23
 485 -20 485 -20 396 37 c 1,24,-1
 376 0 l 1,25,-1
 237 0 l 1,0,-1
600 137 m 0,26,27
 736 137 736 137 799 266 c 0,28,29
 850 370 850 370 850 550 c 0,30,31
 850 710 850 710 809 811 c 1,32,-1
 471 177 l 1,33,34
 524 137 524 137 600 137 c 0,26,27
391 288 m 1,35,-1
 731 922 l 1,36,37
 677 963 677 963 600 963 c 0,38,39
 464 963 464 963 401 834 c 0,40,41
 350 729 350 729 350 550 c 0,42,43
 350 389 350 389 391 288 c 1,35,-1
EndSplineSet
EndChar

StartChar: ugrave
Encoding: 184 249 187
Width: 1200
GlyphClass: 2
Flags: W
LayerCount: 2
Fore
SplineSet
1014 0 m 1,0,-1
 834 0 l 1,1,-1
 834 237 l 1,2,3
 749 -20 749 -20 517 -20 c 0,4,5
 375 -20 375 -20 277 92 c 0,6,7
 186 196 186 196 186 401 c 2,8,-1
 186 1100 l 1,9,-1
 366 1100 l 1,10,-1
 366 401 l 2,11,12
 366 260 366 260 417 195 c 0,13,14
 465 133 465 133 561 133 c 0,15,16
 662 133 662 133 734 219 c 0,17,18
 834 338 834 338 834 508 c 2,19,-1
 834 1100 l 1,20,-1
 1014 1100 l 1,21,-1
 1014 0 l 1,0,-1
496 1528 m 1,22,-1
 656 1214 l 1,23,-1
 546 1150 l 1,24,-1
 334 1434 l 1,25,-1
 496 1528 l 1,22,-1
EndSplineSet
EndChar

StartChar: uacute
Encoding: 185 250 188
Width: 1200
GlyphClass: 2
Flags: W
LayerCount: 2
Fore
SplineSet
1014 0 m 1,0,-1
 834 0 l 1,1,-1
 834 237 l 1,2,3
 749 -20 749 -20 517 -20 c 0,4,5
 375 -20 375 -20 277 92 c 0,6,7
 186 196 186 196 186 401 c 2,8,-1
 186 1100 l 1,9,-1
 366 1100 l 1,10,-1
 366 401 l 2,11,12
 366 260 366 260 417 195 c 0,13,14
 465 133 465 133 561 133 c 0,15,16
 662 133 662 133 734 219 c 0,17,18
 834 338 834 338 834 508 c 2,19,-1
 834 1100 l 1,20,-1
 1014 1100 l 1,21,-1
 1014 0 l 1,0,-1
706 1528 m 1,22,-1
 868 1434 l 1,23,-1
 656 1150 l 1,24,-1
 546 1214 l 1,25,-1
 706 1528 l 1,22,-1
EndSplineSet
EndChar

StartChar: ucircumflex
Encoding: 186 251 189
Width: 1200
GlyphClass: 2
Flags: W
LayerCount: 2
Fore
SplineSet
338 1244 m 1,0,-1
 550 1528 l 1,1,-1
 656 1528 l 1,2,-1
 868 1244 l 1,3,-1
 757 1172 l 1,4,-1
 603 1364 l 1,5,-1
 447 1172 l 1,6,-1
 338 1244 l 1,0,-1
1014 0 m 1,7,-1
 834 0 l 1,8,-1
 834 237 l 1,9,10
 749 -20 749 -20 517 -20 c 0,11,12
 375 -20 375 -20 277 92 c 0,13,14
 186 196 186 196 186 401 c 2,15,-1
 186 1100 l 1,16,-1
 366 1100 l 1,17,-1
 366 401 l 2,18,19
 366 260 366 260 417 195 c 0,20,21
 465 133 465 133 561 133 c 0,22,23
 662 133 662 133 734 219 c 0,24,25
 834 338 834 338 834 508 c 2,26,-1
 834 1100 l 1,27,-1
 1014 1100 l 1,28,-1
 1014 0 l 1,7,-1
EndSplineSet
EndChar

StartChar: udieresis
Encoding: 187 252 190
Width: 1200
GlyphClass: 2
Flags: W
LayerCount: 2
Fore
SplineSet
766 1520 m 0,0,1
 825 1520 825 1520 860 1484 c 0,2,3
 900 1443 900 1443 900 1388 c 128,-1,4
 900 1333 900 1333 860 1294 c 0,5,6
 821 1256 821 1256 766 1256 c 0,7,8
 709 1256 709 1256 672 1292 c 0,9,10
 632 1331 632 1331 632 1388 c 128,-1,11
 632 1445 632 1445 672 1482.5 c 128,-1,12
 712 1520 712 1520 766 1520 c 0,0,1
434 1520 m 0,13,14
 493 1520 493 1520 528 1484 c 0,15,16
 568 1443 568 1443 568 1388 c 128,-1,17
 568 1333 568 1333 528 1294 c 0,18,19
 489 1256 489 1256 434 1256 c 0,20,21
 377 1256 377 1256 340 1292 c 0,22,23
 300 1331 300 1331 300 1388 c 128,-1,24
 300 1445 300 1445 340 1482.5 c 128,-1,25
 380 1520 380 1520 434 1520 c 0,13,14
1014 0 m 1,26,-1
 834 0 l 1,27,-1
 834 237 l 1,28,29
 749 -20 749 -20 517 -20 c 0,30,31
 375 -20 375 -20 277 92 c 0,32,33
 186 196 186 196 186 401 c 2,34,-1
 186 1100 l 1,35,-1
 366 1100 l 1,36,-1
 366 401 l 2,37,38
 366 260 366 260 417 195 c 0,39,40
 465 133 465 133 561 133 c 0,41,42
 662 133 662 133 734 219 c 0,43,44
 834 338 834 338 834 508 c 2,45,-1
 834 1100 l 1,46,-1
 1014 1100 l 1,47,-1
 1014 0 l 1,26,-1
EndSplineSet
EndChar

StartChar: yacute
Encoding: 188 253 191
Width: 1200
GlyphClass: 2
Flags: W
LayerCount: 2
Fore
SplineSet
517 -20 m 0,0,1
 375 -20 375 -20 277 92 c 0,2,3
 186 196 186 196 186 401 c 2,4,-1
 186 1100 l 1,5,-1
 366 1100 l 1,6,-1
 366 401 l 2,7,8
 366 260 366 260 417 195 c 0,9,10
 465 133 465 133 561 133 c 0,11,12
 662 133 662 133 734 219 c 0,13,14
 834 338 834 338 834 508 c 2,15,-1
 834 1100 l 1,16,-1
 1014 1100 l 1,17,-1
 1014 150 l 2,18,19
 1014 -111 1014 -111 898 -260 c 0,20,21
 773 -420 773 -420 579 -420 c 0,22,23
 389 -420 389 -420 264 -252 c 1,24,-1
 401 -163 l 1,25,26
 464 -263 464 -263 584 -263 c 0,27,28
 720 -263 720 -263 783 -134 c 0,29,30
 834 -29 834 -29 834 150 c 2,31,-1
 834 237 l 1,32,33
 749 -20 749 -20 517 -20 c 0,0,1
706 1528 m 1,34,-1
 868 1434 l 1,35,-1
 656 1150 l 1,36,-1
 546 1214 l 1,37,-1
 706 1528 l 1,34,-1
EndSplineSet
EndChar

StartChar: thorn
Encoding: 189 254 192
Width: 1200
GlyphClass: 2
Flags: W
LayerCount: 2
Fore
SplineSet
600 963 m 0,0,1
 478 963 478 963 415 834 c 0,2,3
 364 729 364 729 364 550 c 128,-1,4
 364 371 364 371 415 266 c 0,5,6
 478 137 478 137 600 137 c 0,7,8
 736 137 736 137 799 266 c 0,9,10
 850 371 850 371 850 550 c 128,-1,11
 850 729 850 729 799 834 c 0,12,13
 736 963 736 963 600 963 c 0,0,1
196 1500 m 1,14,-1
 366 1500 l 1,15,-1
 366 962 l 1,16,17
 422 1120 422 1120 600 1120 c 0,18,19
 793 1120 793 1120 914 960 c 0,20,21
 1030 807 1030 807 1030 550 c 128,-1,22
 1030 293 1030 293 914 140 c 0,23,24
 793 -20 793 -20 600 -20 c 0,25,26
 435 -20 435 -20 366 138 c 1,27,-1
 366 -400 l 1,28,-1
 196 -400 l 1,29,-1
 196 1500 l 1,14,-1
EndSplineSet
EndChar

StartChar: ydieresis
Encoding: 190 255 193
Width: 1200
GlyphClass: 2
Flags: W
LayerCount: 2
Fore
SplineSet
766 1520 m 0,0,1
 825 1520 825 1520 860 1484 c 0,2,3
 900 1443 900 1443 900 1388 c 128,-1,4
 900 1333 900 1333 860 1294 c 0,5,6
 821 1256 821 1256 766 1256 c 0,7,8
 709 1256 709 1256 672 1292 c 0,9,10
 632 1331 632 1331 632 1388 c 128,-1,11
 632 1445 632 1445 672 1482.5 c 128,-1,12
 712 1520 712 1520 766 1520 c 0,0,1
434 1520 m 0,13,14
 493 1520 493 1520 528 1484 c 0,15,16
 568 1443 568 1443 568 1388 c 128,-1,17
 568 1333 568 1333 528 1294 c 0,18,19
 489 1256 489 1256 434 1256 c 0,20,21
 377 1256 377 1256 340 1292 c 0,22,23
 300 1331 300 1331 300 1388 c 128,-1,24
 300 1445 300 1445 340 1482.5 c 128,-1,25
 380 1520 380 1520 434 1520 c 0,13,14
517 -20 m 0,26,27
 375 -20 375 -20 277 92 c 0,28,29
 186 196 186 196 186 401 c 2,30,-1
 186 1100 l 1,31,-1
 366 1100 l 1,32,-1
 366 401 l 2,33,34
 366 260 366 260 417 195 c 0,35,36
 465 133 465 133 561 133 c 0,37,38
 662 133 662 133 734 219 c 0,39,40
 834 338 834 338 834 508 c 2,41,-1
 834 1100 l 1,42,-1
 1014 1100 l 1,43,-1
 1014 150 l 2,44,45
 1014 -111 1014 -111 898 -260 c 0,46,47
 773 -420 773 -420 579 -420 c 0,48,49
 389 -420 389 -420 264 -252 c 1,50,-1
 401 -163 l 1,51,52
 464 -263 464 -263 584 -263 c 0,53,54
 720 -263 720 -263 783 -134 c 0,55,56
 834 -29 834 -29 834 150 c 2,57,-1
 834 237 l 1,58,59
 749 -20 749 -20 517 -20 c 0,26,27
EndSplineSet
EndChar

StartChar: Amacron
Encoding: 191 256 194
Width: 1200
GlyphClass: 2
Flags: W
LayerCount: 2
Fore
SplineSet
50 0 m 1,0,1
 184 720 184 720 510 1500 c 1,2,-1
 690 1500 l 1,3,4
 1028 720 1028 720 1150 0 c 1,5,-1
 970 0 l 1,6,7
 913 341 913 341 820 670 c 1,8,-1
 381 670 l 1,9,10
 290 345 290 345 230 0 c 1,11,-1
 50 0 l 1,0,1
429 830 m 1,12,-1
 772 830 l 1,13,14
 696 1074 696 1074 600 1310 c 1,15,16
 505 1076 505 1076 429 830 c 1,12,-1
370 1670 m 1,17,-1
 370 1830 l 1,18,-1
 838 1830 l 1,19,-1
 838 1670 l 1,20,-1
 370 1670 l 1,17,-1
EndSplineSet
EndChar

StartChar: amacron
Encoding: 192 257 195
Width: 1200
GlyphClass: 2
Flags: W
LayerCount: 2
Fore
SplineSet
1002 0 m 1,0,-1
 822 0 l 1,1,-1
 822 237 l 1,2,3
 739 -20 739 -20 513 -20 c 0,4,5
 351 -20 351 -20 261 86 c 0,6,7
 180 181 180 181 180 299 c 0,8,9
 180 476 180 476 321 575 c 0,10,11
 431 653 431 653 581 653 c 2,12,-1
 817 653 l 1,13,14
 817 793 817 793 786 852 c 0,15,16
 727 964 727 964 595 964 c 0,17,18
 436 964 436 964 373 834 c 1,19,-1
 258 960 l 1,20,21
 379 1120 379 1120 618 1120 c 0,22,23
 821 1120 821 1120 931 958 c 0,24,25
 1002 853 1002 853 1002 654 c 2,26,-1
 1002 0 l 1,0,-1
822 507 m 1,27,28
 706 507 706 507 584 507 c 0,29,30
 472 507 472 507 408 448 c 0,31,32
 352 396 352 396 352 307 c 0,33,34
 352 240 352 240 396 192 c 0,35,36
 450 133 450 133 549 133 c 0,37,38
 654 133 654 133 722 219 c 1,39,40
 822 343 822 343 822 507 c 1,27,28
366 1310 m 1,41,-1
 366 1470 l 1,42,-1
 834 1470 l 1,43,-1
 834 1310 l 1,44,-1
 366 1310 l 1,41,-1
EndSplineSet
EndChar

StartChar: Abreve
Encoding: 193 258 196
Width: 1200
GlyphClass: 2
Flags: W
LayerCount: 2
Fore
SplineSet
50 0 m 1,0,1
 184 720 184 720 510 1500 c 1,2,-1
 690 1500 l 1,3,4
 1028 720 1028 720 1150 0 c 1,5,-1
 970 0 l 1,6,7
 913 341 913 341 820 670 c 1,8,-1
 381 670 l 1,9,10
 290 345 290 345 230 0 c 1,11,-1
 50 0 l 1,0,1
429 830 m 1,12,-1
 772 830 l 1,13,14
 696 1074 696 1074 600 1310 c 1,15,16
 505 1076 505 1076 429 830 c 1,12,-1
306 1861 m 1,17,18
 306 1861 306 1861 443 1861 c 1,19,20
 506 1784 506 1784 592 1784 c 0,21,22
 693 1784 693 1784 746 1861 c 1,23,-1
 880 1861 l 1,24,25
 779 1632 779 1632 592 1632 c 0,26,27
 398 1632 398 1632 306 1861 c 1,17,18
EndSplineSet
EndChar

StartChar: abreve
Encoding: 194 259 197
Width: 1200
GlyphClass: 2
Flags: W
LayerCount: 2
Fore
SplineSet
314 1488 m 1,0,-1
 451 1488 l 1,1,2
 514 1411 514 1411 600 1411 c 0,3,4
 701 1411 701 1411 754 1488 c 1,5,-1
 888 1488 l 1,6,7
 787 1259 787 1259 600 1259 c 0,8,9
 406 1259 406 1259 314 1488 c 1,0,-1
1002 0 m 1,10,-1
 822 0 l 1,11,-1
 822 237 l 1,12,13
 739 -20 739 -20 513 -20 c 0,14,15
 351 -20 351 -20 261 86 c 0,16,17
 180 181 180 181 180 299 c 0,18,19
 180 476 180 476 321 575 c 0,20,21
 431 653 431 653 581 653 c 2,22,-1
 817 653 l 1,23,24
 817 793 817 793 786 852 c 0,25,26
 727 964 727 964 595 964 c 0,27,28
 436 964 436 964 373 834 c 1,29,-1
 258 960 l 1,30,31
 379 1120 379 1120 618 1120 c 0,32,33
 821 1120 821 1120 931 958 c 0,34,35
 1002 853 1002 853 1002 654 c 2,36,-1
 1002 0 l 1,10,-1
822 507 m 1,37,38
 706 507 706 507 584 507 c 0,39,40
 472 507 472 507 408 448 c 0,41,42
 352 396 352 396 352 307 c 0,43,44
 352 240 352 240 396 192 c 0,45,46
 450 133 450 133 549 133 c 0,47,48
 654 133 654 133 722 219 c 1,49,50
 822 343 822 343 822 507 c 1,37,38
EndSplineSet
EndChar

StartChar: Aogonek
Encoding: 195 260 198
Width: 1200
GlyphClass: 2
Flags: W
LayerCount: 2
Fore
SplineSet
429 830 m 1,0,-1
 772 830 l 1,1,2
 696 1074 696 1074 600 1310 c 1,3,4
 505 1076 505 1076 429 830 c 1,0,-1
50 0 m 1,5,6
 184 720 184 720 510 1500 c 1,7,-1
 690 1500 l 1,8,9
 1028 720 1028 720 1150 0 c 1,10,-1
 972 0 l 1,11,12
 928 -47 928 -47 928 -110 c 0,13,14
 928 -182 928 -182 1010 -221 c 1,15,-1
 1010 -410 l 1,16,17
 796 -320 796 -320 796 -126 c 0,18,19
 796 22 796 22 949 118 c 1,20,21
 897 398 897 398 820 670 c 1,22,-1
 381 670 l 1,23,24
 290 345 290 345 230 0 c 1,25,-1
 50 0 l 1,5,6
EndSplineSet
EndChar

StartChar: aogonek
Encoding: 196 261 199
Width: 1200
GlyphClass: 2
Flags: W
LayerCount: 2
Fore
SplineSet
822 507 m 1,0,-1
 584 507 l 2,1,2
 472 507 472 507 408 448 c 0,3,4
 352 396 352 396 352 307 c 0,5,6
 352 240 352 240 396 192 c 0,7,8
 450 133 450 133 549 133 c 0,9,10
 653 133 653 133 722 219 c 0,11,12
 822 344 822 344 822 507 c 1,0,-1
1002 0 m 1,13,-1
 946 0 l 1,14,15
 902 -47 902 -47 902 -110 c 0,16,17
 902 -182 902 -182 984 -221 c 1,18,-1
 984 -410 l 1,19,20
 770 -320 770 -320 770 -126 c 0,21,22
 770 -40 770 -40 822 29 c 1,23,-1
 822 237 l 1,24,25
 739 -20 739 -20 513 -20 c 0,26,27
 351 -20 351 -20 261 86 c 0,28,29
 180 181 180 181 180 299 c 0,30,31
 180 476 180 476 321 575 c 0,32,33
 432 653 432 653 581 653 c 2,34,-1
 817 653 l 1,35,36
 817 793 817 793 786 852 c 0,37,38
 727 964 727 964 595 964 c 0,39,40
 436 964 436 964 373 834 c 1,41,-1
 258 960 l 1,42,43
 379 1120 379 1120 618 1120 c 0,44,45
 821 1120 821 1120 931 958 c 0,46,47
 1002 853 1002 853 1002 654 c 2,48,-1
 1002 0 l 1,13,-1
EndSplineSet
EndChar

StartChar: Cacute
Encoding: 197 262 200
Width: 1200
GlyphClass: 2
Flags: W
LayerCount: 2
Fore
SplineSet
1033 334 m 1,0,1
 1010 267 1010 267 984 217 c 0,2,3
 860 -20 860 -20 600 -20 c 0,4,5
 342 -20 342 -20 216 217 c 0,6,7
 110 417 110 417 110 750 c 0,8,9
 110 1084 110 1084 216 1283 c 0,10,11
 342 1520 342 1520 600 1520 c 0,12,13
 859 1520 859 1520 984 1283 c 0,14,15
 1015 1224 1015 1224 1033 1166 c 1,16,-1
 847 1166 l 1,17,18
 840 1183 840 1183 832 1198 c 0,19,20
 742 1367 742 1367 600 1367 c 0,21,22
 459 1367 459 1367 368 1198 c 0,23,24
 290 1053 290 1053 290 750 c 0,25,26
 290 441 290 441 368 302 c 0,27,28
 463 133 463 133 600 133 c 0,29,30
 742 133 742 133 832 302 c 0,31,32
 840 317 840 317 847 334 c 1,33,-1
 1033 334 l 1,0,1
706 1930 m 1,34,-1
 868 1836 l 1,35,-1
 656 1552 l 1,36,-1
 546 1616 l 1,37,-1
 706 1930 l 1,34,-1
EndSplineSet
EndChar

StartChar: cacute
Encoding: 198 263 201
Width: 1200
GlyphClass: 2
Flags: W
LayerCount: 2
Fore
SplineSet
1005 334 m 1,0,1
 974 221 974 221 914 140 c 0,2,3
 795 -20 795 -20 600 -20 c 0,4,5
 407 -20 407 -20 286 140 c 0,6,7
 170 293 170 293 170 550 c 128,-1,8
 170 807 170 807 286 960 c 0,9,10
 407 1120 407 1120 600 1120 c 0,11,12
 795 1120 795 1120 914 960 c 0,13,14
 974 879 974 879 1005 765 c 1,15,16
 1005 765 1005 765 825 765 c 1,17,18
 814 803 814 803 799 834 c 0,19,20
 737 963 737 963 600 963 c 0,21,22
 464 963 464 963 401 834 c 0,23,24
 350 729 350 729 350 550 c 128,-1,25
 350 371 350 371 401 266 c 0,26,27
 464 137 464 137 600 137 c 0,28,29
 737 137 737 137 799 266 c 0,30,31
 814 297 814 297 825 334 c 1,32,-1
 1005 334 l 1,0,1
706 1528 m 1,33,-1
 868 1434 l 1,34,-1
 656 1150 l 1,35,-1
 546 1214 l 1,36,-1
 706 1528 l 1,33,-1
EndSplineSet
EndChar

StartChar: Ccircumflex
Encoding: 199 264 202
Width: 1200
GlyphClass: 2
Flags: W
LayerCount: 2
Fore
SplineSet
338 1646 m 1,0,-1
 550 1930 l 1,1,-1
 656 1930 l 1,2,-1
 868 1646 l 1,3,-1
 757 1574 l 1,4,-1
 603 1766 l 1,5,-1
 447 1574 l 1,6,-1
 338 1646 l 1,0,-1
1033 334 m 1,7,8
 1010 267 1010 267 984 217 c 0,9,10
 860 -20 860 -20 600 -20 c 0,11,12
 342 -20 342 -20 216 217 c 0,13,14
 110 417 110 417 110 750 c 0,15,16
 110 1084 110 1084 216 1283 c 0,17,18
 342 1520 342 1520 600 1520 c 0,19,20
 859 1520 859 1520 984 1283 c 0,21,22
 1015 1224 1015 1224 1033 1166 c 1,23,-1
 847 1166 l 1,24,25
 840 1183 840 1183 832 1198 c 0,26,27
 742 1367 742 1367 600 1367 c 0,28,29
 459 1367 459 1367 368 1198 c 0,30,31
 290 1053 290 1053 290 750 c 0,32,33
 290 441 290 441 368 302 c 0,34,35
 463 133 463 133 600 133 c 0,36,37
 742 133 742 133 832 302 c 0,38,39
 840 317 840 317 847 334 c 1,40,-1
 1033 334 l 1,7,8
EndSplineSet
EndChar

StartChar: ccircumflex
Encoding: 200 265 203
Width: 1200
GlyphClass: 2
Flags: W
LayerCount: 2
Fore
SplineSet
338 1244 m 1,0,-1
 550 1528 l 1,1,-1
 656 1528 l 1,2,-1
 868 1244 l 1,3,-1
 757 1172 l 1,4,-1
 603 1364 l 1,5,-1
 447 1172 l 1,6,-1
 338 1244 l 1,0,-1
1005 334 m 1,7,8
 974 221 974 221 914 140 c 0,9,10
 795 -20 795 -20 600 -20 c 0,11,12
 407 -20 407 -20 286 140 c 0,13,14
 170 293 170 293 170 550 c 128,-1,15
 170 807 170 807 286 960 c 0,16,17
 407 1120 407 1120 600 1120 c 0,18,19
 795 1120 795 1120 914 960 c 0,20,21
 974 879 974 879 1005 765 c 1,22,-1
 825 765 l 1,23,24
 814 803 814 803 799 834 c 0,25,26
 737 963 737 963 600 963 c 0,27,28
 464 963 464 963 401 834 c 0,29,30
 350 729 350 729 350 550 c 128,-1,31
 350 371 350 371 401 266 c 0,32,33
 464 137 464 137 600 137 c 0,34,35
 737 137 737 137 799 266 c 0,36,37
 814 297 814 297 825 334 c 1,38,-1
 1005 334 l 1,7,8
EndSplineSet
EndChar

StartChar: Cdotaccent
Encoding: 201 266 204
Width: 1200
GlyphClass: 2
Flags: W
LayerCount: 2
Fore
SplineSet
600 1881 m 0,0,1
 659 1881 659 1881 694 1845 c 0,2,3
 734 1804 734 1804 734 1749 c 128,-1,4
 734 1694 734 1694 694 1655 c 0,5,6
 655 1617 655 1617 600 1617 c 0,7,8
 543 1617 543 1617 506 1653 c 0,9,10
 466 1692 466 1692 466 1749 c 128,-1,11
 466 1806 466 1806 506 1843.5 c 128,-1,12
 546 1881 546 1881 600 1881 c 0,0,1
1033 334 m 1,13,14
 1010 267 1010 267 984 217 c 0,15,16
 860 -20 860 -20 600 -20 c 0,17,18
 342 -20 342 -20 216 217 c 0,19,20
 110 417 110 417 110 750 c 0,21,22
 110 1084 110 1084 216 1283 c 0,23,24
 342 1520 342 1520 600 1520 c 0,25,26
 859 1520 859 1520 984 1283 c 0,27,28
 1015 1224 1015 1224 1033 1166 c 1,29,-1
 847 1166 l 1,30,31
 840 1183 840 1183 832 1198 c 0,32,33
 742 1367 742 1367 600 1367 c 0,34,35
 459 1367 459 1367 368 1198 c 0,36,37
 290 1053 290 1053 290 750 c 0,38,39
 290 441 290 441 368 302 c 0,40,41
 463 133 463 133 600 133 c 0,42,43
 742 133 742 133 832 302 c 0,44,45
 840 317 840 317 847 334 c 1,46,-1
 1033 334 l 1,13,14
EndSplineSet
EndChar

StartChar: cdotaccent
Encoding: 202 267 205
Width: 1200
GlyphClass: 2
Flags: W
LayerCount: 2
Fore
SplineSet
600 1520 m 0,0,1
 659 1520 659 1520 694 1484 c 0,2,3
 734 1443 734 1443 734 1388 c 128,-1,4
 734 1333 734 1333 694 1294 c 0,5,6
 655 1256 655 1256 600 1256 c 0,7,8
 543 1256 543 1256 506 1292 c 0,9,10
 466 1331 466 1331 466 1388 c 128,-1,11
 466 1445 466 1445 506 1482.5 c 128,-1,12
 546 1520 546 1520 600 1520 c 0,0,1
1005 334 m 1,13,14
 974 221 974 221 914 140 c 0,15,16
 795 -20 795 -20 600 -20 c 0,17,18
 407 -20 407 -20 286 140 c 0,19,20
 170 293 170 293 170 550 c 128,-1,21
 170 807 170 807 286 960 c 0,22,23
 407 1120 407 1120 600 1120 c 0,24,25
 795 1120 795 1120 914 960 c 0,26,27
 974 879 974 879 1005 765 c 1,28,-1
 825 765 l 1,29,30
 814 803 814 803 799 834 c 0,31,32
 737 963 737 963 600 963 c 0,33,34
 464 963 464 963 401 834 c 0,35,36
 350 729 350 729 350 550 c 128,-1,37
 350 371 350 371 401 266 c 0,38,39
 464 137 464 137 600 137 c 0,40,41
 737 137 737 137 799 266 c 0,42,43
 814 297 814 297 825 334 c 1,44,-1
 1005 334 l 1,13,14
EndSplineSet
EndChar

StartChar: Ccaron
Encoding: 203 268 206
Width: 1200
GlyphClass: 2
Flags: W
LayerCount: 2
Fore
SplineSet
869 1858 m 1,0,-1
 657 1574 l 1,1,-1
 551 1574 l 1,2,-1
 339 1858 l 1,3,-1
 450 1930 l 1,4,-1
 604 1738 l 1,5,-1
 760 1930 l 1,6,-1
 869 1858 l 1,0,-1
1033 334 m 1,7,8
 1010 267 1010 267 984 217 c 0,9,10
 860 -20 860 -20 600 -20 c 0,11,12
 342 -20 342 -20 216 217 c 0,13,14
 110 417 110 417 110 750 c 0,15,16
 110 1084 110 1084 216 1283 c 0,17,18
 342 1520 342 1520 600 1520 c 0,19,20
 859 1520 859 1520 984 1283 c 0,21,22
 1015 1224 1015 1224 1033 1166 c 1,23,-1
 847 1166 l 1,24,25
 840 1183 840 1183 832 1198 c 0,26,27
 742 1367 742 1367 600 1367 c 0,28,29
 459 1367 459 1367 368 1198 c 0,30,31
 290 1053 290 1053 290 750 c 0,32,33
 290 441 290 441 368 302 c 0,34,35
 463 133 463 133 600 133 c 0,36,37
 742 133 742 133 832 302 c 0,38,39
 840 317 840 317 847 334 c 1,40,-1
 1033 334 l 1,7,8
EndSplineSet
EndChar

StartChar: ccaron
Encoding: 204 269 207
Width: 1200
GlyphClass: 2
Flags: W
LayerCount: 2
Fore
SplineSet
868 1456 m 1,0,-1
 656 1172 l 1,1,-1
 550 1172 l 1,2,-1
 338 1456 l 1,3,-1
 449 1528 l 1,4,-1
 603 1336 l 1,5,-1
 759 1528 l 1,6,-1
 868 1456 l 1,0,-1
1005 334 m 1,7,8
 974 221 974 221 914 140 c 0,9,10
 795 -20 795 -20 600 -20 c 0,11,12
 407 -20 407 -20 286 140 c 0,13,14
 170 293 170 293 170 550 c 128,-1,15
 170 807 170 807 286 960 c 0,16,17
 407 1120 407 1120 600 1120 c 0,18,19
 795 1120 795 1120 914 960 c 0,20,21
 974 879 974 879 1005 765 c 1,22,-1
 825 765 l 1,23,24
 814 803 814 803 799 834 c 0,25,26
 737 963 737 963 600 963 c 0,27,28
 464 963 464 963 401 834 c 0,29,30
 350 729 350 729 350 550 c 128,-1,31
 350 371 350 371 401 266 c 0,32,33
 464 137 464 137 600 137 c 0,34,35
 737 137 737 137 799 266 c 0,36,37
 814 297 814 297 825 334 c 1,38,-1
 1005 334 l 1,7,8
EndSplineSet
EndChar

StartChar: Dcaron
Encoding: 205 270 208
Width: 1200
GlyphClass: 2
Flags: W
LayerCount: 2
Fore
SplineSet
869 1858 m 1,0,-1
 657 1574 l 1,1,-1
 551 1574 l 1,2,-1
 339 1858 l 1,3,-1
 450 1930 l 1,4,-1
 604 1738 l 1,5,-1
 760 1930 l 1,6,-1
 869 1858 l 1,0,-1
329 153 m 1,7,8
 440 153 440 153 551 153 c 0,9,10
 744 153 744 153 833 322 c 0,11,12
 910 468 910 468 910 750 c 0,13,14
 910 1033 910 1033 832 1178 c 0,15,16
 741 1347 741 1347 550 1347 c 0,17,18
 440 1347 440 1347 330 1347 c 1,19,-1
 329 153 l 1,7,8
150 0 m 1,20,-1
 150 1500 l 1,21,-1
 550 1500 l 2,22,23
 859 1500 859 1500 984 1263 c 0,24,25
 1090 1062 1090 1062 1090 750 c 0,26,27
 1090 440 1090 440 985 237 c 1,28,29
 861 0 861 0 551 0 c 2,30,-1
 150 0 l 1,20,-1
EndSplineSet
EndChar

StartChar: dcaron
Encoding: 206 271 209
Width: 1200
GlyphClass: 2
Flags: W
LayerCount: 2
Fore
SplineSet
510 137 m 0,0,1
 632 137 632 137 695 266 c 0,2,3
 746 371 746 371 746 550 c 128,-1,4
 746 729 746 729 695 834 c 0,5,6
 632 963 632 963 510 963 c 0,7,8
 374 963 374 963 311 834 c 0,9,10
 260 729 260 729 260 550 c 128,-1,11
 260 371 260 371 311 266 c 0,12,13
 374 137 374 137 510 137 c 0,0,1
924 0 m 1,14,-1
 744 0 l 1,15,-1
 744 138 l 1,16,17
 688 -20 688 -20 510 -20 c 0,18,19
 317 -20 317 -20 196 140 c 0,20,21
 80 293 80 293 80 550 c 128,-1,22
 80 807 80 807 196 960 c 0,23,24
 317 1120 317 1120 510 1120 c 0,25,26
 675 1120 675 1120 744 962 c 1,27,-1
 744 1500 l 1,28,-1
 924 1500 l 1,29,-1
 924 0 l 1,14,-1
1041 1519 m 1,30,-1
 1217 1455 l 1,31,-1
 1057 1138 l 1,32,-1
 938 1182 l 1,33,-1
 1041 1519 l 1,30,-1
EndSplineSet
EndChar

StartChar: Dcroat
Encoding: 207 272 210
Width: 1200
GlyphClass: 2
Flags: W
LayerCount: 2
Fore
SplineSet
329 153 m 1,0,-1
 551 153 l 2,1,2
 744 153 744 153 833 322 c 0,3,4
 910 468 910 468 910 750 c 0,5,6
 910 1033 910 1033 832 1178 c 0,7,8
 741 1347 741 1347 550 1347 c 2,9,-1
 330 1347 l 1,10,-1
 330 820 l 1,11,-1
 654 820 l 1,12,-1
 654 680 l 1,13,-1
 329 680 l 1,14,-1
 329 153 l 1,0,-1
150 0 m 1,15,-1
 150 680 l 1,16,-1
 80 680 l 1,17,-1
 80 820 l 1,18,-1
 150 820 l 1,19,-1
 150 1500 l 1,20,-1
 550 1500 l 2,21,22
 859 1500 859 1500 984 1263 c 0,23,24
 1090 1062 1090 1062 1090 750 c 0,25,26
 1090 440 1090 440 985 237 c 1,27,28
 861 0 861 0 551 0 c 2,29,-1
 150 0 l 1,15,-1
EndSplineSet
EndChar

StartChar: dcroat
Encoding: 208 273 211
Width: 1200
GlyphClass: 2
Flags: W
LayerCount: 2
Fore
SplineSet
1014 0 m 1,0,-1
 834 0 l 1,1,-1
 834 138 l 1,2,3
 778 -20 778 -20 600 -20 c 0,4,5
 407 -20 407 -20 286 140 c 0,6,7
 170 293 170 293 170 550 c 128,-1,8
 170 807 170 807 286 960 c 0,9,10
 407 1120 407 1120 600 1120 c 0,11,12
 765 1120 765 1120 834 962 c 1,13,-1
 834 1218 l 1,14,-1
 546 1218 l 1,15,-1
 546 1358 l 1,16,-1
 834 1358 l 1,17,-1
 834 1500 l 1,18,-1
 1014 1500 l 1,19,-1
 1014 1358 l 1,20,-1
 1120 1358 l 1,21,-1
 1120 1218 l 1,22,-1
 1014 1218 l 1,23,-1
 1014 0 l 1,0,-1
600 137 m 0,24,25
 722 137 722 137 785 266 c 0,26,27
 836 371 836 371 836 550 c 128,-1,28
 836 729 836 729 785 834 c 0,29,30
 722 963 722 963 600 963 c 0,31,32
 464 963 464 963 401 834 c 0,33,34
 350 729 350 729 350 550 c 128,-1,35
 350 371 350 371 401 266 c 0,36,37
 464 137 464 137 600 137 c 0,24,25
EndSplineSet
EndChar

StartChar: Emacron
Encoding: 209 274 212
Width: 1200
GlyphClass: 2
Flags: W
LayerCount: 2
Fore
SplineSet
186 0 m 1,0,-1
 186 1500 l 1,1,-1
 946 1500 l 1,2,-1
 946 1340 l 1,3,-1
 366 1340 l 1,4,-1
 366 830 l 1,5,-1
 821 830 l 1,6,-1
 821 670 l 1,7,-1
 366 670 l 1,8,-1
 366 160 l 1,9,-1
 1014 160 l 1,10,-1
 1014 0 l 1,11,-1
 186 0 l 1,0,-1
370 1670 m 1,12,-1
 370 1830 l 1,13,-1
 838 1830 l 1,14,-1
 838 1670 l 1,15,-1
 370 1670 l 1,12,-1
EndSplineSet
EndChar

StartChar: emacron
Encoding: 210 275 213
Width: 1200
GlyphClass: 2
Flags: W
LayerCount: 2
Fore
SplineSet
1005 334 m 1,0,1
 974 220 974 220 914 140 c 0,2,3
 794 -20 794 -20 600 -20 c 0,4,5
 407 -20 407 -20 286 140 c 0,6,7
 170 293 170 293 170 550 c 128,-1,8
 170 807 170 807 286 960 c 0,9,10
 407 1120 407 1120 600 1120 c 0,11,12
 792 1120 792 1120 914 960 c 0,13,14
 1022 818 1022 818 1029 586 c 1,15,-1
 362 393 l 1,16,17
 375 320 375 320 401 266 c 0,18,19
 463 137 463 137 600 137 c 128,-1,20
 737 137 737 137 799 266 c 0,21,22
 814 297 814 297 825 334 c 1,23,-1
 1005 334 l 1,0,1
350 550 m 1,24,-1
 840 692 l 1,25,26
 828 775 828 775 799 834 c 0,27,28
 736 963 736 963 600 963 c 128,-1,29
 464 963 464 963 401 834 c 0,30,31
 350 729 350 729 350 550 c 1,24,-1
366 1310 m 1,32,-1
 366 1470 l 1,33,-1
 834 1470 l 1,34,-1
 834 1310 l 1,35,-1
 366 1310 l 1,32,-1
EndSplineSet
EndChar

StartChar: Ebreve
Encoding: 211 276 214
Width: 1200
GlyphClass: 2
Flags: W
LayerCount: 2
Fore
SplineSet
306 1861 m 1,0,-1
 443 1861 l 1,1,2
 506 1784 506 1784 592 1784 c 0,3,4
 693 1784 693 1784 746 1861 c 1,5,-1
 880 1861 l 1,6,7
 779 1632 779 1632 592 1632 c 0,8,9
 398 1632 398 1632 306 1861 c 1,0,-1
186 0 m 1,10,-1
 186 1500 l 1,11,-1
 946 1500 l 1,12,-1
 946 1340 l 1,13,-1
 366 1340 l 1,14,-1
 366 830 l 1,15,-1
 821 830 l 1,16,-1
 821 670 l 1,17,-1
 366 670 l 1,18,-1
 366 160 l 1,19,-1
 1014 160 l 1,20,-1
 1014 0 l 1,21,-1
 186 0 l 1,10,-1
EndSplineSet
EndChar

StartChar: ebreve
Encoding: 212 277 215
Width: 1200
GlyphClass: 2
Flags: W
LayerCount: 2
Fore
SplineSet
314 1488 m 1,0,-1
 451 1488 l 1,1,2
 514 1411 514 1411 600 1411 c 0,3,4
 701 1411 701 1411 754 1488 c 1,5,-1
 888 1488 l 1,6,7
 787 1259 787 1259 600 1259 c 0,8,9
 406 1259 406 1259 314 1488 c 1,0,-1
1005 334 m 1,10,11
 974 220 974 220 914 140 c 0,12,13
 794 -20 794 -20 600 -20 c 0,14,15
 407 -20 407 -20 286 140 c 0,16,17
 170 293 170 293 170 550 c 128,-1,18
 170 807 170 807 286 960 c 0,19,20
 407 1120 407 1120 600 1120 c 0,21,22
 792 1120 792 1120 914 960 c 0,23,24
 1022 818 1022 818 1029 586 c 1,25,-1
 362 393 l 1,26,27
 375 320 375 320 401 266 c 0,28,29
 463 137 463 137 600 137 c 128,-1,30
 737 137 737 137 799 266 c 0,31,32
 814 297 814 297 825 334 c 1,33,-1
 1005 334 l 1,10,11
350 550 m 1,34,-1
 840 692 l 1,35,36
 828 775 828 775 799 834 c 0,37,38
 736 963 736 963 600 963 c 128,-1,39
 464 963 464 963 401 834 c 0,40,41
 350 729 350 729 350 550 c 1,34,-1
EndSplineSet
EndChar

StartChar: Edotaccent
Encoding: 213 278 216
Width: 1200
GlyphClass: 2
Flags: W
LayerCount: 2
Fore
SplineSet
600 1881 m 0,0,1
 659 1881 659 1881 694 1845 c 0,2,3
 734 1804 734 1804 734 1749 c 128,-1,4
 734 1694 734 1694 694 1655 c 0,5,6
 655 1617 655 1617 600 1617 c 0,7,8
 543 1617 543 1617 506 1653 c 0,9,10
 466 1692 466 1692 466 1749 c 128,-1,11
 466 1806 466 1806 506 1843.5 c 128,-1,12
 546 1881 546 1881 600 1881 c 0,0,1
186 0 m 1,13,-1
 186 1500 l 1,14,-1
 946 1500 l 1,15,-1
 946 1340 l 1,16,-1
 366 1340 l 1,17,-1
 366 830 l 1,18,-1
 821 830 l 1,19,-1
 821 670 l 1,20,-1
 366 670 l 1,21,-1
 366 160 l 1,22,-1
 1014 160 l 1,23,-1
 1014 0 l 1,24,-1
 186 0 l 1,13,-1
EndSplineSet
EndChar

StartChar: edotaccent
Encoding: 214 279 217
Width: 1200
GlyphClass: 2
Flags: W
LayerCount: 2
Fore
SplineSet
600 1520 m 0,0,1
 659 1520 659 1520 694 1484 c 0,2,3
 734 1443 734 1443 734 1388 c 128,-1,4
 734 1333 734 1333 694 1294 c 0,5,6
 655 1256 655 1256 600 1256 c 0,7,8
 543 1256 543 1256 506 1292 c 0,9,10
 466 1331 466 1331 466 1388 c 128,-1,11
 466 1445 466 1445 506 1482.5 c 128,-1,12
 546 1520 546 1520 600 1520 c 0,0,1
1005 334 m 1,13,14
 974 220 974 220 914 140 c 0,15,16
 794 -20 794 -20 600 -20 c 0,17,18
 407 -20 407 -20 286 140 c 0,19,20
 170 293 170 293 170 550 c 128,-1,21
 170 807 170 807 286 960 c 0,22,23
 407 1120 407 1120 600 1120 c 0,24,25
 792 1120 792 1120 914 960 c 0,26,27
 1022 818 1022 818 1029 586 c 1,28,-1
 362 393 l 1,29,30
 375 320 375 320 401 266 c 0,31,32
 463 137 463 137 600 137 c 128,-1,33
 737 137 737 137 799 266 c 0,34,35
 814 297 814 297 825 334 c 1,36,-1
 1005 334 l 1,13,14
350 550 m 1,37,-1
 840 692 l 1,38,39
 828 775 828 775 799 834 c 0,40,41
 736 963 736 963 600 963 c 128,-1,42
 464 963 464 963 401 834 c 0,43,44
 350 729 350 729 350 550 c 1,37,-1
EndSplineSet
EndChar

StartChar: Eogonek
Encoding: 215 280 218
Width: 1200
GlyphClass: 2
Flags: W
LayerCount: 2
Fore
SplineSet
186 0 m 1,0,-1
 186 1500 l 1,1,-1
 946 1500 l 1,2,-1
 946 1340 l 1,3,-1
 366 1340 l 1,4,-1
 366 830 l 1,5,-1
 821 830 l 1,6,-1
 821 670 l 1,7,-1
 366 670 l 1,8,-1
 366 160 l 1,9,-1
 1014 160 l 1,10,-1
 1014 0 l 1,11,-1
 953 0 l 1,12,13
 909 -47 909 -47 909 -110 c 0,14,15
 909 -182 909 -182 991 -221 c 1,16,-1
 991 -410 l 1,17,18
 777 -320 777 -320 777 -126 c 0,19,20
 777 -57 777 -57 810 0 c 1,21,-1
 186 0 l 1,0,-1
EndSplineSet
EndChar

StartChar: eogonek
Encoding: 216 281 219
Width: 1200
GlyphClass: 2
Flags: W
LayerCount: 2
Fore
SplineSet
350 550 m 1,0,-1
 840 692 l 1,1,2
 828 775 828 775 799 834 c 0,3,4
 736 963 736 963 600 963 c 128,-1,5
 464 963 464 963 401 834 c 0,6,7
 350 729 350 729 350 550 c 1,0,-1
1005 334 m 1,8,9
 974 221 974 221 914 140 c 0,10,11
 870 81 870 81 815 43 c 1,12,13
 717 -16 717 -16 717 -110 c 0,14,15
 717 -182 717 -182 799 -221 c 1,16,-1
 799 -410 l 1,17,18
 585 -320 585 -320 585 -126 c 0,19,20
 585 -69 585 -69 608 -20 c 1,21,22
 407 -20 407 -20 286 140 c 0,23,24
 170 293 170 293 170 550 c 128,-1,25
 170 807 170 807 286 960 c 0,26,27
 407 1120 407 1120 600 1120 c 0,28,29
 792 1120 792 1120 914 960 c 0,30,31
 1022 818 1022 818 1029 586 c 1,32,-1
 362 393 l 1,33,34
 375 320 375 320 401 266 c 0,35,36
 463 137 463 137 600 137 c 128,-1,37
 737 137 737 137 799 266 c 0,38,39
 814 297 814 297 825 334 c 1,40,-1
 1005 334 l 1,8,9
EndSplineSet
EndChar

StartChar: Ecaron
Encoding: 217 282 220
Width: 1200
GlyphClass: 2
Flags: W
LayerCount: 2
Fore
SplineSet
869 1858 m 1,0,-1
 657 1574 l 1,1,-1
 551 1574 l 1,2,-1
 339 1858 l 1,3,-1
 450 1930 l 1,4,-1
 604 1738 l 1,5,-1
 760 1930 l 1,6,-1
 869 1858 l 1,0,-1
186 0 m 1,7,-1
 186 1500 l 1,8,-1
 946 1500 l 1,9,-1
 946 1340 l 1,10,-1
 366 1340 l 1,11,-1
 366 830 l 1,12,-1
 821 830 l 1,13,-1
 821 670 l 1,14,-1
 366 670 l 1,15,-1
 366 160 l 1,16,-1
 1014 160 l 1,17,-1
 1014 0 l 1,18,-1
 186 0 l 1,7,-1
EndSplineSet
EndChar

StartChar: ecaron
Encoding: 218 283 221
Width: 1200
GlyphClass: 2
Flags: W
LayerCount: 2
Fore
SplineSet
868 1456 m 1,0,-1
 656 1172 l 1,1,-1
 550 1172 l 1,2,-1
 338 1456 l 1,3,-1
 449 1528 l 1,4,-1
 603 1336 l 1,5,-1
 759 1528 l 1,6,-1
 868 1456 l 1,0,-1
1005 334 m 1,7,8
 974 220 974 220 914 140 c 0,9,10
 794 -20 794 -20 600 -20 c 0,11,12
 407 -20 407 -20 286 140 c 0,13,14
 170 293 170 293 170 550 c 128,-1,15
 170 807 170 807 286 960 c 0,16,17
 407 1120 407 1120 600 1120 c 0,18,19
 792 1120 792 1120 914 960 c 0,20,21
 1022 818 1022 818 1029 586 c 1,22,-1
 362 393 l 1,23,24
 375 320 375 320 401 266 c 0,25,26
 463 137 463 137 600 137 c 128,-1,27
 737 137 737 137 799 266 c 0,28,29
 814 297 814 297 825 334 c 1,30,-1
 1005 334 l 1,7,8
350 550 m 1,31,-1
 840 692 l 1,32,33
 828 775 828 775 799 834 c 0,34,35
 736 963 736 963 600 963 c 128,-1,36
 464 963 464 963 401 834 c 0,37,38
 350 729 350 729 350 550 c 1,31,-1
EndSplineSet
EndChar

StartChar: Gcircumflex
Encoding: 219 284 222
Width: 1200
GlyphClass: 2
Flags: W
LayerCount: 2
Fore
SplineSet
338 1646 m 1,0,-1
 550 1930 l 1,1,-1
 656 1930 l 1,2,-1
 868 1646 l 1,3,-1
 757 1574 l 1,4,-1
 603 1766 l 1,5,-1
 447 1574 l 1,6,-1
 338 1646 l 1,0,-1
1090 830 m 1,7,-1
 1090 750 l 2,8,9
 1090 420 1090 420 984 217 c 0,10,11
 860 -20 860 -20 600 -20 c 0,12,13
 342 -20 342 -20 216 217 c 0,14,15
 110 417 110 417 110 750 c 0,16,17
 110 1084 110 1084 216 1283 c 0,18,19
 342 1520 342 1520 600 1520 c 0,20,21
 859 1520 859 1520 984 1283 c 0,22,23
 1015 1224 1015 1224 1033 1166 c 1,24,-1
 847 1166 l 1,25,26
 840 1183 840 1183 832 1198 c 0,27,28
 742 1367 742 1367 600 1367 c 0,29,30
 459 1367 459 1367 368 1198 c 0,31,32
 290 1053 290 1053 290 750 c 0,33,34
 290 441 290 441 368 302 c 0,35,36
 463 133 463 133 600 133 c 0,37,38
 742 133 742 133 832 302 c 0,39,40
 899 428 899 428 908 670 c 1,41,-1
 595 669 l 1,42,-1
 595 829 l 1,43,-1
 1090 830 l 1,7,-1
EndSplineSet
EndChar

StartChar: gcircumflex
Encoding: 220 285 223
Width: 1200
GlyphClass: 2
Flags: W
LayerCount: 2
Fore
SplineSet
338 1244 m 1,0,-1
 550 1528 l 1,1,-1
 656 1528 l 1,2,-1
 868 1244 l 1,3,-1
 757 1172 l 1,4,-1
 603 1364 l 1,5,-1
 447 1172 l 1,6,-1
 338 1244 l 1,0,-1
600 963 m 0,7,8
 464 963 464 963 401 834 c 0,9,10
 350 729 350 729 350 550 c 128,-1,11
 350 371 350 371 401 266 c 0,12,13
 464 137 464 137 600 137 c 0,14,15
 722 137 722 137 785 266 c 0,16,17
 836 371 836 371 836 550 c 128,-1,18
 836 729 836 729 785 834 c 0,19,20
 722 963 722 963 600 963 c 0,7,8
264 -252 m 1,21,-1
 401 -163 l 1,22,23
 464 -263 464 -263 584 -263 c 0,24,25
 720 -263 720 -263 783 -134 c 0,26,27
 834 -29 834 -29 834 138 c 1,28,29
 765 -20 765 -20 600 -20 c 0,30,31
 407 -20 407 -20 286 140 c 0,32,33
 170 293 170 293 170 550 c 128,-1,34
 170 807 170 807 286 960 c 0,35,36
 407 1120 407 1120 600 1120 c 0,37,38
 778 1120 778 1120 834 962 c 1,39,-1
 834 1100 l 1,40,-1
 1014 1100 l 1,41,-1
 1014 150 l 2,42,43
 1014 -109 1014 -109 898 -260 c 0,44,45
 774 -420 774 -420 581 -420 c 0,46,47
 389 -420 389 -420 264 -252 c 1,21,-1
EndSplineSet
EndChar

StartChar: Gbreve
Encoding: 221 286 224
Width: 1200
GlyphClass: 2
Flags: W
LayerCount: 2
Fore
SplineSet
306 1861 m 1,0,-1
 443 1861 l 1,1,2
 506 1784 506 1784 592 1784 c 0,3,4
 693 1784 693 1784 746 1861 c 1,5,-1
 880 1861 l 1,6,7
 779 1632 779 1632 592 1632 c 0,8,9
 398 1632 398 1632 306 1861 c 1,0,-1
1090 830 m 1,10,-1
 1090 750 l 2,11,12
 1090 420 1090 420 984 217 c 0,13,14
 860 -20 860 -20 600 -20 c 0,15,16
 342 -20 342 -20 216 217 c 0,17,18
 110 417 110 417 110 750 c 0,19,20
 110 1084 110 1084 216 1283 c 0,21,22
 342 1520 342 1520 600 1520 c 0,23,24
 859 1520 859 1520 984 1283 c 0,25,26
 1015 1224 1015 1224 1033 1166 c 1,27,-1
 847 1166 l 1,28,29
 840 1183 840 1183 832 1198 c 0,30,31
 742 1367 742 1367 600 1367 c 0,32,33
 459 1367 459 1367 368 1198 c 0,34,35
 290 1053 290 1053 290 750 c 0,36,37
 290 441 290 441 368 302 c 0,38,39
 463 133 463 133 600 133 c 0,40,41
 742 133 742 133 832 302 c 0,42,43
 899 428 899 428 908 670 c 1,44,-1
 595 669 l 1,45,-1
 595 829 l 1,46,-1
 1090 830 l 1,10,-1
EndSplineSet
EndChar

StartChar: gbreve
Encoding: 222 287 225
Width: 1200
GlyphClass: 2
Flags: W
LayerCount: 2
Fore
SplineSet
314 1488 m 1,0,-1
 451 1488 l 1,1,2
 514 1411 514 1411 600 1411 c 0,3,4
 701 1411 701 1411 754 1488 c 1,5,-1
 888 1488 l 1,6,7
 787 1259 787 1259 600 1259 c 0,8,9
 406 1259 406 1259 314 1488 c 1,0,-1
600 963 m 0,10,11
 464 963 464 963 401 834 c 0,12,13
 350 729 350 729 350 550 c 128,-1,14
 350 371 350 371 401 266 c 0,15,16
 464 137 464 137 600 137 c 0,17,18
 722 137 722 137 785 266 c 0,19,20
 836 371 836 371 836 550 c 128,-1,21
 836 729 836 729 785 834 c 0,22,23
 722 963 722 963 600 963 c 0,10,11
264 -252 m 1,24,-1
 401 -163 l 1,25,26
 464 -263 464 -263 584 -263 c 0,27,28
 720 -263 720 -263 783 -134 c 0,29,30
 834 -29 834 -29 834 138 c 1,31,32
 765 -20 765 -20 600 -20 c 0,33,34
 407 -20 407 -20 286 140 c 0,35,36
 170 293 170 293 170 550 c 128,-1,37
 170 807 170 807 286 960 c 0,38,39
 407 1120 407 1120 600 1120 c 0,40,41
 778 1120 778 1120 834 962 c 1,42,-1
 834 1100 l 1,43,-1
 1014 1100 l 1,44,-1
 1014 150 l 2,45,46
 1014 -109 1014 -109 898 -260 c 0,47,48
 774 -420 774 -420 581 -420 c 0,49,50
 389 -420 389 -420 264 -252 c 1,24,-1
EndSplineSet
EndChar

StartChar: Gdotaccent
Encoding: 223 288 226
Width: 1200
GlyphClass: 2
Flags: W
LayerCount: 2
Fore
SplineSet
600 1881 m 0,0,1
 659 1881 659 1881 694 1845 c 0,2,3
 734 1804 734 1804 734 1749 c 128,-1,4
 734 1694 734 1694 694 1655 c 0,5,6
 655 1617 655 1617 600 1617 c 0,7,8
 543 1617 543 1617 506 1653 c 0,9,10
 466 1692 466 1692 466 1749 c 128,-1,11
 466 1806 466 1806 506 1843.5 c 128,-1,12
 546 1881 546 1881 600 1881 c 0,0,1
1090 830 m 1,13,-1
 1090 750 l 2,14,15
 1090 420 1090 420 984 217 c 0,16,17
 860 -20 860 -20 600 -20 c 0,18,19
 342 -20 342 -20 216 217 c 0,20,21
 110 417 110 417 110 750 c 0,22,23
 110 1084 110 1084 216 1283 c 0,24,25
 342 1520 342 1520 600 1520 c 0,26,27
 859 1520 859 1520 984 1283 c 0,28,29
 1015 1224 1015 1224 1033 1166 c 1,30,-1
 847 1166 l 1,31,32
 840 1183 840 1183 832 1198 c 0,33,34
 742 1367 742 1367 600 1367 c 0,35,36
 459 1367 459 1367 368 1198 c 0,37,38
 290 1053 290 1053 290 750 c 0,39,40
 290 441 290 441 368 302 c 0,41,42
 463 133 463 133 600 133 c 0,43,44
 742 133 742 133 832 302 c 0,45,46
 899 428 899 428 908 670 c 1,47,-1
 595 669 l 1,48,-1
 595 829 l 1,49,-1
 1090 830 l 1,13,-1
EndSplineSet
EndChar

StartChar: gdotaccent
Encoding: 224 289 227
Width: 1200
GlyphClass: 2
Flags: W
LayerCount: 2
Fore
SplineSet
600 1520 m 0,0,1
 659 1520 659 1520 694 1484 c 0,2,3
 734 1443 734 1443 734 1388 c 128,-1,4
 734 1333 734 1333 694 1294 c 0,5,6
 655 1256 655 1256 600 1256 c 0,7,8
 543 1256 543 1256 506 1292 c 0,9,10
 466 1331 466 1331 466 1388 c 128,-1,11
 466 1445 466 1445 506 1482.5 c 128,-1,12
 546 1520 546 1520 600 1520 c 0,0,1
600 963 m 0,13,14
 464 963 464 963 401 834 c 0,15,16
 350 729 350 729 350 550 c 128,-1,17
 350 371 350 371 401 266 c 0,18,19
 464 137 464 137 600 137 c 0,20,21
 722 137 722 137 785 266 c 0,22,23
 836 371 836 371 836 550 c 128,-1,24
 836 729 836 729 785 834 c 0,25,26
 722 963 722 963 600 963 c 0,13,14
264 -252 m 1,27,-1
 401 -163 l 1,28,29
 464 -263 464 -263 584 -263 c 0,30,31
 720 -263 720 -263 783 -134 c 0,32,33
 834 -29 834 -29 834 138 c 1,34,35
 765 -20 765 -20 600 -20 c 0,36,37
 407 -20 407 -20 286 140 c 0,38,39
 170 293 170 293 170 550 c 128,-1,40
 170 807 170 807 286 960 c 0,41,42
 407 1120 407 1120 600 1120 c 0,43,44
 778 1120 778 1120 834 962 c 1,45,-1
 834 1100 l 1,46,-1
 1014 1100 l 1,47,-1
 1014 150 l 2,48,49
 1014 -109 1014 -109 898 -260 c 0,50,51
 774 -420 774 -420 581 -420 c 0,52,53
 389 -420 389 -420 264 -252 c 1,27,-1
EndSplineSet
EndChar

StartChar: Gcommaaccent
Encoding: 225 290 228
Width: 1200
GlyphClass: 2
Flags: W
LayerCount: 2
Fore
SplineSet
1090 830 m 1,0,-1
 1090 750 l 2,1,2
 1090 420 1090 420 984 217 c 0,3,4
 860 -20 860 -20 600 -20 c 0,5,6
 342 -20 342 -20 216 217 c 0,7,8
 110 417 110 417 110 750 c 0,9,10
 110 1084 110 1084 216 1283 c 0,11,12
 342 1520 342 1520 600 1520 c 0,13,14
 859 1520 859 1520 984 1283 c 0,15,16
 1015 1224 1015 1224 1033 1166 c 1,17,-1
 847 1166 l 1,18,19
 840 1183 840 1183 832 1198 c 0,20,21
 742 1367 742 1367 600 1367 c 0,22,23
 459 1367 459 1367 368 1198 c 0,24,25
 290 1053 290 1053 290 750 c 0,26,27
 290 441 290 441 368 302 c 0,28,29
 463 133 463 133 600 133 c 0,30,31
 742 133 742 133 832 302 c 0,32,33
 899 428 899 428 908 670 c 1,34,-1
 595 669 l 1,35,-1
 595 829 l 1,36,-1
 1090 830 l 1,0,-1
494 -410 m 1,37,-1
 332 -316 l 1,38,-1
 544 -32 l 1,39,-1
 654 -96 l 1,40,-1
 494 -410 l 1,37,-1
EndSplineSet
EndChar

StartChar: gcommaaccent
Encoding: 226 291 229
Width: 1200
GlyphClass: 2
Flags: W
LayerCount: 2
Fore
SplineSet
600 963 m 0,0,1
 464 963 464 963 401 834 c 0,2,3
 350 729 350 729 350 550 c 128,-1,4
 350 371 350 371 401 266 c 0,5,6
 464 137 464 137 600 137 c 0,7,8
 722 137 722 137 785 266 c 0,9,10
 836 371 836 371 836 550 c 128,-1,11
 836 729 836 729 785 834 c 0,12,13
 722 963 722 963 600 963 c 0,0,1
264 -252 m 1,14,-1
 401 -163 l 1,15,16
 464 -263 464 -263 584 -263 c 0,17,18
 720 -263 720 -263 783 -134 c 0,19,20
 834 -29 834 -29 834 138 c 1,21,22
 765 -20 765 -20 600 -20 c 0,23,24
 407 -20 407 -20 286 140 c 0,25,26
 170 293 170 293 170 550 c 128,-1,27
 170 807 170 807 286 960 c 0,28,29
 407 1120 407 1120 600 1120 c 0,30,31
 778 1120 778 1120 834 962 c 1,32,-1
 834 1100 l 1,33,-1
 1014 1100 l 1,34,-1
 1014 150 l 2,35,36
 1014 -109 1014 -109 898 -260 c 0,37,38
 774 -420 774 -420 581 -420 c 0,39,40
 389 -420 389 -420 264 -252 c 1,14,-1
706 1528 m 1,41,-1
 868 1434 l 1,42,-1
 656 1150 l 1,43,-1
 546 1214 l 1,44,-1
 706 1528 l 1,41,-1
EndSplineSet
EndChar

StartChar: Hcircumflex
Encoding: 227 292 230
Width: 1200
GlyphClass: 2
Flags: W
LayerCount: 2
Fore
SplineSet
338 1646 m 1,0,-1
 550 1930 l 1,1,-1
 656 1930 l 1,2,-1
 868 1646 l 1,3,-1
 757 1574 l 1,4,-1
 603 1766 l 1,5,-1
 447 1574 l 1,6,-1
 338 1646 l 1,0,-1
150 1500 m 1,7,-1
 330 1500 l 1,8,-1
 330 830 l 1,9,-1
 870 830 l 1,10,-1
 870 1500 l 1,11,-1
 1050 1500 l 1,12,-1
 1050 0 l 1,13,-1
 870 0 l 1,14,-1
 870 670 l 1,15,-1
 330 670 l 1,16,-1
 330 0 l 1,17,-1
 150 0 l 1,18,-1
 150 1500 l 1,7,-1
EndSplineSet
EndChar

StartChar: hcircumflex
Encoding: 228 293 231
Width: 1200
GlyphClass: 2
Flags: W
LayerCount: 2
Fore
SplineSet
338 1646 m 1,0,-1
 550 1930 l 1,1,-1
 656 1930 l 1,2,-1
 868 1646 l 1,3,-1
 757 1574 l 1,4,-1
 603 1766 l 1,5,-1
 447 1574 l 1,6,-1
 338 1646 l 1,0,-1
186 0 m 1,7,-1
 186 1500 l 1,8,-1
 366 1500 l 1,9,-1
 366 863 l 1,10,11
 451 1120 451 1120 683 1120 c 0,12,13
 825 1120 825 1120 923 1008 c 0,14,15
 1014 904 1014 904 1014 699 c 2,16,-1
 1014 0 l 1,17,-1
 834 0 l 1,18,-1
 834 699 l 2,19,20
 834 840 834 840 783 905 c 0,21,22
 735 967 735 967 639 967 c 0,23,24
 538 967 538 967 466 881 c 0,25,26
 366 762 366 762 366 592 c 2,27,-1
 366 0 l 1,28,-1
 186 0 l 1,7,-1
EndSplineSet
EndChar

StartChar: Hbar
Encoding: 229 294 232
Width: 1200
GlyphClass: 2
Flags: W
LayerCount: 2
Fore
SplineSet
150 0 m 1,0,-1
 150 1218 l 1,1,-1
 80 1218 l 1,2,-1
 80 1358 l 1,3,-1
 150 1358 l 1,4,-1
 150 1500 l 1,5,-1
 330 1500 l 1,6,-1
 330 1358 l 1,7,-1
 870 1358 l 1,8,-1
 870 1500 l 1,9,-1
 1050 1500 l 1,10,-1
 1050 1358 l 1,11,-1
 1120 1358 l 1,12,-1
 1120 1218 l 1,13,-1
 1050 1218 l 1,14,-1
 1050 0 l 1,15,-1
 870 0 l 1,16,-1
 870 670 l 1,17,-1
 330 670 l 1,18,-1
 330 0 l 1,19,-1
 150 0 l 1,0,-1
870 1218 m 1,20,-1
 330 1218 l 1,21,-1
 330 830 l 1,22,-1
 870 830 l 1,23,-1
 870 1218 l 1,20,-1
EndSplineSet
EndChar

StartChar: hbar
Encoding: 230 295 233
Width: 1200
GlyphClass: 2
Flags: W
LayerCount: 2
Fore
SplineSet
186 0 m 1,0,-1
 186 1218 l 1,1,-1
 80 1218 l 1,2,-1
 80 1358 l 1,3,-1
 186 1358 l 1,4,-1
 186 1500 l 1,5,-1
 366 1500 l 1,6,-1
 366 1358 l 1,7,-1
 654 1358 l 1,8,-1
 654 1218 l 1,9,-1
 366 1218 l 1,10,-1
 366 863 l 1,11,12
 451 1120 451 1120 683 1120 c 0,13,14
 825 1120 825 1120 923 1008 c 0,15,16
 1014 904 1014 904 1014 699 c 2,17,-1
 1014 0 l 1,18,-1
 834 0 l 1,19,-1
 834 699 l 2,20,21
 834 840 834 840 783 905 c 0,22,23
 735 967 735 967 639 967 c 0,24,25
 538 967 538 967 466 881 c 0,26,27
 366 762 366 762 366 592 c 2,28,-1
 366 0 l 1,29,-1
 186 0 l 1,0,-1
EndSplineSet
EndChar

StartChar: Itilde
Encoding: 231 296 234
Width: 1200
GlyphClass: 2
Flags: W
LayerCount: 2
Fore
SplineSet
339 1657 m 1,0,1
 364 1884 364 1884 512 1884 c 0,2,3
 589 1884 589 1884 631 1814 c 0,4,5
 667 1754 667 1754 686 1754 c 0,6,7
 740 1754 740 1754 754 1843 c 1,8,-1
 857 1843 l 1,9,10
 832 1616 832 1616 684 1616 c 0,11,12
 607 1616 607 1616 564 1693 c 0,13,14
 532 1750 532 1750 512 1750 c 0,15,16
 458 1750 458 1750 442 1657 c 1,17,-1
 339 1657 l 1,0,1
186 0 m 1,18,-1
 186 160 l 1,19,-1
 510 160 l 1,20,-1
 510 1340 l 1,21,-1
 186 1340 l 1,22,-1
 186 1500 l 1,23,-1
 1014 1500 l 1,24,-1
 1014 1340 l 1,25,-1
 690 1340 l 1,26,-1
 690 160 l 1,27,-1
 1014 160 l 1,28,-1
 1014 0 l 1,29,-1
 186 0 l 1,18,-1
EndSplineSet
EndChar

StartChar: itilde
Encoding: 232 297 235
Width: 1200
GlyphClass: 2
Flags: W
LayerCount: 2
Fore
SplineSet
291 1298 m 1,0,1
 316 1525 316 1525 464 1525 c 0,2,3
 541 1525 541 1525 583 1455 c 0,4,5
 619 1395 619 1395 638 1395 c 0,6,7
 692 1395 692 1395 706 1484 c 1,8,-1
 809 1484 l 1,9,10
 784 1257 784 1257 636 1257 c 0,11,12
 559 1257 559 1257 516 1334 c 0,13,14
 484 1391 484 1391 464 1391 c 0,15,16
 410 1391 410 1391 394 1298 c 1,17,-1
 291 1298 l 1,0,1
1150 97 m 1,18,19
 1050 -20 1050 -20 875 -20 c 0,20,21
 697 -20 697 -20 601 92 c 0,22,23
 510 198 510 198 510 401 c 2,24,-1
 510 940 l 1,25,-1
 186 940 l 1,26,-1
 186 1100 l 1,27,-1
 690 1100 l 1,28,-1
 690 401 l 2,29,30
 690 261 690 261 741 195 c 0,31,32
 789 133 789 133 885 133 c 0,33,34
 986 133 986 133 1058 219 c 1,35,-1
 1150 97 l 1,18,19
EndSplineSet
EndChar

StartChar: Imacron
Encoding: 233 298 236
Width: 1200
GlyphClass: 2
Flags: W
LayerCount: 2
Fore
SplineSet
370 1670 m 1,0,-1
 370 1830 l 1,1,-1
 838 1830 l 1,2,-1
 838 1670 l 1,3,-1
 370 1670 l 1,0,-1
186 0 m 1,4,-1
 186 160 l 1,5,-1
 510 160 l 1,6,-1
 510 1340 l 1,7,-1
 186 1340 l 1,8,-1
 186 1500 l 1,9,-1
 1014 1500 l 1,10,-1
 1014 1340 l 1,11,-1
 690 1340 l 1,12,-1
 690 160 l 1,13,-1
 1014 160 l 1,14,-1
 1014 0 l 1,15,-1
 186 0 l 1,4,-1
EndSplineSet
EndChar

StartChar: imacron
Encoding: 234 299 237
Width: 1200
GlyphClass: 2
Flags: W
LayerCount: 2
Fore
SplineSet
1150 97 m 1,0,1
 1050 -20 1050 -20 875 -20 c 0,2,3
 697 -20 697 -20 601 92 c 0,4,5
 510 198 510 198 510 401 c 2,6,-1
 510 940 l 1,7,-1
 186 940 l 1,8,-1
 186 1100 l 1,9,-1
 690 1100 l 1,10,-1
 690 401 l 2,11,12
 690 261 690 261 741 195 c 0,13,14
 789 133 789 133 885 133 c 0,15,16
 986 133 986 133 1058 219 c 1,17,-1
 1150 97 l 1,0,1
366 1310 m 1,18,-1
 366 1470 l 1,19,-1
 834 1470 l 1,20,-1
 834 1310 l 1,21,-1
 366 1310 l 1,18,-1
EndSplineSet
EndChar

StartChar: Ibreve
Encoding: 235 300 238
Width: 1200
GlyphClass: 2
Flags: W
LayerCount: 2
Fore
SplineSet
306 1861 m 1,0,-1
 443 1861 l 1,1,2
 506 1784 506 1784 592 1784 c 0,3,4
 693 1784 693 1784 746 1861 c 1,5,-1
 880 1861 l 1,6,7
 779 1632 779 1632 592 1632 c 0,8,9
 398 1632 398 1632 306 1861 c 1,0,-1
186 0 m 1,10,-1
 186 160 l 1,11,-1
 510 160 l 1,12,-1
 510 1340 l 1,13,-1
 186 1340 l 1,14,-1
 186 1500 l 1,15,-1
 1014 1500 l 1,16,-1
 1014 1340 l 1,17,-1
 690 1340 l 1,18,-1
 690 160 l 1,19,-1
 1014 160 l 1,20,-1
 1014 0 l 1,21,-1
 186 0 l 1,10,-1
EndSplineSet
EndChar

StartChar: ibreve
Encoding: 236 301 239
Width: 1200
GlyphClass: 2
Flags: W
LayerCount: 2
Fore
SplineSet
254 1488 m 1,0,-1
 391 1488 l 1,1,2
 454 1411 454 1411 540 1411 c 0,3,4
 641 1411 641 1411 694 1488 c 1,5,-1
 828 1488 l 1,6,7
 727 1259 727 1259 540 1259 c 0,8,9
 346 1259 346 1259 254 1488 c 1,0,-1
1150 97 m 1,10,11
 1050 -20 1050 -20 875 -20 c 0,12,13
 697 -20 697 -20 601 92 c 0,14,15
 510 198 510 198 510 401 c 2,16,-1
 510 940 l 1,17,-1
 186 940 l 1,18,-1
 186 1100 l 1,19,-1
 690 1100 l 1,20,-1
 690 401 l 2,21,22
 690 261 690 261 741 195 c 0,23,24
 789 133 789 133 885 133 c 0,25,26
 986 133 986 133 1058 219 c 1,27,-1
 1150 97 l 1,10,11
EndSplineSet
EndChar

StartChar: Iogonek
Encoding: 237 302 240
Width: 1200
GlyphClass: 2
Flags: W
LayerCount: 2
Fore
SplineSet
186 0 m 1,0,-1
 186 160 l 1,1,-1
 510 160 l 1,2,-1
 510 1340 l 1,3,-1
 186 1340 l 1,4,-1
 186 1500 l 1,5,-1
 1014 1500 l 1,6,-1
 1014 1340 l 1,7,-1
 690 1340 l 1,8,-1
 690 160 l 1,9,-1
 1014 160 l 1,10,-1
 1014 0 l 1,11,-1
 953 0 l 1,12,13
 909 -47 909 -47 909 -110 c 0,14,15
 909 -182 909 -182 991 -221 c 1,16,-1
 991 -410 l 1,17,18
 777 -320 777 -320 777 -126 c 0,19,20
 777 -57 777 -57 810 0 c 1,21,-1
 186 0 l 1,0,-1
EndSplineSet
EndChar

StartChar: iogonek
Encoding: 238 303 241
Width: 1200
GlyphClass: 2
Flags: W
LayerCount: 2
Fore
SplineSet
560 1520 m 0,0,1
 619 1520 619 1520 654 1484 c 0,2,3
 694 1443 694 1443 694 1388 c 128,-1,4
 694 1333 694 1333 654 1294 c 0,5,6
 615 1256 615 1256 560 1256 c 0,7,8
 503 1256 503 1256 466 1292 c 0,9,10
 426 1331 426 1331 426 1388 c 128,-1,11
 426 1445 426 1445 466 1482.5 c 128,-1,12
 506 1520 506 1520 560 1520 c 0,0,1
1150 97 m 1,13,14
 1115 55 1115 55 1070 28 c 1,15,16
 994 -27 994 -27 994 -110 c 0,17,18
 994 -182 994 -182 1076 -221 c 1,19,-1
 1076 -410 l 1,20,21
 862 -320 862 -320 862 -126 c 0,22,23
 862 -69 862 -69 885 -20 c 1,24,25
 697 -20 697 -20 601 92 c 0,26,27
 510 198 510 198 510 401 c 2,28,-1
 510 940 l 1,29,-1
 186 940 l 1,30,-1
 186 1100 l 1,31,-1
 690 1100 l 1,32,-1
 690 401 l 2,33,34
 690 261 690 261 741 195 c 0,35,36
 789 133 789 133 885 133 c 0,37,38
 986 133 986 133 1058 219 c 1,39,-1
 1150 97 l 1,13,14
EndSplineSet
EndChar

StartChar: Idotaccent
Encoding: 239 304 242
Width: 1200
GlyphClass: 2
Flags: W
LayerCount: 2
Fore
SplineSet
600 1881 m 0,0,1
 659 1881 659 1881 694 1845 c 0,2,3
 734 1804 734 1804 734 1749 c 128,-1,4
 734 1694 734 1694 694 1655 c 0,5,6
 655 1617 655 1617 600 1617 c 0,7,8
 543 1617 543 1617 506 1653 c 0,9,10
 466 1692 466 1692 466 1749 c 128,-1,11
 466 1806 466 1806 506 1843.5 c 128,-1,12
 546 1881 546 1881 600 1881 c 0,0,1
186 0 m 1,13,-1
 186 160 l 1,14,-1
 510 160 l 1,15,-1
 510 1340 l 1,16,-1
 186 1340 l 1,17,-1
 186 1500 l 1,18,-1
 1014 1500 l 1,19,-1
 1014 1340 l 1,20,-1
 690 1340 l 1,21,-1
 690 160 l 1,22,-1
 1014 160 l 1,23,-1
 1014 0 l 1,24,-1
 186 0 l 1,13,-1
EndSplineSet
EndChar

StartChar: dotlessi
Encoding: 240 305 243
Width: 1200
GlyphClass: 2
Flags: W
LayerCount: 2
Fore
SplineSet
1150 97 m 1,0,1
 1050 -20 1050 -20 875 -20 c 0,2,3
 697 -20 697 -20 601 92 c 0,4,5
 510 198 510 198 510 401 c 2,6,-1
 510 940 l 1,7,-1
 186 940 l 1,8,-1
 186 1100 l 1,9,-1
 690 1100 l 1,10,-1
 690 401 l 2,11,12
 690 261 690 261 741 195 c 0,13,14
 789 133 789 133 885 133 c 0,15,16
 986 133 986 133 1058 219 c 1,17,-1
 1150 97 l 1,0,1
EndSplineSet
EndChar

StartChar: IJ
Encoding: 241 306 244
Width: 1200
GlyphClass: 2
Flags: W
LayerCount: 2
Fore
SplineSet
619 1500 m 1,0,-1
 1080 1500 l 1,1,-1
 1081 442 l 2,2,3
 1081 226 1081 226 1013 110 c 0,4,5
 937 -20 937 -20 790 -20 c 0,6,7
 638 -20 638 -20 564 116 c 0,8,9
 505 224 505 224 505 442 c 1,10,-1
 673 442 l 1,11,12
 673 308 673 308 698 229 c 0,13,14
 729 133 729 133 800 133 c 0,15,16
 860 133 860 133 892 224 c 1,17,18
 917 291 917 291 917 442 c 2,19,-1
 917 1340 l 1,20,-1
 619 1340 l 1,21,-1
 619 1500 l 1,0,-1
30 0 m 1,22,-1
 30 160 l 1,23,-1
 177 160 l 1,24,-1
 177 1340 l 1,25,-1
 30 1340 l 1,26,-1
 30 1500 l 1,27,-1
 493 1500 l 1,28,-1
 493 1340 l 1,29,-1
 337 1340 l 1,30,-1
 337 160 l 1,31,-1
 493 160 l 1,32,-1
 493 0 l 1,33,-1
 30 0 l 1,22,-1
EndSplineSet
EndChar

StartChar: ij
Encoding: 242 307 245
Width: 1200
GlyphClass: 2
Flags: W
LayerCount: 2
Fore
SplineSet
60 1100 m 1,0,-1
 424 1100 l 1,1,-1
 424 401 l 2,2,3
 424 265 424 265 480 194 c 0,4,5
 528 133 528 133 629 133 c 1,6,-1
 629 -20 l 1,7,8
 451 -20 451 -20 355 92 c 0,9,10
 264 198 264 198 264 401 c 2,11,-1
 264 940 l 1,12,-1
 60 940 l 1,13,-1
 60 1100 l 1,0,-1
294 1520 m 0,14,15
 353 1520 353 1520 388 1484 c 0,16,17
 428 1443 428 1443 428 1388 c 128,-1,18
 428 1333 428 1333 388 1294 c 0,19,20
 349 1256 349 1256 294 1256 c 0,21,22
 237 1256 237 1256 200 1292 c 0,23,24
 160 1331 160 1331 160 1388 c 128,-1,25
 160 1445 160 1445 200 1482.5 c 128,-1,26
 240 1520 240 1520 294 1520 c 0,14,15
884 1520 m 0,27,28
 943 1520 943 1520 978 1484 c 0,29,30
 1018 1443 1018 1443 1018 1388 c 128,-1,31
 1018 1333 1018 1333 978 1294 c 0,32,33
 939 1256 939 1256 884 1256 c 0,34,35
 827 1256 827 1256 790 1292 c 0,36,37
 750 1331 750 1331 750 1388 c 128,-1,38
 750 1445 750 1445 790 1482.5 c 128,-1,39
 830 1520 830 1520 884 1520 c 0,27,28
374 -303 m 1,40,-1
 466 -181 l 1,41,42
 538 -267 538 -267 639 -267 c 0,43,44
 736 -267 736 -267 791 -208 c 1,45,46
 854 -137 854 -137 854 1 c 2,47,-1
 854 940 l 1,48,-1
 630 940 l 1,49,-1
 630 1100 l 1,50,-1
 1014 1100 l 1,51,-1
 1014 1 l 2,52,53
 1014 -206 1014 -206 923 -308 c 0,54,55
 823 -420 823 -420 650 -420 c 0,56,57
 474 -420 474 -420 374 -303 c 1,40,-1
EndSplineSet
EndChar

StartChar: Jcircumflex
Encoding: 243 308 246
Width: 1200
GlyphClass: 2
Flags: W
LayerCount: 2
Fore
SplineSet
429 1646 m 1,0,-1
 641 1930 l 1,1,-1
 747 1930 l 1,2,-1
 959 1646 l 1,3,-1
 848 1574 l 1,4,-1
 694 1766 l 1,5,-1
 538 1574 l 1,6,-1
 429 1646 l 1,0,-1
100 434 m 1,7,-1
 280 434 l 1,8,9
 280 313 280 313 345 231 c 0,10,11
 423 133 423 133 550 133 c 0,12,13
 670 133 670 133 753 233 c 0,14,15
 820 314 820 314 820 434 c 2,16,-1
 820 1340 l 1,17,-1
 280 1340 l 1,18,-1
 280 1500 l 1,19,-1
 1000 1500 l 1,20,-1
 1000 434 l 2,21,22
 1000 254 1000 254 881 120 c 1,23,24
 755 -20 755 -20 550 -20 c 0,25,26
 349 -20 349 -20 216 121 c 0,27,28
 100 244 100 244 100 434 c 1,7,-1
EndSplineSet
EndChar

StartChar: jcircumflex
Encoding: 244 309 247
Width: 1200
GlyphClass: 2
Flags: W
LayerCount: 2
Fore
SplineSet
370 1244 m 1,0,-1
 582 1528 l 1,1,-1
 688 1528 l 1,2,-1
 900 1244 l 1,3,-1
 789 1172 l 1,4,-1
 635 1364 l 1,5,-1
 479 1172 l 1,6,-1
 370 1244 l 1,0,-1
159 -303 m 1,7,-1
 251 -181 l 1,8,9
 323 -267 323 -267 424 -267 c 0,10,11
 520 -267 520 -267 568 -205 c 0,12,13
 619 -139 619 -139 619 1 c 2,14,-1
 619 940 l 1,15,-1
 295 940 l 1,16,-1
 295 1100 l 1,17,-1
 799 1100 l 1,18,-1
 799 1 l 2,19,20
 799 -206 799 -206 708 -308 c 0,21,22
 608 -420 608 -420 435 -420 c 0,23,24
 259 -420 259 -420 159 -303 c 1,7,-1
EndSplineSet
EndChar

StartChar: Kcommaaccent
Encoding: 245 310 248
Width: 1200
GlyphClass: 2
Flags: W
LayerCount: 2
Fore
SplineSet
150 0 m 1,0,-1
 150 1500 l 1,1,-1
 330 1500 l 1,2,-1
 330 628 l 1,3,4
 680 1034 680 1034 835 1500 c 1,5,-1
 1015 1500 l 1,6,7
 864 1078 864 1078 627 752 c 1,8,9
 890 416 890 416 1050 0 c 1,10,-1
 868 0 l 1,11,12
 720 348 720 348 521 622 c 1,13,14
 440 510 440 510 330 396 c 1,15,-1
 330 0 l 1,16,-1
 150 0 l 1,0,-1
494 -410 m 1,17,-1
 332 -316 l 1,18,-1
 544 -32 l 1,19,-1
 654 -96 l 1,20,-1
 494 -410 l 1,17,-1
EndSplineSet
EndChar

StartChar: kcommaaccent
Encoding: 246 311 249
Width: 1200
GlyphClass: 2
Flags: W
LayerCount: 2
Fore
SplineSet
186 0 m 1,0,-1
 186 1500 l 1,1,-1
 366 1500 l 1,2,-1
 366 365 l 1,3,4
 704 648 704 648 815 1100 c 1,5,-1
 995 1100 l 1,6,7
 924 808 924 808 749 552 c 1,8,9
 906 312 906 312 1014 0 c 1,10,-1
 832 0 l 1,11,12
 750 236 750 236 634 405 c 1,13,14
 519 282 519 282 366 157 c 1,15,-1
 366 0 l 1,16,-1
 186 0 l 1,0,-1
494 -410 m 1,17,-1
 332 -316 l 1,18,-1
 544 -32 l 1,19,-1
 654 -96 l 1,20,-1
 494 -410 l 1,17,-1
EndSplineSet
EndChar

StartChar: kgreenlandic
Encoding: 247 312 250
Width: 1200
GlyphClass: 2
Flags: W
LayerCount: 2
Fore
SplineSet
186 0 m 1,0,-1
 186 1100 l 1,1,-1
 366 1100 l 1,2,-1
 366 365 l 1,3,4
 704 648 704 648 815 1100 c 1,5,-1
 995 1100 l 1,6,7
 924 808 924 808 749 552 c 1,8,9
 906 312 906 312 1014 0 c 1,10,-1
 832 0 l 1,11,12
 750 236 750 236 634 405 c 1,13,14
 519 282 519 282 366 157 c 1,15,-1
 366 0 l 1,16,-1
 186 0 l 1,0,-1
EndSplineSet
EndChar

StartChar: Lacute
Encoding: 248 313 251
Width: 1200
GlyphClass: 2
Flags: W
LayerCount: 2
Fore
SplineSet
186 0 m 1,0,-1
 186 1500 l 1,1,-1
 366 1500 l 1,2,-1
 366 160 l 1,3,-1
 1014 160 l 1,4,-1
 1014 0 l 1,5,-1
 186 0 l 1,0,-1
424 1930 m 1,6,-1
 586 1836 l 1,7,-1
 374 1552 l 1,8,-1
 264 1616 l 1,9,-1
 424 1930 l 1,6,-1
EndSplineSet
EndChar

StartChar: lacute
Encoding: 249 314 252
Width: 1200
GlyphClass: 2
Flags: W
LayerCount: 2
Fore
SplineSet
1150 97 m 1,0,1
 1050 -20 1050 -20 874 -20 c 0,2,3
 701 -20 701 -20 601 92 c 0,4,5
 510 194 510 194 510 401 c 2,6,-1
 510 1340 l 1,7,-1
 186 1340 l 1,8,-1
 186 1500 l 1,9,-1
 690 1500 l 1,10,-1
 690 401 l 2,11,12
 690 261 690 261 741 195 c 0,13,14
 789 133 789 133 885 133 c 0,15,16
 986 133 986 133 1058 219 c 1,17,18
 1058 219 1058 219 1150 97 c 1,0,1
665 1930 m 1,19,-1
 827 1836 l 1,20,-1
 615 1552 l 1,21,-1
 505 1616 l 1,22,-1
 665 1930 l 1,19,-1
EndSplineSet
EndChar

StartChar: Lcommaaccent
Encoding: 250 315 253
Width: 1200
GlyphClass: 2
Flags: W
LayerCount: 2
Fore
SplineSet
186 0 m 1,0,-1
 186 1500 l 1,1,-1
 366 1500 l 1,2,-1
 366 160 l 1,3,-1
 1014 160 l 1,4,-1
 1014 0 l 1,5,-1
 186 0 l 1,0,-1
494 -410 m 1,6,-1
 332 -316 l 1,7,-1
 544 -32 l 1,8,-1
 654 -96 l 1,9,-1
 494 -410 l 1,6,-1
EndSplineSet
EndChar

StartChar: lcommaaccent
Encoding: 251 316 254
Width: 1200
GlyphClass: 2
Flags: W
LayerCount: 2
Fore
SplineSet
1150 97 m 1,0,1
 1050 -20 1050 -20 874 -20 c 0,2,3
 701 -20 701 -20 601 92 c 0,4,5
 510 194 510 194 510 401 c 2,6,-1
 510 1340 l 1,7,-1
 186 1340 l 1,8,-1
 186 1500 l 1,9,-1
 690 1500 l 1,10,-1
 690 401 l 2,11,12
 690 261 690 261 741 195 c 0,13,14
 789 133 789 133 885 133 c 0,15,16
 986 133 986 133 1058 219 c 1,17,18
 1058 219 1058 219 1150 97 c 1,0,1
494 -410 m 1,19,-1
 332 -316 l 1,20,-1
 544 -32 l 1,21,-1
 654 -96 l 1,22,-1
 494 -410 l 1,19,-1
EndSplineSet
EndChar

StartChar: Lcaron
Encoding: 252 317 255
Width: 1200
GlyphClass: 2
Flags: W
LayerCount: 2
Fore
SplineSet
186 0 m 1,0,-1
 186 1500 l 1,1,-1
 366 1500 l 1,2,-1
 366 160 l 1,3,-1
 1014 160 l 1,4,-1
 1014 0 l 1,5,-1
 186 0 l 1,0,-1
706 1528 m 1,6,-1
 868 1434 l 1,7,-1
 656 1150 l 1,8,-1
 546 1214 l 1,9,-1
 706 1528 l 1,6,-1
EndSplineSet
EndChar

StartChar: lcaron
Encoding: 253 318 256
Width: 1200
GlyphClass: 2
Flags: W
LayerCount: 2
Fore
SplineSet
1150 97 m 1,0,1
 1050 -20 1050 -20 874 -20 c 0,2,3
 701 -20 701 -20 601 92 c 0,4,5
 510 194 510 194 510 401 c 2,6,-1
 510 1340 l 1,7,-1
 186 1340 l 1,8,-1
 186 1500 l 1,9,-1
 690 1500 l 1,10,-1
 690 401 l 2,11,12
 690 261 690 261 741 195 c 0,13,14
 789 133 789 133 885 133 c 0,15,16
 986 133 986 133 1058 219 c 1,17,18
 1058 219 1058 219 1150 97 c 1,0,1
938 1528 m 1,19,-1
 1100 1434 l 1,20,-1
 888 1150 l 1,21,-1
 778 1214 l 1,22,-1
 938 1528 l 1,19,-1
EndSplineSet
EndChar

StartChar: Ldot
Encoding: 254 319 257
Width: 1200
GlyphClass: 2
Flags: W
LayerCount: 2
Fore
SplineSet
683 1120 m 0,0,1
 742 1120 742 1120 777 1084 c 0,2,3
 817 1043 817 1043 817 988 c 128,-1,4
 817 933 817 933 777 894 c 0,5,6
 738 856 738 856 683 856 c 0,7,8
 626 856 626 856 589 892 c 0,9,10
 549 931 549 931 549 988 c 128,-1,11
 549 1045 549 1045 589 1082.5 c 128,-1,12
 629 1120 629 1120 683 1120 c 0,0,1
186 0 m 1,13,-1
 186 1500 l 1,14,-1
 366 1500 l 1,15,-1
 366 160 l 1,16,-1
 1014 160 l 1,17,-1
 1014 0 l 1,18,-1
 186 0 l 1,13,-1
EndSplineSet
EndChar

StartChar: ldot
Encoding: 255 320 258
Width: 1200
GlyphClass: 2
Flags: W
LayerCount: 2
Fore
SplineSet
925 1120 m 0,0,1
 984 1120 984 1120 1019 1084 c 0,2,3
 1059 1043 1059 1043 1059 988 c 128,-1,4
 1059 933 1059 933 1019 894 c 0,5,6
 980 856 980 856 925 856 c 0,7,8
 868 856 868 856 831 892 c 0,9,10
 791 931 791 931 791 988 c 128,-1,11
 791 1045 791 1045 831 1082.5 c 128,-1,12
 871 1120 871 1120 925 1120 c 0,0,1
1150 97 m 1,13,14
 1050 -20 1050 -20 874 -20 c 0,15,16
 701 -20 701 -20 601 92 c 0,17,18
 510 194 510 194 510 401 c 2,19,-1
 510 1340 l 1,20,-1
 186 1340 l 1,21,-1
 186 1500 l 1,22,-1
 690 1500 l 1,23,-1
 690 401 l 2,24,25
 690 261 690 261 741 195 c 0,26,27
 789 133 789 133 885 133 c 0,28,29
 986 133 986 133 1058 219 c 1,30,-1
 1150 97 l 1,13,14
EndSplineSet
EndChar

StartChar: Lslash
Encoding: 256 321 259
Width: 1200
GlyphClass: 2
Flags: W
LayerCount: 2
Fore
SplineSet
186 0 m 1,0,-1
 186 431 l 1,1,-1
 92 532 l 1,2,-1
 186 611 l 1,3,-1
 186 1500 l 1,4,-1
 366 1500 l 1,5,-1
 366 762 l 1,6,-1
 727 1064 l 1,7,-1
 820 962 l 1,8,-1
 366 582 l 1,9,-1
 366 160 l 1,10,-1
 1014 160 l 1,11,-1
 1014 0 l 1,12,-1
 186 0 l 1,0,-1
EndSplineSet
EndChar

StartChar: lslash
Encoding: 257 322 260
Width: 1200
GlyphClass: 2
Flags: W
LayerCount: 2
Fore
SplineSet
1150 97 m 1,0,1
 1050 -20 1050 -20 874 -20 c 0,2,3
 701 -20 701 -20 601 92 c 0,4,5
 510 194 510 194 510 401 c 2,6,-1
 510 570 l 1,7,-1
 334 423 l 1,8,-1
 241 525 l 1,9,-1
 510 750 l 1,10,-1
 510 1340 l 1,11,-1
 186 1340 l 1,12,-1
 186 1500 l 1,13,-1
 690 1500 l 1,14,-1
 690 901 l 1,15,-1
 876 1057 l 1,16,-1
 969 955 l 1,17,-1
 690 721 l 1,18,-1
 690 401 l 2,19,20
 690 261 690 261 741 195 c 0,21,22
 789 133 789 133 885 133 c 0,23,24
 986 133 986 133 1058 219 c 1,25,-1
 1150 97 l 1,0,1
EndSplineSet
EndChar

StartChar: Nacute
Encoding: 258 323 261
Width: 1200
GlyphClass: 2
Flags: W
LayerCount: 2
Fore
SplineSet
150 0 m 1,0,-1
 150 1500 l 1,1,-1
 330 1500 l 1,2,3
 732 1034 732 1034 890 462 c 1,4,-1
 890 1500 l 1,5,-1
 1050 1500 l 1,6,-1
 1050 0 l 1,7,-1
 890 0 l 1,8,9
 646 843 646 843 310 1264 c 1,10,-1
 310 0 l 1,11,-1
 150 0 l 1,0,-1
706 1930 m 1,12,-1
 868 1836 l 1,13,-1
 656 1552 l 1,14,-1
 546 1616 l 1,15,-1
 706 1930 l 1,12,-1
EndSplineSet
EndChar

StartChar: nacute
Encoding: 259 324 262
Width: 1200
GlyphClass: 2
Flags: W
LayerCount: 2
Fore
SplineSet
186 0 m 1,0,-1
 186 1100 l 1,1,-1
 366 1100 l 1,2,-1
 366 863 l 1,3,4
 451 1120 451 1120 683 1120 c 0,5,6
 825 1120 825 1120 923 1008 c 0,7,8
 1014 904 1014 904 1014 699 c 2,9,-1
 1014 0 l 1,10,-1
 834 0 l 1,11,-1
 834 699 l 2,12,13
 834 840 834 840 783 905 c 0,14,15
 735 967 735 967 639 967 c 0,16,17
 538 967 538 967 466 881 c 0,18,19
 366 762 366 762 366 592 c 2,20,-1
 366 0 l 1,21,-1
 186 0 l 1,0,-1
706 1528 m 1,22,-1
 868 1434 l 1,23,-1
 656 1150 l 1,24,-1
 546 1214 l 1,25,-1
 706 1528 l 1,22,-1
EndSplineSet
EndChar

StartChar: Ncommaaccent
Encoding: 260 325 263
Width: 1200
GlyphClass: 2
Flags: W
LayerCount: 2
Fore
SplineSet
150 0 m 1,0,-1
 150 1500 l 1,1,-1
 330 1500 l 1,2,3
 732 1034 732 1034 890 462 c 1,4,-1
 890 1500 l 1,5,-1
 1050 1500 l 1,6,-1
 1050 0 l 1,7,-1
 890 0 l 1,8,9
 646 843 646 843 310 1264 c 1,10,-1
 310 0 l 1,11,-1
 150 0 l 1,0,-1
494 -410 m 1,12,-1
 332 -316 l 1,13,-1
 544 -32 l 1,14,-1
 654 -96 l 1,15,-1
 494 -410 l 1,12,-1
EndSplineSet
EndChar

StartChar: ncommaaccent
Encoding: 261 326 264
Width: 1200
GlyphClass: 2
Flags: W
LayerCount: 2
Fore
SplineSet
186 0 m 1,0,-1
 186 1100 l 1,1,-1
 366 1100 l 1,2,-1
 366 863 l 1,3,4
 451 1120 451 1120 683 1120 c 0,5,6
 825 1120 825 1120 923 1008 c 0,7,8
 1014 904 1014 904 1014 699 c 2,9,-1
 1014 0 l 1,10,-1
 834 0 l 1,11,-1
 834 699 l 2,12,13
 834 840 834 840 783 905 c 0,14,15
 735 967 735 967 639 967 c 0,16,17
 538 967 538 967 466 881 c 0,18,19
 366 762 366 762 366 592 c 2,20,-1
 366 0 l 1,21,-1
 186 0 l 1,0,-1
EndSplineSet
EndChar

StartChar: Ncaron
Encoding: 262 327 265
Width: 1200
GlyphClass: 2
Flags: W
LayerCount: 2
Fore
SplineSet
869 1858 m 1,0,-1
 657 1574 l 1,1,-1
 551 1574 l 1,2,-1
 339 1858 l 1,3,-1
 450 1930 l 1,4,-1
 604 1738 l 1,5,-1
 760 1930 l 1,6,-1
 869 1858 l 1,0,-1
150 0 m 1,7,-1
 150 1500 l 1,8,-1
 330 1500 l 1,9,10
 732 1034 732 1034 890 462 c 1,11,-1
 890 1500 l 1,12,-1
 1050 1500 l 1,13,-1
 1050 0 l 1,14,-1
 890 0 l 1,15,16
 646 843 646 843 310 1264 c 1,17,-1
 310 0 l 1,18,-1
 150 0 l 1,7,-1
EndSplineSet
EndChar

StartChar: ncaron
Encoding: 263 328 266
Width: 1200
GlyphClass: 2
Flags: W
LayerCount: 2
Fore
SplineSet
868 1456 m 1,0,-1
 656 1172 l 1,1,-1
 550 1172 l 1,2,-1
 338 1456 l 1,3,-1
 449 1528 l 1,4,-1
 603 1336 l 1,5,-1
 759 1528 l 1,6,-1
 868 1456 l 1,0,-1
186 0 m 1,7,-1
 186 1100 l 1,8,-1
 366 1100 l 1,9,-1
 366 863 l 1,10,11
 451 1120 451 1120 683 1120 c 0,12,13
 825 1120 825 1120 923 1008 c 0,14,15
 1014 904 1014 904 1014 699 c 2,16,-1
 1014 0 l 1,17,-1
 834 0 l 1,18,-1
 834 699 l 2,19,20
 834 840 834 840 783 905 c 0,21,22
 735 967 735 967 639 967 c 0,23,24
 538 967 538 967 466 881 c 0,25,26
 366 762 366 762 366 592 c 2,27,-1
 366 0 l 1,28,-1
 186 0 l 1,7,-1
EndSplineSet
EndChar

StartChar: napostrophe
Encoding: 264 329 267
Width: 1200
GlyphClass: 2
Flags: W
LayerCount: 2
Fore
SplineSet
186 0 m 1,0,-1
 186 1100 l 1,1,-1
 366 1100 l 1,2,-1
 366 863 l 1,3,4
 451 1120 451 1120 683 1120 c 0,5,6
 825 1120 825 1120 923 1008 c 0,7,8
 1014 904 1014 904 1014 699 c 2,9,-1
 1014 0 l 1,10,-1
 834 0 l 1,11,-1
 834 699 l 2,12,13
 834 840 834 840 783 905 c 0,14,15
 735 967 735 967 639 967 c 0,16,17
 538 967 538 967 466 881 c 0,18,19
 366 762 366 762 366 592 c 2,20,-1
 366 0 l 1,21,-1
 186 0 l 1,0,-1
170 1432 m 1,22,-1
 332 1338 l 1,23,-1
 120 1054 l 1,24,-1
 10 1118 l 1,25,-1
 170 1432 l 1,22,-1
EndSplineSet
EndChar

StartChar: Eng
Encoding: 265 330 268
Width: 1200
GlyphClass: 2
Flags: W
LayerCount: 2
Fore
SplineSet
150 0 m 1,0,-1
 150 1500 l 1,1,-1
 330 1500 l 1,2,3
 732 1034 732 1034 890 462 c 1,4,-1
 890 1500 l 1,5,-1
 1050 1500 l 1,6,-1
 1050 0 l 2,7,8
 1050 -185 1050 -185 952 -284 c 0,9,10
 827 -410 827 -410 597 -410 c 1,11,-1
 597 -279 l 1,12,13
 746 -279 746 -279 828 -193 c 0,14,15
 889 -129 889 -129 890 0 c 1,16,17
 646 843 646 843 310 1264 c 1,18,-1
 310 0 l 1,19,-1
 150 0 l 1,0,-1
EndSplineSet
EndChar

StartChar: eng
Encoding: 266 331 269
Width: 1200
GlyphClass: 2
Flags: W
LayerCount: 2
Fore
SplineSet
186 0 m 1,0,-1
 186 1100 l 1,1,-1
 366 1100 l 1,2,-1
 366 863 l 1,3,4
 451 1120 451 1120 683 1120 c 0,5,6
 825 1120 825 1120 923 1008 c 0,7,8
 1014 904 1014 904 1014 699 c 2,9,-1
 1014 0 l 2,10,11
 1014 -185 1014 -185 916 -284 c 0,12,13
 791 -410 791 -410 561 -410 c 1,14,-1
 561 -275 l 1,15,16
 703 -275 703 -275 774 -198 c 0,17,18
 834 -133 834 -133 834 0 c 2,19,-1
 834 699 l 2,20,21
 834 840 834 840 783 905 c 0,22,23
 735 967 735 967 639 967 c 0,24,25
 538 967 538 967 466 881 c 0,26,27
 366 762 366 762 366 592 c 2,28,-1
 366 0 l 1,29,-1
 186 0 l 1,0,-1
EndSplineSet
EndChar

StartChar: Omacron
Encoding: 267 332 270
Width: 1200
GlyphClass: 2
Flags: W
LayerCount: 2
Fore
SplineSet
600 133 m 0,0,1
 742 133 742 133 832 302 c 0,2,3
 910 448 910 448 910 750 c 0,4,5
 910 1048 910 1048 832 1198 c 1,6,7
 742 1367 742 1367 600 1367 c 0,8,9
 459 1367 459 1367 368 1198 c 0,10,11
 290 1053 290 1053 290 750 c 0,12,13
 290 441 290 441 368 302 c 0,14,15
 463 133 463 133 600 133 c 0,0,1
600 -20 m 0,16,17
 342 -20 342 -20 216 217 c 0,18,19
 110 417 110 417 110 750 c 128,-1,20
 110 1083 110 1083 216 1283 c 0,21,22
 342 1520 342 1520 600 1520 c 0,23,24
 860 1520 860 1520 984 1283 c 0,25,26
 1090 1080 1090 1080 1090 750 c 128,-1,27
 1090 420 1090 420 984 217 c 0,28,29
 860 -20 860 -20 600 -20 c 0,16,17
370 1670 m 1,30,-1
 370 1830 l 1,31,-1
 838 1830 l 1,32,-1
 838 1670 l 1,33,-1
 370 1670 l 1,30,-1
EndSplineSet
EndChar

StartChar: omacron
Encoding: 268 333 271
Width: 1200
GlyphClass: 2
Flags: W
LayerCount: 2
Fore
SplineSet
600 137 m 128,-1,1
 736 137 736 137 799 266 c 0,2,3
 850 371 850 371 850 550 c 128,-1,4
 850 729 850 729 799 834 c 0,5,6
 736 963 736 963 600 963 c 128,-1,7
 464 963 464 963 401 834 c 0,8,9
 350 729 350 729 350 550 c 128,-1,10
 350 371 350 371 401 266 c 0,11,0
 464 137 464 137 600 137 c 128,-1,1
600 -20 m 128,-1,13
 407 -20 407 -20 286 140 c 0,14,15
 170 293 170 293 170 550 c 128,-1,16
 170 807 170 807 286 960 c 0,17,18
 407 1120 407 1120 600 1120 c 128,-1,19
 793 1120 793 1120 914 960 c 0,20,21
 1030 807 1030 807 1030 550 c 128,-1,22
 1030 293 1030 293 914 140 c 0,23,12
 793 -20 793 -20 600 -20 c 128,-1,13
366 1310 m 1,24,-1
 366 1470 l 1,25,-1
 834 1470 l 1,26,-1
 834 1310 l 1,27,-1
 366 1310 l 1,24,-1
EndSplineSet
EndChar

StartChar: Obreve
Encoding: 269 334 272
Width: 1200
GlyphClass: 2
Flags: W
LayerCount: 2
Fore
SplineSet
306 1861 m 1,0,-1
 443 1861 l 1,1,2
 506 1784 506 1784 592 1784 c 0,3,4
 693 1784 693 1784 746 1861 c 1,5,-1
 880 1861 l 1,6,7
 779 1632 779 1632 592 1632 c 0,8,9
 398 1632 398 1632 306 1861 c 1,0,-1
600 133 m 0,10,11
 742 133 742 133 832 302 c 0,12,13
 910 448 910 448 910 750 c 0,14,15
 910 1048 910 1048 832 1198 c 1,16,17
 742 1367 742 1367 600 1367 c 0,18,19
 459 1367 459 1367 368 1198 c 0,20,21
 290 1053 290 1053 290 750 c 0,22,23
 290 441 290 441 368 302 c 0,24,25
 463 133 463 133 600 133 c 0,10,11
600 -20 m 0,26,27
 342 -20 342 -20 216 217 c 0,28,29
 110 417 110 417 110 750 c 128,-1,30
 110 1083 110 1083 216 1283 c 0,31,32
 342 1520 342 1520 600 1520 c 0,33,34
 860 1520 860 1520 984 1283 c 0,35,36
 1090 1080 1090 1080 1090 750 c 128,-1,37
 1090 420 1090 420 984 217 c 0,38,39
 860 -20 860 -20 600 -20 c 0,26,27
EndSplineSet
EndChar

StartChar: obreve
Encoding: 270 335 273
Width: 1200
GlyphClass: 2
Flags: W
LayerCount: 2
Fore
SplineSet
314 1488 m 1,0,-1
 451 1488 l 1,1,2
 514 1411 514 1411 600 1411 c 0,3,4
 701 1411 701 1411 754 1488 c 1,5,-1
 888 1488 l 1,6,7
 787 1259 787 1259 600 1259 c 0,8,9
 406 1259 406 1259 314 1488 c 1,0,-1
600 137 m 128,-1,11
 736 137 736 137 799 266 c 0,12,13
 850 371 850 371 850 550 c 128,-1,14
 850 729 850 729 799 834 c 0,15,16
 736 963 736 963 600 963 c 128,-1,17
 464 963 464 963 401 834 c 0,18,19
 350 729 350 729 350 550 c 128,-1,20
 350 371 350 371 401 266 c 0,21,10
 464 137 464 137 600 137 c 128,-1,11
600 -20 m 128,-1,23
 407 -20 407 -20 286 140 c 0,24,25
 170 293 170 293 170 550 c 128,-1,26
 170 807 170 807 286 960 c 0,27,28
 407 1120 407 1120 600 1120 c 128,-1,29
 793 1120 793 1120 914 960 c 0,30,31
 1030 807 1030 807 1030 550 c 128,-1,32
 1030 293 1030 293 914 140 c 0,33,22
 793 -20 793 -20 600 -20 c 128,-1,23
EndSplineSet
EndChar

StartChar: Ohungarumlaut
Encoding: 271 336 274
Width: 1200
GlyphClass: 2
Flags: W
LayerCount: 2
Fore
SplineSet
600 133 m 0,0,1
 742 133 742 133 832 302 c 0,2,3
 910 448 910 448 910 750 c 0,4,5
 910 1048 910 1048 832 1198 c 1,6,7
 742 1367 742 1367 600 1367 c 0,8,9
 459 1367 459 1367 368 1198 c 0,10,11
 290 1053 290 1053 290 750 c 0,12,13
 290 441 290 441 368 302 c 0,14,15
 463 133 463 133 600 133 c 0,0,1
600 -20 m 0,16,17
 342 -20 342 -20 216 217 c 0,18,19
 110 417 110 417 110 750 c 128,-1,20
 110 1083 110 1083 216 1283 c 0,21,22
 342 1520 342 1520 600 1520 c 0,23,24
 860 1520 860 1520 984 1283 c 0,25,26
 1090 1080 1090 1080 1090 750 c 128,-1,27
 1090 420 1090 420 984 217 c 0,28,29
 860 -20 860 -20 600 -20 c 0,16,17
553 1930 m 1,30,-1
 715 1836 l 1,31,-1
 503 1552 l 1,32,-1
 393 1616 l 1,33,-1
 553 1930 l 1,30,-1
825 1930 m 1,34,-1
 987 1836 l 1,35,-1
 775 1552 l 1,36,-1
 665 1616 l 1,37,-1
 825 1930 l 1,34,-1
EndSplineSet
EndChar

StartChar: ohungarumlaut
Encoding: 272 337 275
Width: 1200
GlyphClass: 2
Flags: W
LayerCount: 2
Fore
SplineSet
600 137 m 128,-1,1
 736 137 736 137 799 266 c 0,2,3
 850 371 850 371 850 550 c 128,-1,4
 850 729 850 729 799 834 c 0,5,6
 736 963 736 963 600 963 c 128,-1,7
 464 963 464 963 401 834 c 0,8,9
 350 729 350 729 350 550 c 128,-1,10
 350 371 350 371 401 266 c 0,11,0
 464 137 464 137 600 137 c 128,-1,1
600 -20 m 128,-1,13
 407 -20 407 -20 286 140 c 0,14,15
 170 293 170 293 170 550 c 128,-1,16
 170 807 170 807 286 960 c 0,17,18
 407 1120 407 1120 600 1120 c 128,-1,19
 793 1120 793 1120 914 960 c 0,20,21
 1030 807 1030 807 1030 550 c 128,-1,22
 1030 293 1030 293 914 140 c 0,23,12
 793 -20 793 -20 600 -20 c 128,-1,13
542 1528 m 1,24,-1
 704 1434 l 1,25,-1
 492 1150 l 1,26,-1
 382 1214 l 1,27,-1
 542 1528 l 1,24,-1
814 1528 m 1,28,-1
 976 1434 l 1,29,-1
 764 1150 l 1,30,-1
 654 1214 l 1,31,-1
 814 1528 l 1,28,-1
EndSplineSet
EndChar

StartChar: OE
Encoding: 273 338 276
Width: 1200
GlyphClass: 2
Flags: W
LayerCount: 2
Fore
SplineSet
648 153 m 1,0,-1
 648 1347 l 1,1,2
 448 1347 448 1347 357 1178 c 0,3,4
 279 1033 279 1033 279 750 c 0,5,6
 279 468 279 468 356 322 c 0,7,8
 445 153 445 153 648 153 c 1,0,-1
1190 0 m 1,9,-1
 648 0 l 2,10,11
 337 0 337 0 214 237 c 0,12,13
 109 440 109 440 109 750 c 0,14,15
 109 1062 109 1062 215 1263 c 0,16,17
 340 1500 340 1500 648 1500 c 2,18,-1
 1126 1500 l 1,19,-1
 1126 1340 l 1,20,-1
 818 1340 l 1,21,-1
 818 830 l 1,22,-1
 1056 830 l 1,23,-1
 1056 670 l 1,24,-1
 818 670 l 1,25,-1
 818 160 l 1,26,-1
 1190 160 l 1,27,-1
 1190 0 l 1,9,-1
EndSplineSet
EndChar

StartChar: oe
Encoding: 274 339 277
Width: 1200
GlyphClass: 2
Flags: W
LayerCount: 2
Fore
SplineSet
1115 334 m 1,0,1
 1114 164 1114 164 1035 72 c 128,-1,2
 956 -20 956 -20 821 -20 c 0,3,4
 666 -20 666 -20 597 106 c 1,5,6
 512 -20 512 -20 384 -20 c 0,7,8
 231 -20 231 -20 159 74 c 0,9,10
 85 169 85 169 85 334 c 2,11,-1
 85 765 l 2,12,13
 85 932 85 932 171 1031 c 0,14,15
 248 1119 248 1119 384 1120 c 1,16,17
 524 1120 524 1120 600 992 c 1,18,19
 682 1120 682 1120 820 1120 c 0,20,21
 956 1120 956 1120 1034 1028 c 0,22,23
 1115 931 1115 931 1115 765 c 2,24,-1
 1115 582 l 1,25,-1
 686 388 l 1,26,-1
 686 334 l 2,27,28
 686 238 686 238 710 196 c 1,29,30
 748 134 748 134 827 134 c 0,31,32
 901 134 901 134 934 198 c 0,33,34
 958 244 958 244 958 334 c 1,35,-1
 1115 334 l 1,0,1
825 968 m 0,36,37
 753 968 753 968 717 911 c 0,38,39
 686 862 686 862 686 765 c 2,40,-1
 686 549 l 1,41,-1
 958 659 l 1,42,-1
 958 765 l 2,43,44
 958 863 958 863 931 906 c 0,45,46
 891 968 891 968 825 968 c 0,36,37
522 334 m 2,47,-1
 522 765 l 2,48,49
 522 861 522 861 490 908 c 0,50,51
 449 967 449 967 382 968 c 1,52,53
 312 968 312 968 276 914 c 0,54,55
 249 872 249 872 249 765 c 2,56,-1
 249 334 l 2,57,58
 249 237 249 237 271 200 c 1,59,60
 313 133 313 133 385 133 c 0,61,62
 465 133 465 133 502 210 c 0,63,64
 522 252 522 252 522 334 c 2,47,-1
EndSplineSet
EndChar

StartChar: Racute
Encoding: 275 340 278
Width: 1200
GlyphClass: 2
Flags: W
LayerCount: 2
Fore
SplineSet
330 1347 m 1,0,-1
 330 653 l 1,1,-1
 546 653 l 2,2,3
 693 653 693 653 775 740 c 0,4,5
 870 841 870 841 870 1000 c 128,-1,6
 870 1159 870 1159 771 1258 c 0,7,8
 681 1347 681 1347 546 1347 c 2,9,-1
 330 1347 l 1,0,-1
150 0 m 1,10,-1
 150 1500 l 1,11,-1
 546 1500 l 2,12,13
 749 1500 749 1500 885 1381 c 0,14,15
 1050 1237 1050 1237 1050 1000 c 0,16,17
 1050 757 1050 757 884 616 c 0,18,19
 835 574 835 574 777 547 c 1,20,-1
 1100 0 l 1,21,-1
 891 0 l 1,22,-1
 594 502 l 1,23,24
 571 500 571 500 546 500 c 2,25,-1
 330 500 l 1,26,-1
 330 0 l 1,27,-1
 150 0 l 1,10,-1
706 1930 m 1,28,-1
 868 1836 l 1,29,-1
 656 1552 l 1,30,-1
 546 1616 l 1,31,-1
 706 1930 l 1,28,-1
EndSplineSet
EndChar

StartChar: racute
Encoding: 276 341 279
Width: 1200
GlyphClass: 2
Flags: W
LayerCount: 2
Fore
SplineSet
186 0 m 1,0,-1
 186 1100 l 1,1,-1
 366 1100 l 1,2,-1
 366 863 l 1,3,4
 451 1120 451 1120 683 1120 c 0,5,6
 842 1120 842 1120 934 1010 c 0,7,8
 1014 914 1014 914 1014 765 c 1,9,-1
 834 765 l 1,10,11
 834 858 834 858 790 907 c 0,12,13
 736 967 736 967 656 967 c 0,14,15
 538 967 538 967 466 881 c 0,16,17
 366 762 366 762 366 592 c 2,18,-1
 366 0 l 1,19,-1
 186 0 l 1,0,-1
706 1528 m 1,20,-1
 868 1434 l 1,21,-1
 656 1150 l 1,22,-1
 546 1214 l 1,23,-1
 706 1528 l 1,20,-1
EndSplineSet
EndChar

